Nepomuk.Greek.Cyrillic.IPA.ufo
<glyph name="nine" format="2">
  <advance width="581"/>
  <unicode hex="0039"/>
  <outline>
    <contour>
      <point x="221" y="97" type="curve" smooth="yes"/>
      <point x="221" y="140"/>
      <point x="189" y="168"/>
      <point x="151" y="168" type="curve" smooth="yes"/>
      <point x="107" y="168"/>
      <point x="78" y="136"/>
      <point x="78" y="99" type="curve" smooth="yes"/>
      <point x="78" y="26"/>
      <point x="146" y="-12"/>
      <point x="240" y="-12" type="curve" smooth="yes"/>
      <point x="392" y="-12"/>
      <point x="521" y="174"/>
      <point x="521" y="368" type="curve" smooth="yes"/>
      <point x="521" y="574"/>
      <point x="427" y="692"/>
      <point x="275" y="692" type="curve" smooth="yes"/>
      <point x="168" y="692"/>
      <point x="60" y="604" name="hr01"/>
      <point x="60" y="454" type="curve" smooth="yes"/>
      <point x="60" y="318"/>
      <point x="167" y="254"/>
      <point x="264" y="254" type="curve" smooth="yes"/>
      <point x="337" y="254"/>
      <point x="389" y="288"/>
      <point x="416" y="326" type="curve"/>
      <point x="416" y="274" type="line" smooth="yes"/>
      <point x="416" y="166"/>
      <point x="352" y="20"/>
      <point x="240" y="20" type="curve" smooth="yes"/>
      <point x="215" y="20"/>
      <point x="209" y="33" name="hr02"/>
      <point x="209" y="44" type="curve" smooth="yes"/>
      <point x="209" y="60"/>
      <point x="221" y="77" name="hr03"/>
    </contour>
    <contour>
      <point x="282" y="289" type="curve" smooth="yes"/>
      <point x="218" y="289"/>
      <point x="169" y="343"/>
      <point x="169" y="458" type="curve" smooth="yes"/>
      <point x="169" y="580"/>
      <point x="201" y="660"/>
      <point x="278" y="660" type="curve" smooth="yes"/>
      <point x="364" y="660"/>
      <point x="416" y="558"/>
      <point x="416" y="474" type="curve" smooth="yes"/>
      <point x="416" y="419" type="line" smooth="yes"/>
      <point x="416" y="331"/>
      <point x="329" y="289"/>
    </contour>
  </outline>
</glyph>
<glyph name="semicolon" format="2">
  <advance width="335"/>
  <unicode hex="003B"/>
  <outline>
    <contour>
      <point x="100" y="391" type="curve" smooth="yes"/>
      <point x="100" y="352"/>
      <point x="132" y="320"/>
      <point x="171" y="320" type="curve" smooth="yes"/>
      <point x="210" y="320"/>
      <point x="242" y="352"/>
      <point x="242" y="391" type="curve" smooth="yes"/>
      <point x="242" y="430"/>
      <point x="210" y="462"/>
      <point x="171" y="462" type="curve" smooth="yes"/>
      <point x="132" y="462"/>
      <point x="100" y="430"/>
    </contour>
    <contour>
      <point x="162" y="17" type="curve" smooth="yes"/>
      <point x="197" y="17"/>
      <point x="213" y="8"/>
      <point x="213" y="-25" type="curve" smooth="yes"/>
      <point x="213" y="-85"/>
      <point x="146" y="-141"/>
      <point x="70" y="-159" type="curve"/>
      <point x="78" y="-188" type="line"/>
      <point x="164" y="-172"/>
      <point x="260" y="-110"/>
      <point x="260" y="26" type="curve" smooth="yes"/>
      <point x="260" y="116"/>
      <point x="222" y="159"/>
      <point x="161" y="159" type="curve" smooth="yes"/>
      <point x="119" y="159"/>
      <point x="90" y="124"/>
      <point x="90" y="88" type="curve" smooth="yes"/>
      <point x="90" y="52"/>
      <point x="119" y="17"/>
    </contour>
  </outline>
</glyph>
<glyph name="B" format="2">
  <advance width="642"/>
  <unicode hex="0042"/>
  <outline>
    <contour>
      <point x="443" y="363" type="curve"/>
      <point x="443" y="363"/>
      <point x="436" y="365"/>
      <point x="436" y="369" type="curve" smooth="yes"/>
      <point x="436" y="372"/>
      <point x="443" y="374"/>
      <point x="443" y="374" type="curve"/>
      <point x="518" y="396"/>
      <point x="551" y="451"/>
      <point x="551" y="514" type="curve" smooth="yes"/>
      <point x="551" y="619"/>
      <point x="471" y="680"/>
      <point x="319" y="680" type="curve" smooth="yes"/>
      <point x="48" y="680" type="line"/>
      <point x="48" y="645" type="line"/>
      <point x="88" y="645" type="line" smooth="yes"/>
      <point x="133" y="645"/>
      <point x="138" y="640"/>
      <point x="138" y="595" type="curve" smooth="yes"/>
      <point x="138" y="85" type="line" smooth="yes"/>
      <point x="138" y="40"/>
      <point x="133" y="35"/>
      <point x="88" y="35" type="curve" smooth="yes"/>
      <point x="48" y="35" type="line"/>
      <point x="48" y="0" type="line"/>
      <point x="329" y="0" type="line" smooth="yes"/>
      <point x="491" y="0"/>
      <point x="595" y="65"/>
      <point x="595" y="190" type="curve" smooth="yes"/>
      <point x="595" y="276"/>
      <point x="535" y="343"/>
    </contour>
    <contour>
      <point x="309" y="384" type="curve" smooth="yes"/>
      <point x="233" y="384" type="line"/>
      <point x="233" y="604" type="line" smooth="yes"/>
      <point x="233" y="636"/>
      <point x="281" y="644"/>
      <point x="302" y="644" type="curve" smooth="yes"/>
      <point x="309" y="644" type="line" smooth="yes"/>
      <point x="389" y="644"/>
      <point x="445" y="609"/>
      <point x="445" y="514" type="curve" smooth="yes"/>
      <point x="445" y="419"/>
      <point x="389" y="384"/>
    </contour>
    <contour>
      <point x="307" y="36" type="line" smooth="yes"/>
      <point x="286" y="36"/>
      <point x="233" y="44"/>
      <point x="233" y="76" type="curve" smooth="yes"/>
      <point x="233" y="347" type="line"/>
      <point x="319" y="347" type="line" smooth="yes"/>
      <point x="419" y="347"/>
      <point x="485" y="300"/>
      <point x="485" y="190" type="curve" smooth="yes"/>
      <point x="485" y="80"/>
      <point x="419" y="36"/>
      <point x="319" y="36" type="curve" smooth="yes"/>
    </contour>
  </outline>
</glyph>
<glyph name="H" format="2">
  <advance width="732"/>
  <unicode hex="0048"/>
  <outline>
    <contour>
      <point x="600" y="595" type="line" smooth="yes"/>
      <point x="600" y="640"/>
      <point x="605" y="645"/>
      <point x="650" y="645" type="curve" smooth="yes"/>
      <point x="690" y="645" type="line"/>
      <point x="690" y="680" type="line"/>
      <point x="415" y="680" type="line"/>
      <point x="415" y="645" type="line"/>
      <point x="455" y="645" type="line" smooth="yes"/>
      <point x="500" y="645"/>
      <point x="505" y="640"/>
      <point x="505" y="595" type="curve" smooth="yes"/>
      <point x="505" y="361" type="line"/>
      <point x="227" y="361" type="line"/>
      <point x="227" y="595" type="line" smooth="yes"/>
      <point x="227" y="640"/>
      <point x="232" y="645"/>
      <point x="277" y="645" type="curve" smooth="yes"/>
      <point x="317" y="645" type="line"/>
      <point x="317" y="680" type="line"/>
      <point x="42" y="680" type="line"/>
      <point x="42" y="645" type="line"/>
      <point x="82" y="645" type="line" smooth="yes"/>
      <point x="127" y="645"/>
      <point x="132" y="640"/>
      <point x="132" y="595" type="curve" smooth="yes"/>
      <point x="132" y="85" type="line" smooth="yes"/>
      <point x="132" y="40"/>
      <point x="127" y="35"/>
      <point x="82" y="35" type="curve" smooth="yes"/>
      <point x="42" y="35" type="line"/>
      <point x="42" y="0" type="line"/>
      <point x="317" y="0" type="line"/>
      <point x="317" y="35" type="line"/>
      <point x="277" y="35" type="line" smooth="yes"/>
      <point x="232" y="35"/>
      <point x="227" y="40"/>
      <point x="227" y="85" type="curve" smooth="yes"/>
      <point x="227" y="325" type="line"/>
      <point x="505" y="325" type="line"/>
      <point x="505" y="85" type="line" smooth="yes"/>
      <point x="505" y="40"/>
      <point x="500" y="35"/>
      <point x="455" y="35" type="curve" smooth="yes"/>
      <point x="415" y="35" type="line"/>
      <point x="415" y="0" type="line"/>
      <point x="690" y="0" type="line"/>
      <point x="690" y="35" type="line"/>
      <point x="650" y="35" type="line" smooth="yes"/>
      <point x="605" y="35"/>
      <point x="600" y="40"/>
      <point x="600" y="85" type="curve" smooth="yes"/>
    </contour>
  </outline>
</glyph>
<glyph name="asciicircum" format="2">
  <advance width="307"/>
  <unicode hex="005E"/>
  <anchor x="154" y="530" name="_t.asciicircum_1"/>
  <outline>
    <contour>
      <point x="123" y="702" type="line"/>
      <point x="99" y="655"/>
      <point x="40" y="582"/>
      <point x="0" y="545" type="curve"/>
      <point x="8" y="523" type="line"/>
      <point x="43" y="544"/>
      <point x="107" y="589"/>
      <point x="154" y="628" type="curve"/>
      <point x="200" y="589"/>
      <point x="264" y="544"/>
      <point x="299" y="523" type="curve"/>
      <point x="307" y="545" type="line"/>
      <point x="267" y="582"/>
      <point x="208" y="655"/>
      <point x="184" y="702" type="curve"/>
    </contour>
  </outline>
</glyph>
<glyph name="s" format="2">
  <advance width="435"/>
  <unicode hex="0073"/>
  <outline>
    <contour>
      <point x="71" y="-12" type="line"/>
      <point x="81" y="5" type="line"/>
      <point x="93" y="28"/>
      <point x="106" y="29"/>
      <point x="126" y="17" type="curve" smooth="yes"/>
      <point x="158" y="-2"/>
      <point x="192" y="-12"/>
      <point x="230" y="-12" type="curve" smooth="yes"/>
      <point x="317" y="-12"/>
      <point x="404" y="44"/>
      <point x="404" y="139" type="curve" smooth="yes"/>
      <point x="404" y="214"/>
      <point x="339" y="255"/>
      <point x="263" y="281" type="curve" smooth="yes"/>
      <point x="199" y="303" type="line" smooth="yes"/>
      <point x="140" y="323"/>
      <point x="120" y="340"/>
      <point x="120" y="369" type="curve" smooth="yes"/>
      <point x="120" y="403"/>
      <point x="161" y="426"/>
      <point x="208" y="426" type="curve" smooth="yes"/>
      <point x="270" y="426"/>
      <point x="327" y="384"/>
      <point x="339" y="307" type="curve"/>
      <point x="373" y="307" type="line"/>
      <point x="373" y="462" type="line"/>
      <point x="343" y="462" type="line"/>
      <point x="333" y="448" type="line" smooth="yes"/>
      <point x="321" y="431"/>
      <point x="312" y="429"/>
      <point x="291" y="441" type="curve" smooth="yes"/>
      <point x="264" y="456"/>
      <point x="233" y="462"/>
      <point x="204" y="462" type="curve" smooth="yes"/>
      <point x="125" y="462"/>
      <point x="51" y="408"/>
      <point x="51" y="337" type="curve" smooth="yes"/>
      <point x="51" y="272"/>
      <point x="78" y="243"/>
      <point x="173" y="211" type="curve" smooth="yes"/>
      <point x="241" y="188" type="line" smooth="yes"/>
      <point x="317" y="162"/>
      <point x="342" y="140"/>
      <point x="342" y="100" type="curve" smooth="yes"/>
      <point x="342" y="63"/>
      <point x="298" y="27"/>
      <point x="233" y="27" type="curve" smooth="yes"/>
      <point x="158" y="27"/>
      <point x="89" y="76"/>
      <point x="75" y="180" type="curve"/>
      <point x="41" y="180" type="line"/>
      <point x="41" y="-12" type="line"/>
    </contour>
  </outline>
</glyph>
<glyph name="threesuperior" format="2">
  <advance width="402"/>
  <unicode hex="00B3"/>
  <outline>
    <contour>
      <point x="238" y="483" type="curve"/>
      <point x="238" y="489" type="line"/>
      <point x="292" y="497"/>
      <point x="334" y="537"/>
      <point x="334" y="588" type="curve" smooth="yes"/>
      <point x="334" y="651"/>
      <point x="274" y="693"/>
      <point x="200" y="693" type="curve" smooth="yes"/>
      <point x="134" y="693"/>
      <point x="74" y="643"/>
      <point x="74" y="586" type="curve" smooth="yes"/>
      <point x="74" y="555"/>
      <point x="95" y="536" name="hr01"/>
      <point x="121" y="536" type="curve" smooth="yes"/>
      <point x="147" y="536"/>
      <point x="166" y="555"/>
      <point x="166" y="581" type="curve" smooth="yes"/>
      <point x="166" y="603"/>
      <point x="151" y="621"/>
      <point x="130" y="626" type="curve" smooth="yes"/>
      <point x="120" y="628"/>
      <point x="113" y="636"/>
      <point x="126" y="648" type="curve" smooth="yes"/>
      <point x="144" y="663"/>
      <point x="169" y="672" name="hr02"/>
      <point x="192" y="672" type="curve" smooth="yes"/>
      <point x="253" y="672"/>
      <point x="268" y="633"/>
      <point x="268" y="583" type="curve" smooth="yes"/>
      <point x="268" y="536" name="hr03"/>
      <point x="248" y="495"/>
      <point x="155" y="495" type="curve"/>
      <point x="155" y="476" type="line"/>
      <point x="253" y="476"/>
      <point x="278" y="428"/>
      <point x="278" y="373" type="curve" smooth="yes"/>
      <point x="278" y="309"/>
      <point x="248" y="266"/>
      <point x="185" y="266" type="curve" smooth="yes"/>
      <point x="151" y="266"/>
      <point x="125" y="279"/>
      <point x="107" y="294" type="curve" smooth="yes"/>
      <point x="97" y="302"/>
      <point x="98" y="315"/>
      <point x="117" y="319" type="curve" smooth="yes"/>
      <point x="139" y="324"/>
      <point x="155" y="342"/>
      <point x="155" y="367" type="curve" smooth="yes"/>
      <point x="155" y="394"/>
      <point x="134" y="417" name="hr05"/>
      <point x="106" y="417" type="curve" smooth="yes"/>
      <point x="79" y="417"/>
      <point x="50" y="397"/>
      <point x="50" y="352" type="curve" smooth="yes"/>
      <point x="50" y="296"/>
      <point x="115" y="243"/>
      <point x="194" y="243" type="curve" smooth="yes"/>
      <point x="305" y="243"/>
      <point x="352" y="306"/>
      <point x="352" y="368" type="curve" smooth="yes"/>
      <point x="352" y="424"/>
      <point x="304" y="472"/>
    </contour>
  </outline>
</glyph>
<glyph name="eng" format="2">
  <advance width="555"/>
  <unicode hex="014B"/>
  <anchor x="268" y="520" name="t.asciicircum_1"/>
  <outline>
    <contour>
      <point x="192" y="358" type="curve"/>
      <point x="192" y="358"/>
      <point x="191" y="355"/>
      <point x="187" y="355" type="curve" smooth="yes"/>
      <point x="182" y="355" name="hr01"/>
      <point x="182" y="358"/>
      <point x="182" y="358" type="curve"/>
      <point x="182" y="450" type="line"/>
      <point x="22" y="450" type="line"/>
      <point x="22" y="415" type="line"/>
      <point x="52" y="415" type="line" smooth="yes"/>
      <point x="97" y="415"/>
      <point x="102" y="410"/>
      <point x="102" y="365" type="curve" smooth="yes"/>
      <point x="102" y="85" type="line" smooth="yes"/>
      <point x="102" y="45"/>
      <point x="92" y="35"/>
      <point x="52" y="35" type="curve" smooth="yes"/>
      <point x="32" y="35" type="line"/>
      <point x="32" y="0" type="line"/>
      <point x="247" y="0" type="line"/>
      <point x="247" y="35" type="line"/>
      <point x="237" y="35" type="line" smooth="yes"/>
      <point x="192" y="35"/>
      <point x="187" y="40" name="hr02"/>
      <point x="187" y="85" type="curve" smooth="yes"/>
      <point x="187" y="236" type="line" smooth="yes"/>
      <point x="187" y="296"/>
      <point x="227" y="418"/>
      <point x="305" y="418" type="curve" smooth="yes"/>
      <point x="353" y="418"/>
      <point x="383" y="382"/>
      <point x="383" y="275" type="curve" smooth="yes"/>
      <point x="383" y="-117" type="line" smooth="yes"/>
      <point x="383" y="-170"/>
      <point x="360" y="-199"/>
      <point x="323" y="-199" type="curve" smooth="yes"/>
      <point x="291" y="-199"/>
      <point x="268" y="-185"/>
      <point x="268" y="-168" type="curve" smooth="yes"/>
      <point x="268" y="-145"/>
      <point x="311" y="-147" name="hr03"/>
      <point x="311" y="-102" type="curve" smooth="yes"/>
      <point x="311" y="-68"/>
      <point x="287" y="-46"/>
      <point x="259" y="-46" type="curve" smooth="yes"/>
      <point x="221" y="-46"/>
      <point x="200" y="-80"/>
      <point x="200" y="-118" type="curve" smooth="yes"/>
      <point x="200" y="-185"/>
      <point x="263" y="-228"/>
      <point x="326" y="-228" type="curve" smooth="yes"/>
      <point x="405" y="-228"/>
      <point x="472" y="-161"/>
      <point x="472" y="-63" type="curve"/>
      <point x="472" y="51"/>
      <point x="473" y="172"/>
      <point x="473" y="286" type="curve"/>
      <point x="473" y="298" type="line"/>
      <point x="469" y="393"/>
      <point x="423" y="462"/>
      <point x="334" y="462" type="curve" smooth="yes"/>
      <point x="264" y="462"/>
      <point x="218" y="416"/>
    </contour>
  </outline>
</glyph>
<glyph name="clickdental" format="2">
  <advance width="363"/>
  <unicode hex="01C0"/>
  <outline>
    <contour>
      <point x="160" y="680" type="line"/>
      <point x="160" y="0" type="line"/>
      <point x="203" y="0" type="line"/>
      <point x="203" y="680" type="line"/>
    </contour>
  </outline>
</glyph>
<glyph name="clicklateral" format="2">
  <advance width="363"/>
  <unicode hex="01C1"/>
  <outline>
    <contour>
      <point x="80" y="680" type="line"/>
      <point x="80" y="0" type="line"/>
      <point x="123" y="0" type="line"/>
      <point x="123" y="680" type="line"/>
    </contour>
    <contour>
      <point x="230" y="680" type="line"/>
      <point x="230" y="0" type="line"/>
      <point x="273" y="0" type="line"/>
      <point x="273" y="680" type="line"/>
    </contour>
  </outline>
</glyph>
<glyph name="alpha-ipa" format="2">
  <advance width="526"/>
  <unicode hex="0251"/>
  <outline>
    <contour>
      <point x="414" y="88" type="line" smooth="yes"/>
      <point x="414" y="57"/>
      <point x="442" y="34"/>
      <point x="460" y="34" type="qcurve" smooth="yes"/>
      <point x="478" y="34" type="line"/>
      <point x="478" y="-1" type="line"/>
      <point x="338" y="-8" type="line"/>
      <point x="338" y="74" type="line"/>
      <point x="334" y="74" type="line"/>
      <point x="317" y="31"/>
      <point x="266" y="-16"/>
      <point x="215" y="-16" type="qcurve" smooth="yes"/>
      <point x="168" y="-16"/>
      <point x="94" y="26"/>
      <point x="44" y="96"/>
      <point x="19" y="185"/>
      <point x="19" y="232" type="qcurve" smooth="yes"/>
      <point x="19" y="275"/>
      <point x="46" y="358"/>
      <point x="94" y="426"/>
      <point x="160" y="466"/>
      <point x="199" y="466" type="qcurve" smooth="yes"/>
      <point x="247" y="466"/>
      <point x="315" y="419"/>
      <point x="331" y="383" type="qcurve"/>
      <point x="334" y="383" type="line"/>
      <point x="334" y="474" type="line"/>
      <point x="475" y="459" type="line"/>
      <point x="475" y="423" type="line"/>
      <point x="446" y="421" type="line" smooth="yes"/>
      <point x="435" y="420"/>
      <point x="421" y="411"/>
      <point x="415" y="398"/>
      <point x="414" y="376"/>
      <point x="414" y="362" type="qcurve" smooth="yes"/>
    </contour>
    <contour>
      <point x="227" y="417" type="qcurve" smooth="yes"/>
      <point x="168" y="417"/>
      <point x="111" y="313"/>
      <point x="111" y="213" type="qcurve" smooth="yes"/>
      <point x="111" y="126"/>
      <point x="168" y="29"/>
      <point x="215" y="29" type="qcurve" smooth="yes"/>
      <point x="244" y="29"/>
      <point x="291" y="58"/>
      <point x="322" y="109"/>
      <point x="338" y="176"/>
      <point x="338" y="213" type="qcurve" smooth="yes"/>
      <point x="338" y="254"/>
      <point x="321" y="328"/>
      <point x="291" y="384"/>
      <point x="250" y="417"/>
    </contour>
  </outline>
</glyph>
<glyph name="oopen" format="2">
  <advance width="431"/>
  <unicode hex="0254"/>
  <outline>
    <contour>
      <point x="35" y="129" type="curve" smooth="yes"/>
      <point x="35" y="69"/>
      <point x="93" y="0"/>
      <point x="191" y="0" type="curve" smooth="yes"/>
      <point x="317" y="0"/>
      <point x="399" y="107"/>
      <point x="399" y="237" type="curve" smooth="yes"/>
      <point x="399" y="367"/>
      <point x="317" y="474"/>
      <point x="193" y="474" type="curve" smooth="yes"/>
      <point x="111" y="474"/>
      <point x="60" y="417"/>
      <point x="31" y="348" type="curve"/>
      <point x="61" y="340" type="line"/>
      <point x="92" y="403"/>
      <point x="130" y="438"/>
      <point x="177" y="438" type="curve" smooth="yes"/>
      <point x="234" y="438"/>
      <point x="291" y="387"/>
      <point x="291" y="237" type="curve" smooth="yes"/>
      <point x="291" y="87"/>
      <point x="250" y="29"/>
      <point x="187" y="29" type="curve" smooth="yes"/>
      <point x="140" y="29"/>
      <point x="117" y="50"/>
      <point x="117" y="68" type="curve" smooth="yes"/>
      <point x="117" y="86"/>
      <point x="153" y="96" name="hr01"/>
      <point x="153" y="136" type="curve" smooth="yes"/>
      <point x="153" y="169"/>
      <point x="126" y="196"/>
      <point x="93" y="196" type="curve" smooth="yes"/>
      <point x="58" y="196"/>
      <point x="35" y="164"/>
    </contour>
  </outline>
</glyph>
<glyph name="dtail" format="2">
  <advance width="531"/>
  <unicode hex="0256"/>
  <outline>
    <contour>
      <point x="533" y="-208" type="qcurve" smooth="yes"/>
      <point x="489" y="-208"/>
      <point x="427" y="-175"/>
      <point x="387" y="-116"/>
      <point x="368" y="-33"/>
      <point x="368" y="17" type="qcurve" smooth="yes"/>
      <point x="368" y="79" type="line"/>
      <point x="364" y="79" type="line"/>
      <point x="346" y="34"/>
      <point x="293" y="-16"/>
      <point x="239" y="-16" type="qcurve" smooth="yes"/>
      <point x="189" y="-16"/>
      <point x="112" y="28"/>
      <point x="59" y="102"/>
      <point x="32" y="196"/>
      <point x="32" y="246" type="qcurve" smooth="yes"/>
      <point x="32" y="291"/>
      <point x="61" y="379"/>
      <point x="112" y="450"/>
      <point x="181" y="493"/>
      <point x="222" y="493" type="qcurve" smooth="yes"/>
      <point x="273" y="493"/>
      <point x="344" y="444"/>
      <point x="361" y="406" type="qcurve"/>
      <point x="364" y="406" type="line"/>
      <point x="364" y="641" type="line" smooth="yes"/>
      <point x="364" y="670"/>
      <point x="355" y="700"/>
      <point x="330" y="702" type="qcurve" smooth="yes"/>
      <point x="283" y="706" type="line"/>
      <point x="283" y="744" type="line"/>
      <point x="449" y="760" type="line"/>
      <point x="449" y="67" type="line" smooth="yes"/>
      <point x="449" y="-47"/>
      <point x="479" y="-164"/>
      <point x="521" y="-164" type="qcurve" smooth="yes"/>
      <point x="535" y="-164"/>
      <point x="550" y="-154"/>
      <point x="550" y="-148" type="qcurve" smooth="yes"/>
      <point x="550" y="-143"/>
      <point x="538" y="-114"/>
      <point x="538" y="-103" type="qcurve" smooth="yes"/>
      <point x="538" y="-86"/>
      <point x="573" y="-67"/>
      <point x="590" y="-67" type="qcurve" smooth="yes"/>
      <point x="612" y="-67"/>
      <point x="642" y="-99"/>
      <point x="642" y="-127" type="qcurve" smooth="yes"/>
      <point x="642" y="-165"/>
      <point x="582" y="-208"/>
    </contour>
    <contour>
      <point x="251" y="441" type="qcurve" smooth="yes"/>
      <point x="189" y="441"/>
      <point x="129" y="331"/>
      <point x="129" y="226" type="qcurve" smooth="yes"/>
      <point x="129" y="134"/>
      <point x="189" y="32"/>
      <point x="239" y="32" type="qcurve" smooth="yes"/>
      <point x="270" y="32"/>
      <point x="319" y="63"/>
      <point x="351" y="116"/>
      <point x="368" y="187"/>
      <point x="368" y="226" type="qcurve" smooth="yes"/>
      <point x="368" y="269"/>
      <point x="350" y="347"/>
      <point x="319" y="406"/>
      <point x="276" y="441"/>
    </contour>
  </outline>
</glyph>
<glyph name="ereversed-ipa" format="2">
  <advance width="467"/>
  <unicode hex="0258"/>
  <anchor x="223" y="527" name="t.asciicircum_1"/>
  <anchor x="223" y="519" name="t.dieresis"/>
  <outline>
    <contour>
      <point x="327" y="237" type="line"/>
      <point x="327" y="224" type="line" smooth="yes"/>
      <point x="327" y="75"/>
      <point x="274" y="25"/>
      <point x="211" y="25" type="curve" smooth="yes"/>
      <point x="161" y="25"/>
      <point x="97" y="64"/>
      <point x="71" y="144" type="curve"/>
      <point x="39" y="133" type="line"/>
      <point x="68" y="44"/>
      <point x="147" y="-12"/>
      <point x="223" y="-12" type="curve" smooth="yes"/>
      <point x="354" y="-12"/>
      <point x="435" y="95"/>
      <point x="435" y="225" type="curve" smooth="yes"/>
      <point x="435" y="355"/>
      <point x="353" y="462"/>
      <point x="223" y="462" type="curve" smooth="yes"/>
      <point x="93" y="462"/>
      <point x="35" y="351"/>
      <point x="35" y="251" type="curve" smooth="yes"/>
      <point x="35" y="237" type="line"/>
    </contour>
    <contour>
      <point x="139" y="312" type="curve" smooth="yes"/>
      <point x="139" y="380"/>
      <point x="172" y="436"/>
      <point x="223" y="436" type="curve" smooth="yes"/>
      <point x="280" y="436"/>
      <point x="319" y="386"/>
      <point x="327" y="267" type="curve"/>
      <point x="187" y="267" type="line" smooth="yes"/>
      <point x="154" y="267"/>
      <point x="139" y="275"/>
    </contour>
  </outline>
</glyph>
<glyph name="schwa" format="2">
  <advance width="467"/>
  <unicode hex="0259"/>
  <anchor x="223" y="-65" name="t.asciicircum_1"/>
  <anchor x="223" y="-57" name="t.dieresis"/>
  <outline>
    <contour>
      <point x="327" y="225" type="line"/>
      <point x="35" y="225" type="line"/>
      <point x="35" y="211" type="line" smooth="yes"/>
      <point x="35" y="111"/>
      <point x="93" y="0"/>
      <point x="223" y="0" type="curve" smooth="yes"/>
      <point x="353" y="0"/>
      <point x="435" y="107"/>
      <point x="435" y="237" type="curve" smooth="yes"/>
      <point x="435" y="367"/>
      <point x="354" y="474"/>
      <point x="223" y="474" type="curve" smooth="yes"/>
      <point x="147" y="474"/>
      <point x="68" y="418"/>
      <point x="39" y="329" type="curve"/>
      <point x="71" y="318" type="line"/>
      <point x="97" y="398"/>
      <point x="161" y="437"/>
      <point x="211" y="437" type="curve" smooth="yes"/>
      <point x="274" y="437"/>
      <point x="327" y="387"/>
      <point x="327" y="238" type="curve" smooth="yes"/>
    </contour>
    <contour>
      <point x="139" y="150" type="curve" smooth="yes"/>
      <point x="139" y="187"/>
      <point x="154" y="195"/>
      <point x="187" y="195" type="curve" smooth="yes"/>
      <point x="327" y="195" type="line"/>
      <point x="319" y="76"/>
      <point x="280" y="26"/>
      <point x="223" y="26" type="curve" smooth="yes"/>
      <point x="172" y="26"/>
      <point x="139" y="82"/>
    </contour>
  </outline>
</glyph>
<glyph name="dotlessjstroke" format="2">
  <advance width="380"/>
  <unicode hex="025F"/>
  <outline>
    <contour>
      <point x="101" y="-181" type="qcurve" smooth="yes"/>
      <point x="142" y="-181"/>
      <point x="173" y="-70"/>
      <point x="173" y="36" type="qcurve" smooth="yes"/>
      <point x="173" y="59" type="line"/>
      <point x="70" y="59" type="line"/>
      <point x="70" y="119" type="line"/>
      <point x="175" y="119" type="line"/>
      <point x="175" y="391" type="line" smooth="yes"/>
      <point x="175" y="424"/>
      <point x="145" y="448"/>
      <point x="126" y="448" type="qcurve" smooth="yes"/>
      <point x="106" y="448" type="line"/>
      <point x="106" y="485" type="line"/>
      <point x="328" y="485" type="line"/>
      <point x="328" y="447" type="line"/>
      <point x="308" y="447" type="line" smooth="yes"/>
      <point x="290" y="447"/>
      <point x="260" y="424"/>
      <point x="260" y="391" type="qcurve" smooth="yes"/>
      <point x="260" y="119" type="line"/>
      <point x="345" y="119" type="line"/>
      <point x="345" y="59" type="line"/>
      <point x="258" y="59" type="line"/>
      <point x="258" y="0" type="line" smooth="yes"/>
      <point x="258" y="-50"/>
      <point x="238" y="-133"/>
      <point x="197" y="-192"/>
      <point x="133" y="-225"/>
      <point x="89" y="-225" type="qcurve" smooth="yes"/>
      <point x="40" y="-225"/>
      <point x="-20" y="-182"/>
      <point x="-20" y="-144" type="qcurve" smooth="yes"/>
      <point x="-20" y="-116"/>
      <point x="10" y="-84"/>
      <point x="32" y="-84" type="qcurve" smooth="yes"/>
      <point x="49" y="-84"/>
      <point x="84" y="-103"/>
      <point x="84" y="-120" type="qcurve" smooth="yes"/>
      <point x="84" y="-131"/>
      <point x="72" y="-160"/>
      <point x="72" y="-165" type="qcurve" smooth="yes"/>
      <point x="72" y="-171"/>
      <point x="87" y="-181"/>
    </contour>
  </outline>
</glyph>
<glyph name="ramshorn" format="2">
  <advance width="569"/>
  <unicode hex="0264"/>
  <outline>
    <contour>
      <point x="208" y="92" type="curve" smooth="yes"/>
      <point x="208" y="134"/>
      <point x="241" y="174"/>
      <point x="269" y="203" type="curve"/>
      <point x="312" y="161"/>
      <point x="343" y="116"/>
      <point x="343" y="84" type="curve" smooth="yes"/>
      <point x="343" y="48"/>
      <point x="319" y="27"/>
      <point x="278" y="27" type="curve" smooth="yes"/>
      <point x="237" y="27"/>
      <point x="208" y="51"/>
    </contour>
    <contour>
      <point x="19" y="492" type="line"/>
      <point x="19" y="473" type="line"/>
      <point x="45" y="469"/>
      <point x="66" y="462"/>
      <point x="84" y="437" type="curve" smooth="yes"/>
      <point x="245" y="231" type="line"/>
      <point x="204" y="191"/>
      <point x="171" y="145"/>
      <point x="171" y="93" type="curve" smooth="yes"/>
      <point x="171" y="29"/>
      <point x="219" y="-10"/>
      <point x="286" y="-10" type="curve" smooth="yes"/>
      <point x="372" y="-10"/>
      <point x="421" y="35" name="hr01"/>
      <point x="421" y="101" type="curve" smooth="yes" name="hr02"/>
      <point x="421" y="159"/>
      <point x="369" y="227"/>
      <point x="331" y="266" type="curve"/>
      <point x="449" y="402" type="line" smooth="yes"/>
      <point x="487" y="447"/>
      <point x="517" y="467"/>
      <point x="550" y="473" type="curve"/>
      <point x="550" y="492" type="line" name="hr03"/>
      <point x="372" y="492" type="line"/>
      <point x="372" y="473" type="line"/>
      <point x="407" y="472"/>
      <point x="424" y="464"/>
      <point x="424" y="446" type="curve" smooth="yes"/>
      <point x="424" y="436"/>
      <point x="417" y="425"/>
      <point x="404" y="410" type="curve"/>
      <point x="304" y="297" type="line"/>
      <point x="214" y="416" type="line" smooth="yes"/>
      <point x="207" y="425"/>
      <point x="202" y="434"/>
      <point x="202" y="445" type="curve" smooth="yes"/>
      <point x="202" y="463"/>
      <point x="214" y="471"/>
      <point x="259" y="473" type="curve"/>
      <point x="259" y="492" type="line"/>
    </contour>
  </outline>
</glyph>
<glyph name="hturned" format="2">
  <advance width="540"/>
  <unicode hex="0265"/>
  <outline>
    <contour>
      <point x="356" y="100" type="curve"/>
      <point x="356" y="100"/>
      <point x="357" y="103"/>
      <point x="361" y="103" type="curve" smooth="yes"/>
      <point x="366" y="103"/>
      <point x="366" y="98"/>
      <point x="366" y="98" type="curve"/>
      <point x="366" y="72" type="line" smooth="yes"/>
      <point x="366" y="-18"/>
      <point x="358" y="-218"/>
      <point x="358" y="-218" type="curve"/>
      <point x="528" y="-218" type="line"/>
      <point x="528" y="-183" type="line"/>
      <point x="498" y="-183" type="line" smooth="yes"/>
      <point x="453" y="-183"/>
      <point x="448" y="-178"/>
      <point x="448" y="-133" type="curve" smooth="yes"/>
      <point x="448" y="377" type="line" smooth="yes"/>
      <point x="448" y="422"/>
      <point x="453" y="427"/>
      <point x="498" y="427" type="curve" smooth="yes"/>
      <point x="518" y="427" type="line"/>
      <point x="518" y="462" type="line"/>
      <point x="302" y="462" type="line"/>
      <point x="302" y="427" type="line"/>
      <point x="312" y="427" type="line" smooth="yes"/>
      <point x="357" y="427"/>
      <point x="362" y="422" name="hr01"/>
      <point x="362" y="377" type="curve" smooth="yes"/>
      <point x="362" y="226" type="line" smooth="yes"/>
      <point x="362" y="166"/>
      <point x="322" y="44"/>
      <point x="244" y="44" type="curve" smooth="yes"/>
      <point x="196" y="44"/>
      <point x="166" y="80"/>
      <point x="166" y="187" type="curve" smooth="yes"/>
      <point x="166" y="377" type="line" smooth="yes"/>
      <point x="166" y="422"/>
      <point x="171" y="427"/>
      <point x="216" y="427" type="curve" smooth="yes"/>
      <point x="226" y="427" type="line"/>
      <point x="226" y="462" type="line"/>
      <point x="16" y="462" type="line"/>
      <point x="16" y="427" type="line"/>
      <point x="26" y="427" type="line" smooth="yes"/>
      <point x="71" y="427"/>
      <point x="76" y="422"/>
      <point x="76" y="377" type="curve" smooth="yes"/>
      <point x="76" y="183" type="line" smooth="yes"/>
      <point x="76" y="79"/>
      <point x="121" y="0"/>
      <point x="216" y="0" type="curve" smooth="yes"/>
      <point x="284" y="0"/>
      <point x="330" y="45"/>
    </contour>
  </outline>
</glyph>
<glyph name="Ismall" format="2">
  <advance width="298"/>
  <unicode hex="026A"/>
  <anchor x="150" y="479" name="t.asciicircum_1"/>
  <anchor x="150" y="492" name="t.dieresis"/>
  <outline>
    <contour>
      <point x="190" y="387" type="line" smooth="yes"/>
      <point x="190" y="417"/>
      <point x="194" y="419"/>
      <point x="226" y="419" type="curve" smooth="yes"/>
      <point x="255" y="419" type="line"/>
      <point x="255" y="442" type="line"/>
      <point x="43" y="442" type="line"/>
      <point x="43" y="419" type="line"/>
      <point x="73" y="419" type="line" smooth="yes"/>
      <point x="105" y="419"/>
      <point x="110" y="417"/>
      <point x="110" y="387" type="curve" smooth="yes"/>
      <point x="110" y="55" type="line" smooth="yes"/>
      <point x="110" y="26"/>
      <point x="105" y="23"/>
      <point x="73" y="23" type="curve" smooth="yes"/>
      <point x="43" y="23" type="line"/>
      <point x="43" y="0" type="line"/>
      <point x="255" y="0" type="line"/>
      <point x="255" y="23" type="line"/>
      <point x="226" y="23" type="line" smooth="yes"/>
      <point x="194" y="23"/>
      <point x="190" y="32"/>
      <point x="190" y="55" type="curve" smooth="yes"/>
    </contour>
  </outline>
</glyph>
<glyph name="lmiddletilde" format="2">
  <advance width="315"/>
  <unicode hex="026B"/>
  <outline>
    <contour>
      <point x="36" y="744" type="line"/>
      <point x="202" y="760" type="line"/>
      <point x="202" y="423" type="line"/>
      <point x="221" y="414"/>
      <point x="231" y="414" type="qcurve" smooth="yes"/>
      <point x="264" y="414"/>
      <point x="283" y="458" type="qcurve"/>
      <point x="312" y="458" type="line"/>
      <point x="309" y="438"/>
      <point x="291" y="403"/>
      <point x="264" y="376"/>
      <point x="230" y="361"/>
      <point x="211" y="361" type="qcurve" smooth="yes"/>
      <point x="202" y="361" type="line"/>
      <point x="202" y="94" type="line" smooth="yes"/>
      <point x="202" y="60"/>
      <point x="232" y="37"/>
      <point x="251" y="37" type="qcurve" smooth="yes"/>
      <point x="269" y="37" type="line"/>
      <point x="269" y="0" type="line"/>
      <point x="50" y="0" type="line"/>
      <point x="50" y="38" type="line"/>
      <point x="69" y="38" type="line" smooth="yes"/>
      <point x="87" y="38"/>
      <point x="117" y="61"/>
      <point x="117" y="94" type="qcurve" smooth="yes"/>
      <point x="117" y="397" type="line"/>
      <point x="91" y="410"/>
      <point x="83" y="410" type="qcurve" smooth="yes"/>
      <point x="49" y="410"/>
      <point x="31" y="365" type="qcurve"/>
      <point x="2" y="365" type="line"/>
      <point x="8" y="405"/>
      <point x="64" y="462"/>
      <point x="103" y="462" type="qcurve" smooth="yes"/>
      <point x="107" y="462"/>
      <point x="117" y="460" type="qcurve"/>
      <point x="117" y="641" type="line" smooth="yes"/>
      <point x="117" y="670"/>
      <point x="108" y="700"/>
      <point x="83" y="702" type="qcurve" smooth="yes"/>
      <point x="36" y="706" type="line"/>
    </contour>
  </outline>
</glyph>
<glyph name="nhookleft" format="2">
  <advance width="620"/>
  <unicode hex="0272"/>
  <outline>
    <contour>
      <point x="221" y="398" type="line"/>
      <point x="224" y="398" type="line"/>
      <point x="243" y="441"/>
      <point x="330" y="493"/>
      <point x="378" y="493" type="qcurve" smooth="yes"/>
      <point x="445" y="493"/>
      <point x="528" y="401"/>
      <point x="528" y="299" type="qcurve" smooth="yes"/>
      <point x="528" y="94" type="line" smooth="yes"/>
      <point x="528" y="61"/>
      <point x="558" y="37"/>
      <point x="577" y="37" type="qcurve" smooth="yes"/>
      <point x="589" y="37" type="line"/>
      <point x="589" y="0" type="line"/>
      <point x="376" y="0" type="line"/>
      <point x="376" y="38" type="line"/>
      <point x="395" y="38" type="line" smooth="yes"/>
      <point x="412" y="38"/>
      <point x="443" y="59"/>
      <point x="443" y="91" type="qcurve" smooth="yes"/>
      <point x="443" y="300" type="line" smooth="yes"/>
      <point x="443" y="370"/>
      <point x="390" y="429"/>
      <point x="354" y="429" type="qcurve" smooth="yes"/>
      <point x="327" y="429"/>
      <point x="278" y="399"/>
      <point x="242" y="349"/>
      <point x="221" y="283"/>
      <point x="221" y="248" type="qcurve" smooth="yes"/>
      <point x="221" y="15" type="line" smooth="yes"/>
      <point x="221" y="-35"/>
      <point x="201" y="-118"/>
      <point x="160" y="-177"/>
      <point x="96" y="-210"/>
      <point x="52" y="-210" type="qcurve" smooth="yes"/>
      <point x="3" y="-210"/>
      <point x="-57" y="-167"/>
      <point x="-57" y="-129" type="qcurve" smooth="yes"/>
      <point x="-57" y="-101"/>
      <point x="-27" y="-69"/>
      <point x="-5" y="-69" type="qcurve" smooth="yes"/>
      <point x="12" y="-69"/>
      <point x="47" y="-88"/>
      <point x="47" y="-105" type="qcurve" smooth="yes"/>
      <point x="47" y="-116"/>
      <point x="35" y="-145"/>
      <point x="35" y="-150" type="qcurve" smooth="yes"/>
      <point x="35" y="-156"/>
      <point x="50" y="-166"/>
      <point x="64" y="-166" type="qcurve" smooth="yes"/>
      <point x="106" y="-166"/>
      <point x="136" y="-49"/>
      <point x="136" y="65" type="qcurve" smooth="yes"/>
      <point x="136" y="383" type="line" smooth="yes"/>
      <point x="136" y="412"/>
      <point x="127" y="442"/>
      <point x="102" y="444" type="qcurve" smooth="yes"/>
      <point x="67" y="447" type="line"/>
      <point x="67" y="485" type="line"/>
      <point x="221" y="502" type="line"/>
    </contour>
  </outline>
</glyph>
<glyph name="nhookretroflex" format="2">
  <advance width="566"/>
  <unicode hex="0273"/>
  <outline>
    <contour>
      <point x="170" y="398" type="line"/>
      <point x="173" y="398" type="line"/>
      <point x="192" y="441"/>
      <point x="279" y="493"/>
      <point x="327" y="493" type="qcurve" smooth="yes"/>
      <point x="394" y="493"/>
      <point x="477" y="401"/>
      <point x="477" y="299" type="qcurve" smooth="yes"/>
      <point x="477" y="65" type="line" smooth="yes"/>
      <point x="477" y="-49"/>
      <point x="507" y="-166"/>
      <point x="549" y="-166" type="qcurve" smooth="yes"/>
      <point x="563" y="-166"/>
      <point x="578" y="-156"/>
      <point x="578" y="-150" type="qcurve" smooth="yes"/>
      <point x="578" y="-145"/>
      <point x="566" y="-116"/>
      <point x="566" y="-105" type="qcurve" smooth="yes"/>
      <point x="566" y="-88"/>
      <point x="601" y="-69"/>
      <point x="618" y="-69" type="qcurve" smooth="yes"/>
      <point x="640" y="-69"/>
      <point x="670" y="-101"/>
      <point x="670" y="-129" type="qcurve" smooth="yes"/>
      <point x="670" y="-167"/>
      <point x="610" y="-210"/>
      <point x="561" y="-210" type="qcurve" smooth="yes"/>
      <point x="517" y="-210"/>
      <point x="453" y="-177"/>
      <point x="412" y="-118"/>
      <point x="392" y="-35"/>
      <point x="392" y="15" type="qcurve" smooth="yes"/>
      <point x="392" y="300" type="line" smooth="yes"/>
      <point x="392" y="370"/>
      <point x="339" y="429"/>
      <point x="303" y="429" type="qcurve" smooth="yes"/>
      <point x="276" y="429"/>
      <point x="227" y="399"/>
      <point x="191" y="349"/>
      <point x="170" y="283"/>
      <point x="170" y="248" type="qcurve" smooth="yes"/>
      <point x="170" y="94" type="line" smooth="yes"/>
      <point x="170" y="61"/>
      <point x="200" y="37"/>
      <point x="218" y="37" type="qcurve" smooth="yes"/>
      <point x="237" y="37" type="line"/>
      <point x="237" y="0" type="line"/>
      <point x="18" y="0" type="line"/>
      <point x="18" y="38" type="line"/>
      <point x="36" y="38" type="line" smooth="yes"/>
      <point x="55" y="38"/>
      <point x="85" y="61"/>
      <point x="85" y="94" type="qcurve" smooth="yes"/>
      <point x="85" y="383" type="line" smooth="yes"/>
      <point x="85" y="412"/>
      <point x="76" y="442"/>
      <point x="51" y="444" type="qcurve" smooth="yes"/>
      <point x="16" y="447" type="line"/>
      <point x="16" y="485" type="line"/>
      <point x="170" y="485" type="line"/>
    </contour>
  </outline>
</glyph>
<glyph name="obarred" format="2">
  <advance width="504"/>
  <unicode hex="0275"/>
  <outline>
    <component base="o" xOffset="6"/>
    <contour>
      <point x="46" y="257" type="line"/>
      <point x="448" y="257" type="line"/>
      <point x="448" y="209" type="line"/>
      <point x="46" y="209" type="line"/>
    </contour>
  </outline>
</glyph>
<glyph name="rturned" format="2">
  <advance width="420"/>
  <unicode hex="0279"/>
  <outline>
    <contour>
      <point x="238" y="112" type="curve"/>
      <point x="238" y="12" type="line"/>
      <point x="398" y="12" type="line"/>
      <point x="398" y="47" type="line"/>
      <point x="368" y="47" type="line" smooth="yes"/>
      <point x="323" y="47"/>
      <point x="318" y="52" name="hr01"/>
      <point x="318" y="97" type="curve" smooth="yes"/>
      <point x="318" y="377" type="line" smooth="yes"/>
      <point x="318" y="422"/>
      <point x="323" y="427"/>
      <point x="368" y="427" type="curve" smooth="yes"/>
      <point x="398" y="427" type="line"/>
      <point x="398" y="462" type="line"/>
      <point x="133" y="462" type="line"/>
      <point x="133" y="427" type="line"/>
      <point x="183" y="427" type="line" smooth="yes"/>
      <point x="228" y="427"/>
      <point x="233" y="422" name="hr03"/>
      <point x="233" y="377" type="curve" smooth="yes"/>
      <point x="233" y="203" type="line" smooth="yes"/>
      <point x="233" y="164"/>
      <point x="214" y="120"/>
      <point x="196" y="96" type="curve" smooth="yes"/>
      <point x="180" y="75"/>
      <point x="167" y="73"/>
      <point x="153" y="96" type="curve" smooth="yes"/>
      <point x="140" y="117"/>
      <point x="120" y="130"/>
      <point x="94" y="130" type="curve" smooth="yes"/>
      <point x="60" y="130"/>
      <point x="38" y="101"/>
      <point x="38" y="68" type="curve" smooth="yes"/>
      <point x="38" y="29"/>
      <point x="73" y="0"/>
      <point x="111" y="0" type="curve" smooth="yes"/>
      <point x="158" y="0"/>
      <point x="211" y="55"/>
    </contour>
  </outline>
</glyph>
<glyph name="rlonglegturned" format="2">
  <advance width="409"/>
  <unicode hex="027A"/>
  <outline>
    <contour>
      <point x="226" y="112" type="curve"/>
      <point x="226" y="12" type="line"/>
      <point x="386" y="12" type="line"/>
      <point x="386" y="47" type="line"/>
      <point x="356" y="47" type="line" smooth="yes"/>
      <point x="311" y="47"/>
      <point x="306" y="52" name="hr01"/>
      <point x="306" y="97" type="curve"/>
      <point x="306" y="680" type="line"/>
      <point x="221" y="680" type="line"/>
      <point x="221" y="203" type="line"/>
      <point x="221" y="164"/>
      <point x="202" y="120"/>
      <point x="184" y="96" type="curve" smooth="yes"/>
      <point x="168" y="75"/>
      <point x="155" y="73"/>
      <point x="141" y="96" type="curve" smooth="yes"/>
      <point x="128" y="117"/>
      <point x="108" y="130"/>
      <point x="82" y="130" type="curve" smooth="yes"/>
      <point x="48" y="130"/>
      <point x="26" y="101"/>
      <point x="26" y="68" type="curve" smooth="yes"/>
      <point x="26" y="29"/>
      <point x="61" y="0"/>
      <point x="99" y="0" type="curve" smooth="yes"/>
      <point x="146" y="0"/>
      <point x="199" y="55"/>
    </contour>
  </outline>
</glyph>
<glyph name="Rsmall" format="2">
  <advance width="496"/>
  <unicode hex="0280"/>
  <anchor x="230" y="475" name="t.asciicircum_1"/>
  <anchor x="230" y="488" name="t.dieresis"/>
  <outline>
    <contour>
      <point x="164" y="55" type="curve" smooth="yes"/>
      <point x="164" y="226" type="line"/>
      <point x="222" y="226" type="line" smooth="yes"/>
      <point x="275" y="226"/>
      <point x="303" y="172"/>
      <point x="307" y="115" type="curve" smooth="yes"/>
      <point x="311" y="35"/>
      <point x="341" y="-8"/>
      <point x="405" y="-8" type="curve" smooth="yes"/>
      <point x="460" y="-8"/>
      <point x="489" y="30"/>
      <point x="489" y="86" type="curve" smooth="yes"/>
      <point x="489" y="94"/>
      <point x="488" y="103"/>
      <point x="487" y="111" type="curve"/>
      <point x="465" y="111" type="line"/>
      <point x="465" y="74"/>
      <point x="457" y="35"/>
      <point x="432" y="35" type="curve" smooth="yes"/>
      <point x="401" y="35"/>
      <point x="397" y="82"/>
      <point x="394" y="111" type="curve" smooth="yes"/>
      <point x="387" y="166"/>
      <point x="354" y="218"/>
      <point x="298" y="231" type="curve"/>
      <point x="298" y="238" type="line"/>
      <point x="370" y="247"/>
      <point x="405" y="286"/>
      <point x="405" y="334" type="curve" smooth="yes"/>
      <point x="405" y="402"/>
      <point x="342" y="442"/>
      <point x="226" y="442" type="curve" smooth="yes"/>
      <point x="22" y="442" type="line"/>
      <point x="22" y="419" type="line"/>
      <point x="51" y="419" type="line" smooth="yes"/>
      <point x="83" y="419"/>
      <point x="88" y="417"/>
      <point x="88" y="387" type="curve" smooth="yes"/>
      <point x="88" y="55" type="line" smooth="yes"/>
      <point x="88" y="26"/>
      <point x="83" y="23" name="hr01"/>
      <point x="51" y="23" type="curve" smooth="yes"/>
      <point x="22" y="23" type="line"/>
      <point x="22" y="0" type="line"/>
      <point x="236" y="0" type="line"/>
      <point x="236" y="23" type="line"/>
      <point x="200" y="23" type="line" smooth="yes"/>
      <point x="167" y="23"/>
      <point x="164" y="26"/>
    </contour>
    <contour>
      <point x="218" y="249" type="curve" smooth="yes"/>
      <point x="164" y="249" type="line"/>
      <point x="164" y="393" type="line" smooth="yes"/>
      <point x="164" y="414"/>
      <point x="198" y="418"/>
      <point x="213" y="418" type="curve" smooth="yes"/>
      <point x="218" y="418" type="line" smooth="yes"/>
      <point x="277" y="418"/>
      <point x="318" y="396"/>
      <point x="318" y="334" type="curve" smooth="yes"/>
      <point x="318" y="272"/>
      <point x="277" y="249"/>
    </contour>
  </outline>
</glyph>
<glyph name="Rinvertedsmall" format="2">
  <advance width="496"/>
  <unicode hex="0281"/>
  <anchor x="230" y="-41" name="t.asciicircum_1"/>
  <anchor x="230" y="-54" name="t.dieresis"/>
  <outline>
    <contour>
      <point x="164" y="379" type="line" smooth="yes"/>
      <point x="164" y="408"/>
      <point x="167" y="411"/>
      <point x="200" y="411" type="curve" smooth="yes"/>
      <point x="236" y="411" type="line"/>
      <point x="236" y="434" type="line"/>
      <point x="22" y="434" type="line"/>
      <point x="22" y="411" type="line"/>
      <point x="51" y="411" type="line" smooth="yes"/>
      <point x="83" y="411"/>
      <point x="88" y="408"/>
      <point x="88" y="379" type="curve" smooth="yes"/>
      <point x="88" y="47" type="line" smooth="yes"/>
      <point x="88" y="17"/>
      <point x="83" y="15"/>
      <point x="51" y="15" type="curve" smooth="yes"/>
      <point x="22" y="15" type="line"/>
      <point x="22" y="-8" type="line"/>
      <point x="226" y="-8" type="line" smooth="yes"/>
      <point x="342" y="-8"/>
      <point x="405" y="32"/>
      <point x="405" y="100" type="curve" smooth="yes"/>
      <point x="405" y="148"/>
      <point x="370" y="187"/>
      <point x="298" y="196" type="curve"/>
      <point x="298" y="203" type="line"/>
      <point x="354" y="216"/>
      <point x="387" y="268"/>
      <point x="394" y="323" type="curve" smooth="yes"/>
      <point x="397" y="352"/>
      <point x="401" y="399" name="hr01"/>
      <point x="432" y="399" type="curve" smooth="yes"/>
      <point x="457" y="399"/>
      <point x="465" y="360"/>
      <point x="465" y="323" type="curve"/>
      <point x="487" y="323" type="line"/>
      <point x="488" y="331"/>
      <point x="489" y="340"/>
      <point x="489" y="348" type="curve" smooth="yes"/>
      <point x="489" y="404"/>
      <point x="460" y="442"/>
      <point x="405" y="442" type="curve" smooth="yes"/>
      <point x="341" y="442"/>
      <point x="311" y="399"/>
      <point x="307" y="319" type="curve" smooth="yes"/>
      <point x="303" y="262"/>
      <point x="275" y="208"/>
      <point x="222" y="208" type="curve" smooth="yes"/>
      <point x="164" y="208" type="line"/>
    </contour>
    <contour>
      <point x="218" y="185" type="line" smooth="yes"/>
      <point x="277" y="185"/>
      <point x="318" y="162"/>
      <point x="318" y="100" type="curve" smooth="yes"/>
      <point x="318" y="38"/>
      <point x="277" y="16"/>
      <point x="218" y="16" type="curve" smooth="yes"/>
      <point x="213" y="16" type="line" smooth="yes"/>
      <point x="198" y="16"/>
      <point x="164" y="20"/>
      <point x="164" y="41" type="curve" smooth="yes"/>
      <point x="164" y="185" type="line"/>
    </contour>
  </outline>
</glyph>
<glyph name="tturned" format="2">
  <advance width="337"/>
  <unicode hex="0287"/>
  <outline>
    <contour>
      <point x="162" y="0" type="line"/>
      <point x="162" y="-216" type="line"/>
      <point x="188" y="-216" type="line"/>
      <point x="210" y="-125"/>
      <point x="257" y="-42"/>
      <point x="329" y="12" type="curve"/>
      <point x="329" y="35" type="line"/>
      <point x="247" y="35" type="line"/>
      <point x="247" y="325" type="line" smooth="yes"/>
      <point x="247" y="409"/>
      <point x="220" y="462"/>
      <point x="143" y="462" type="curve" smooth="yes"/>
      <point x="68" y="462"/>
      <point x="21" y="399"/>
      <point x="21" y="268" type="curve" smooth="yes"/>
      <point x="21" y="247" type="line"/>
      <point x="51" y="247" type="line"/>
      <point x="51" y="267" type="line" smooth="yes"/>
      <point x="51" y="370"/>
      <point x="81" y="412"/>
      <point x="118" y="412" type="curve" smooth="yes"/>
      <point x="141" y="412"/>
      <point x="162" y="400"/>
      <point x="162" y="311" type="curve" smooth="yes"/>
      <point x="162" y="35" type="line"/>
      <point x="51" y="35" type="line"/>
      <point x="51" y="0" type="line"/>
    </contour>
  </outline>
</glyph>
<glyph name="tretroflexhook" format="2">
  <advance width="388"/>
  <unicode hex="0288"/>
  <outline>
    <contour>
      <point x="332" y="481" type="line"/>
      <point x="332" y="421" type="line"/>
      <point x="190" y="421" type="line"/>
      <point x="190" y="65" type="line" smooth="yes"/>
      <point x="190" y="-49"/>
      <point x="220" y="-166"/>
      <point x="262" y="-166" type="qcurve" smooth="yes"/>
      <point x="276" y="-166"/>
      <point x="291" y="-156"/>
      <point x="291" y="-150" type="qcurve" smooth="yes"/>
      <point x="291" y="-145"/>
      <point x="279" y="-116"/>
      <point x="279" y="-105" type="qcurve" smooth="yes"/>
      <point x="279" y="-88"/>
      <point x="314" y="-69"/>
      <point x="331" y="-69" type="qcurve" smooth="yes"/>
      <point x="353" y="-69"/>
      <point x="383" y="-101"/>
      <point x="383" y="-129" type="qcurve" smooth="yes"/>
      <point x="383" y="-167"/>
      <point x="323" y="-210"/>
      <point x="274" y="-210" type="qcurve" smooth="yes"/>
      <point x="230" y="-210"/>
      <point x="166" y="-177"/>
      <point x="125" y="-118"/>
      <point x="105" y="-35"/>
      <point x="105" y="15" type="qcurve" smooth="yes"/>
      <point x="105" y="421" type="line"/>
      <point x="20" y="421" type="line"/>
      <point x="20" y="481" type="line"/>
      <point x="28" y="481" type="line" smooth="yes"/>
      <point x="58" y="481"/>
      <point x="96" y="487"/>
      <point x="117" y="509"/>
      <point x="125" y="550"/>
      <point x="125" y="586" type="qcurve" smooth="yes"/>
      <point x="125" y="595"/>
      <point x="125" y="617"/>
      <point x="126" y="640"/>
      <point x="127" y="660"/>
      <point x="129" y="667" type="qcurve"/>
      <point x="189" y="667" type="line"/>
      <point x="189" y="481" type="line"/>
    </contour>
  </outline>
</glyph>
<glyph name="ubar" format="2">
  <advance width="540"/>
  <unicode hex="0289"/>
  <outline>
    <contour>
      <point x="502" y="239" type="line"/>
      <point x="453" y="239" type="line"/>
      <point x="453" y="109" type="line" smooth="yes"/>
      <point x="453" y="94"/>
      <point x="454" y="72"/>
      <point x="460" y="57"/>
      <point x="474" y="49"/>
      <point x="487" y="48" type="qcurve" smooth="yes"/>
      <point x="509" y="46" type="line"/>
      <point x="509" y="7" type="line"/>
      <point x="368" y="-8" type="line"/>
      <point x="368" y="81" type="line"/>
      <point x="366" y="81" type="line"/>
      <point x="314" y="-16"/>
      <point x="228" y="-16" type="qcurve" smooth="yes"/>
      <point x="182" y="-16"/>
      <point x="121" y="13"/>
      <point x="84" y="62"/>
      <point x="69" y="129"/>
      <point x="69" y="167" type="qcurve" smooth="yes"/>
      <point x="69" y="239" type="line"/>
      <point x="14" y="239" type="line"/>
      <point x="14" y="299" type="line"/>
      <point x="69" y="299" type="line"/>
      <point x="69" y="384" type="line" smooth="yes"/>
      <point x="69" y="413"/>
      <point x="60" y="443"/>
      <point x="34" y="445" type="qcurve" smooth="yes"/>
      <point x="12" y="447" type="line"/>
      <point x="12" y="486" type="line"/>
      <point x="154" y="501" type="line"/>
      <point x="154" y="299" type="line"/>
      <point x="368" y="299" type="line"/>
      <point x="368" y="384" type="line" smooth="yes"/>
      <point x="368" y="413"/>
      <point x="359" y="443"/>
      <point x="334" y="445" type="qcurve" smooth="yes"/>
      <point x="311" y="447" type="line"/>
      <point x="311" y="486" type="line"/>
      <point x="453" y="501" type="line"/>
      <point x="453" y="299" type="line"/>
      <point x="503" y="299" type="line"/>
    </contour>
    <contour>
      <point x="249" y="40" type="qcurve" smooth="yes"/>
      <point x="271" y="40"/>
      <point x="313" y="72"/>
      <point x="347" y="126"/>
      <point x="368" y="198"/>
      <point x="368" y="239" type="qcurve"/>
      <point x="154" y="239" type="line"/>
      <point x="154" y="155" type="line" smooth="yes"/>
      <point x="154" y="105"/>
      <point x="199" y="40"/>
    </contour>
  </outline>
</glyph>
<glyph name="vturned" format="2">
  <advance width="516"/>
  <unicode hex="028C"/>
  <outline>
    <contour>
      <point x="289" y="0" type="line"/>
      <point x="507" y="0" type="line"/>
      <point x="507" y="35" type="line"/>
      <point x="490" y="35" type="line" smooth="yes"/>
      <point x="457" y="35"/>
      <point x="448" y="42"/>
      <point x="432" y="79" type="curve" smooth="yes"/>
      <point x="267" y="462" type="line"/>
      <point x="247" y="462" type="line"/>
      <point x="90" y="87" type="line" smooth="yes"/>
      <point x="69" y="37"/>
      <point x="64" y="35"/>
      <point x="29" y="35" type="curve" smooth="yes"/>
      <point x="19" y="35" type="line"/>
      <point x="19" y="0" type="line"/>
      <point x="199" y="0" type="line"/>
      <point x="199" y="35" type="line"/>
      <point x="162" y="35" type="line" smooth="yes"/>
      <point x="125" y="35"/>
      <point x="108" y="39"/>
      <point x="130" y="91" type="curve" smooth="yes"/>
      <point x="230" y="327" type="line"/>
      <point x="335" y="84" type="line" smooth="yes"/>
      <point x="350" y="50"/>
      <point x="348" y="35"/>
      <point x="303" y="35" type="curve" smooth="yes"/>
      <point x="289" y="35" type="line"/>
    </contour>
  </outline>
</glyph>
<glyph name="wturned" format="2">
  <advance width="705"/>
  <unicode hex="028D"/>
  <outline>
    <contour>
      <point x="483" y="0" type="line"/>
      <point x="686" y="0" type="line"/>
      <point x="686" y="35" type="line"/>
      <point x="680" y="35" type="line" smooth="yes"/>
      <point x="625" y="35"/>
      <point x="630" y="39"/>
      <point x="610" y="94" type="curve" smooth="yes"/>
      <point x="474" y="462" type="line"/>
      <point x="454" y="462" type="line"/>
      <point x="344" y="171" type="line"/>
      <point x="237" y="462" type="line"/>
      <point x="217" y="462" type="line"/>
      <point x="92" y="92" type="line" smooth="yes"/>
      <point x="75" y="41"/>
      <point x="60" y="35"/>
      <point x="32" y="35" type="curve" smooth="yes"/>
      <point x="19" y="35" type="line"/>
      <point x="19" y="0" type="line"/>
      <point x="188" y="0" type="line"/>
      <point x="188" y="35" type="line"/>
      <point x="166" y="35" type="line" smooth="yes"/>
      <point x="122" y="35"/>
      <point x="111" y="40"/>
      <point x="129" y="92" type="curve" smooth="yes"/>
      <point x="202" y="306" type="line"/>
      <point x="282" y="88" type="line" smooth="yes"/>
      <point x="299" y="41"/>
      <point x="292" y="35"/>
      <point x="243" y="35" type="curve" smooth="yes"/>
      <point x="234" y="35" type="line"/>
      <point x="234" y="0" type="line"/>
      <point x="439" y="0" type="line"/>
      <point x="439" y="35" type="line"/>
      <point x="430" y="35" type="line" smooth="yes"/>
      <point x="400" y="35"/>
      <point x="394" y="37"/>
      <point x="384" y="64" type="curve" smooth="yes"/>
      <point x="363" y="120" type="line"/>
      <point x="437" y="314" type="line"/>
      <point x="521" y="84" type="line" smooth="yes"/>
      <point x="537" y="41"/>
      <point x="532" y="35"/>
      <point x="489" y="35" type="curve" smooth="yes"/>
      <point x="483" y="35" type="line"/>
    </contour>
  </outline>
</glyph>
<glyph name="Ysmall" format="2">
  <advance width="464"/>
  <unicode hex="028F"/>
  <anchor x="252" y="475" name="t.asciicircum_1"/>
  <anchor x="252" y="488" name="t.dieresis"/>
  <outline>
    <contour>
      <point x="196" y="55" type="line" smooth="yes"/>
      <point x="196" y="33"/>
      <point x="186" y="23"/>
      <point x="161" y="23" type="curve" smooth="yes"/>
      <point x="132" y="23" type="line"/>
      <point x="132" y="0" type="line"/>
      <point x="340" y="0" type="line"/>
      <point x="340" y="23" type="line"/>
      <point x="310" y="23" type="line" smooth="yes"/>
      <point x="285" y="23"/>
      <point x="274" y="33"/>
      <point x="274" y="55" type="curve" smooth="yes"/>
      <point x="274" y="211" type="line"/>
      <point x="382" y="384" type="line" smooth="yes"/>
      <point x="400" y="413"/>
      <point x="405" y="419"/>
      <point x="435" y="419" type="curve" smooth="yes"/>
      <point x="463" y="419" type="line"/>
      <point x="463" y="442" type="line"/>
      <point x="309" y="442" type="line"/>
      <point x="309" y="419" type="line"/>
      <point x="332" y="419" type="line" smooth="yes"/>
      <point x="366" y="419"/>
      <point x="372" y="417"/>
      <point x="352" y="384" type="curve" smooth="yes"/>
      <point x="260" y="236" type="line"/>
      <point x="164" y="390" type="line" smooth="yes"/>
      <point x="151" y="410"/>
      <point x="155" y="419"/>
      <point x="182" y="419" type="curve" smooth="yes"/>
      <point x="204" y="419" type="line"/>
      <point x="204" y="442" type="line"/>
      <point x="1" y="442" type="line"/>
      <point x="1" y="419" type="line"/>
      <point x="26" y="419" type="line" smooth="yes"/>
      <point x="56" y="419"/>
      <point x="61" y="417"/>
      <point x="77" y="390" type="curve" smooth="yes"/>
      <point x="196" y="196" type="line"/>
    </contour>
  </outline>
</glyph>
<glyph name="clickbilabial" format="2">
  <advance width="569"/>
  <unicode hex="0298"/>
  <unicode hex="25CE"/>
  <outline>
    <contour>
      <point x="225" y="246" type="curve" smooth="yes"/>
      <point x="225" y="213"/>
      <point x="252" y="186"/>
      <point x="285" y="186" type="curve" smooth="yes"/>
      <point x="317" y="186"/>
      <point x="344" y="213"/>
      <point x="344" y="246" type="curve" smooth="yes"/>
      <point x="344" y="279"/>
      <point x="317" y="305"/>
      <point x="285" y="305" type="curve" smooth="yes"/>
      <point x="252" y="305"/>
      <point x="225" y="279"/>
    </contour>
    <contour>
      <point x="33" y="246" type="curve" smooth="yes"/>
      <point x="33" y="102"/>
      <point x="141" y="-6"/>
      <point x="285" y="-6" type="curve" smooth="yes"/>
      <point x="428" y="-6"/>
      <point x="537" y="102"/>
      <point x="537" y="246" type="curve" smooth="yes"/>
      <point x="537" y="389"/>
      <point x="428" y="498"/>
      <point x="285" y="498" type="curve" smooth="yes"/>
      <point x="141" y="498"/>
      <point x="33" y="389"/>
    </contour>
    <contour>
      <point x="469" y="246" type="curve" smooth="yes"/>
      <point x="469" y="136"/>
      <point x="394" y="55"/>
      <point x="285" y="55" type="curve" smooth="yes"/>
      <point x="175" y="55"/>
      <point x="100" y="136"/>
      <point x="100" y="246" type="curve" smooth="yes"/>
      <point x="100" y="355"/>
      <point x="175" y="436"/>
      <point x="285" y="436" type="curve" smooth="yes"/>
      <point x="394" y="436"/>
      <point x="469" y="355"/>
    </contour>
  </outline>
</glyph>
<glyph name="Bsmall" format="2">
  <advance width="463"/>
  <unicode hex="0299"/>
  <outline>
    <contour>
      <point x="22" y="442" type="line"/>
      <point x="22" y="419" type="line"/>
      <point x="51" y="419" type="line" smooth="yes"/>
      <point x="83" y="419"/>
      <point x="88" y="417"/>
      <point x="88" y="387" type="curve" smooth="yes"/>
      <point x="88" y="55" type="line" smooth="yes"/>
      <point x="88" y="26"/>
      <point x="83" y="23"/>
      <point x="51" y="23" type="curve" smooth="yes"/>
      <point x="22" y="23" type="line"/>
      <point x="22" y="0" type="line"/>
      <point x="234" y="0" type="line" smooth="yes"/>
      <point x="357" y="0"/>
      <point x="434" y="43"/>
      <point x="434" y="124" type="curve" smooth="yes"/>
      <point x="434" y="179"/>
      <point x="389" y="226"/>
      <point x="311" y="235" type="curve"/>
      <point x="311" y="245" type="line"/>
      <point x="378" y="258"/>
      <point x="402" y="294" name="hr01"/>
      <point x="402" y="334" type="curve" smooth="yes"/>
      <point x="402" y="402"/>
      <point x="343" y="442"/>
      <point x="226" y="442" type="curve" smooth="yes"/>
    </contour>
    <contour>
      <point x="218" y="24" type="line" smooth="yes"/>
      <point x="203" y="24"/>
      <point x="165" y="28"/>
      <point x="165" y="50" type="curve" smooth="yes"/>
      <point x="165" y="226" type="line"/>
      <point x="226" y="226" type="line" smooth="yes"/>
      <point x="298" y="226"/>
      <point x="345" y="196" name="hr02"/>
      <point x="345" y="124" type="curve" smooth="yes"/>
      <point x="345" y="52"/>
      <point x="298" y="24"/>
      <point x="226" y="24" type="curve" smooth="yes"/>
    </contour>
    <contour>
      <point x="219" y="249" type="curve" smooth="yes"/>
      <point x="165" y="249" type="line"/>
      <point x="165" y="393" type="line" smooth="yes"/>
      <point x="165" y="414"/>
      <point x="199" y="418"/>
      <point x="214" y="418" type="curve" smooth="yes"/>
      <point x="219" y="418" type="line" smooth="yes"/>
      <point x="275" y="418"/>
      <point x="313" y="396" name="hr03"/>
      <point x="313" y="334" type="curve" smooth="yes"/>
      <point x="313" y="272"/>
      <point x="275" y="249"/>
    </contour>
  </outline>
</glyph>
<glyph name="Hsmall" format="2">
  <advance width="522"/>
  <unicode hex="029C"/>
  <outline>
    <contour>
      <point x="434" y="387" type="line" smooth="yes"/>
      <point x="434" y="417"/>
      <point x="439" y="419"/>
      <point x="471" y="419" type="curve" smooth="yes"/>
      <point x="501" y="419" type="line"/>
      <point x="501" y="442" type="line"/>
      <point x="292" y="442" type="line"/>
      <point x="292" y="419" type="line"/>
      <point x="321" y="419" type="line" smooth="yes"/>
      <point x="354" y="419"/>
      <point x="357" y="417"/>
      <point x="357" y="387" type="curve" smooth="yes"/>
      <point x="357" y="235" type="line"/>
      <point x="165" y="235" type="line"/>
      <point x="165" y="387" type="line" smooth="yes"/>
      <point x="165" y="417"/>
      <point x="167" y="419"/>
      <point x="201" y="419" type="curve" smooth="yes"/>
      <point x="230" y="419" type="line"/>
      <point x="230" y="442" type="line"/>
      <point x="22" y="442" type="line"/>
      <point x="22" y="419" type="line"/>
      <point x="51" y="419" type="line" smooth="yes"/>
      <point x="83" y="419"/>
      <point x="88" y="417"/>
      <point x="88" y="387" type="curve" smooth="yes"/>
      <point x="88" y="55" type="line" smooth="yes"/>
      <point x="88" y="26"/>
      <point x="83" y="23"/>
      <point x="51" y="23" type="curve" smooth="yes"/>
      <point x="22" y="23" type="line"/>
      <point x="22" y="0" type="line"/>
      <point x="230" y="0" type="line"/>
      <point x="230" y="23" type="line"/>
      <point x="201" y="23" type="line" smooth="yes"/>
      <point x="167" y="23"/>
      <point x="165" y="26"/>
      <point x="165" y="55" type="curve" smooth="yes"/>
      <point x="165" y="212" type="line"/>
      <point x="357" y="212" type="line"/>
      <point x="357" y="55" type="line" smooth="yes"/>
      <point x="357" y="26"/>
      <point x="354" y="23"/>
      <point x="321" y="23" type="curve" smooth="yes"/>
      <point x="292" y="23" type="line"/>
      <point x="292" y="0" type="line"/>
      <point x="501" y="0" type="line"/>
      <point x="501" y="23" type="line"/>
      <point x="471" y="23" type="line" smooth="yes"/>
      <point x="439" y="23"/>
      <point x="434" y="26"/>
      <point x="434" y="55" type="curve" smooth="yes"/>
    </contour>
  </outline>
</glyph>
<glyph name="kturned" format="2">
  <advance width="536"/>
  <unicode hex="029E"/>
  <outline>
    <contour>
      <point x="354" y="0" type="line"/>
      <point x="524" y="0" type="line"/>
      <point x="524" y="35" type="line"/>
      <point x="494" y="35" type="line" smooth="yes"/>
      <point x="449" y="35"/>
      <point x="444" y="40"/>
      <point x="444" y="85" type="curve" smooth="yes"/>
      <point x="444" y="595" type="line" smooth="yes"/>
      <point x="444" y="640"/>
      <point x="449" y="645"/>
      <point x="494" y="645" type="curve" smooth="yes"/>
      <point x="514" y="645" type="line"/>
      <point x="514" y="680" type="line"/>
      <point x="298" y="680" type="line"/>
      <point x="298" y="645" type="line"/>
      <point x="308" y="645" type="line" smooth="yes"/>
      <point x="353" y="645"/>
      <point x="354" y="640"/>
      <point x="354" y="595" type="curve" smooth="yes"/>
      <point x="354" y="540" type="line"/>
      <point x="276" y="450" type="line"/>
      <point x="190" y="595" type="line" smooth="yes"/>
      <point x="166" y="635"/>
      <point x="184" y="645"/>
      <point x="214" y="645" type="curve" smooth="yes"/>
      <point x="238" y="645" type="line"/>
      <point x="238" y="680" type="line"/>
      <point x="152" y="680" type="line"/>
      <point x="42" y="680" type="line"/>
      <point x="10" y="680" type="line"/>
      <point x="10" y="645" type="line"/>
      <point x="26" y="645" type="line" smooth="yes"/>
      <point x="62" y="645"/>
      <point x="64" y="640"/>
      <point x="86" y="603" type="curve" smooth="yes"/>
      <point x="216" y="383" type="line"/>
      <point x="150" y="308" type="line" smooth="yes"/>
      <point x="118" y="272"/>
      <point x="105" y="265"/>
      <point x="64" y="265" type="curve" smooth="yes"/>
      <point x="38" y="265" type="line"/>
      <point x="38" y="230" type="line"/>
      <point x="250" y="230" type="line"/>
      <point x="250" y="265" type="line"/>
      <point x="222" y="265" type="line" smooth="yes"/>
      <point x="175" y="265"/>
      <point x="171" y="278"/>
      <point x="204" y="315" type="curve" smooth="yes"/>
      <point x="354" y="482" type="line"/>
    </contour>
  </outline>
</glyph>
<glyph name="Lsmall" format="2">
  <advance width="421"/>
  <unicode hex="029F"/>
  <outline>
    <contour>
      <point x="22" y="0" type="line"/>
      <point x="395" y="0" type="line"/>
      <point x="400" y="182" type="line"/>
      <point x="377" y="182" type="line"/>
      <point x="361" y="104"/>
      <point x="349" y="24"/>
      <point x="227" y="24" type="curve" smooth="yes"/>
      <point x="207" y="24" type="line" smooth="yes"/>
      <point x="187" y="24"/>
      <point x="165" y="35"/>
      <point x="165" y="54" type="curve" smooth="yes"/>
      <point x="165" y="387" type="line" smooth="yes"/>
      <point x="165" y="417"/>
      <point x="167" y="419"/>
      <point x="201" y="419" type="curve" smooth="yes"/>
      <point x="230" y="419" type="line"/>
      <point x="230" y="442" type="line"/>
      <point x="22" y="442" type="line"/>
      <point x="22" y="419" type="line"/>
      <point x="51" y="419" type="line" smooth="yes"/>
      <point x="83" y="419"/>
      <point x="88" y="417"/>
      <point x="88" y="387" type="curve" smooth="yes"/>
      <point x="88" y="55" type="line" smooth="yes"/>
      <point x="88" y="26"/>
      <point x="83" y="23"/>
      <point x="51" y="23" type="curve" smooth="yes"/>
      <point x="22" y="23" type="line"/>
    </contour>
  </outline>
</glyph>
<glyph name="Alpha" format="2">
  <advance width="734"/>
  <unicode hex="0391"/>
  <anchor x="386" y="720" name="t.asciicircum_1"/>
  <anchor x="386" y="750" name="t.dieresis"/>
  <outline>
    <contour>
      <point x="266" y="35" type="line"/>
      <point x="226" y="35" type="line" smooth="yes"/>
      <point x="173" y="35"/>
      <point x="155" y="40"/>
      <point x="178" y="101" type="curve" smooth="yes"/>
      <point x="222" y="216" type="line"/>
      <point x="470" y="216" type="line"/>
      <point x="508" y="110" type="line" smooth="yes"/>
      <point x="531" y="44"/>
      <point x="510" y="35"/>
      <point x="462" y="35" type="curve" smooth="yes"/>
      <point x="430" y="35" type="line"/>
      <point x="430" y="0" type="line"/>
      <point x="718" y="0" type="line"/>
      <point x="718" y="35" type="line"/>
      <point x="694" y="35" type="line" smooth="yes"/>
      <point x="646" y="35"/>
      <point x="637" y="37"/>
      <point x="612" y="106" type="curve" smooth="yes"/>
      <point x="402" y="692" type="line"/>
      <point x="366" y="692" type="line"/>
      <point x="134" y="96" type="line" smooth="yes"/>
      <point x="111" y="37"/>
      <point x="96" y="35"/>
      <point x="48" y="35" type="curve" smooth="yes"/>
      <point x="16" y="35" type="line"/>
      <point x="16" y="0" type="line"/>
      <point x="266" y="0" type="line"/>
    </contour>
    <contour>
      <point x="236" y="252" type="line"/>
      <point x="352" y="556" type="line"/>
      <point x="458" y="252" type="line"/>
    </contour>
  </outline>
</glyph>
<glyph name="Theta" format="2">
  <advance width="800"/>
  <unicode hex="0398"/>
  <outline>
    <contour>
      <point x="255" y="458" type="line"/>
      <point x="285" y="458" type="line"/>
      <point x="285" y="380"/>
      <point x="353" y="380" type="qcurve" smooth="yes"/>
      <point x="427" y="380" type="line" smooth="yes"/>
      <point x="514" y="380"/>
      <point x="514" y="461" type="qcurve"/>
      <point x="545" y="461" type="line"/>
      <point x="545" y="222" type="line"/>
      <point x="514" y="222" type="line"/>
      <point x="514" y="298"/>
      <point x="427" y="298" type="qcurve" smooth="yes"/>
      <point x="353" y="298" type="line" smooth="yes"/>
      <point x="285" y="298"/>
      <point x="285" y="219" type="qcurve"/>
      <point x="255" y="219" type="line"/>
    </contour>
    <contour>
      <point x="164" y="340" type="curve" smooth="yes"/>
      <point x="164" y="590"/>
      <point x="289" y="660"/>
      <point x="401" y="660" type="curve" smooth="yes"/>
      <point x="512" y="660"/>
      <point x="636" y="590"/>
      <point x="636" y="340" type="curve" smooth="yes"/>
      <point x="636" y="90"/>
      <point x="512" y="20"/>
      <point x="401" y="20" type="curve" smooth="yes"/>
      <point x="289" y="20"/>
      <point x="164" y="90"/>
    </contour>
    <contour>
      <point x="50" y="340" type="curve" smooth="yes"/>
      <point x="50" y="146"/>
      <point x="177" y="-12"/>
      <point x="401" y="-12" type="curve" smooth="yes"/>
      <point x="624" y="-12"/>
      <point x="750" y="146"/>
      <point x="750" y="340" type="curve" smooth="yes"/>
      <point x="750" y="535"/>
      <point x="624" y="692"/>
      <point x="401" y="692" type="curve" smooth="yes"/>
      <point x="177" y="692"/>
      <point x="50" y="535"/>
    </contour>
  </outline>
</glyph>
<glyph name="Kappa" format="2">
  <advance width="725"/>
  <unicode hex="039A"/>
  <outline>
    <contour>
      <point x="233" y="85" type="curve"/>
      <point x="232" y="236" type="line"/>
      <point x="308" y="322" type="line"/>
      <point x="474" y="88" type="line" smooth="yes"/>
      <point x="501" y="49"/>
      <point x="493" y="37"/>
      <point x="448" y="37" type="curve" smooth="yes"/>
      <point x="425" y="37" type="line"/>
      <point x="425" y="0" type="line"/>
      <point x="716" y="0" type="line"/>
      <point x="716" y="37" type="line"/>
      <point x="691" y="37" type="line" smooth="yes"/>
      <point x="635" y="37"/>
      <point x="630" y="42"/>
      <point x="586" y="104" type="curve" smooth="yes"/>
      <point x="375" y="397" type="line"/>
      <point x="537" y="581" type="line" smooth="yes"/>
      <point x="576" y="626"/>
      <point x="635" y="645"/>
      <point x="667" y="645" type="curve" smooth="yes"/>
      <point x="689" y="645" type="line"/>
      <point x="689" y="680" type="line"/>
      <point x="414" y="680" type="line"/>
      <point x="414" y="645" type="line"/>
      <point x="446" y="645" type="line" smooth="yes"/>
      <point x="526" y="645"/>
      <point x="517" y="620"/>
      <point x="469" y="566" type="curve" smooth="yes"/>
      <point x="232" y="297" type="line"/>
      <point x="232" y="595" type="line" smooth="yes"/>
      <point x="232" y="640"/>
      <point x="237" y="645"/>
      <point x="282" y="645" type="curve" smooth="yes"/>
      <point x="322" y="645" type="line"/>
      <point x="322" y="680" type="line"/>
      <point x="47" y="680" type="line"/>
      <point x="47" y="645" type="line"/>
      <point x="87" y="645" type="line" smooth="yes"/>
      <point x="132" y="645"/>
      <point x="137" y="640"/>
      <point x="137" y="595" type="curve" smooth="yes"/>
      <point x="137" y="85" type="line" smooth="yes"/>
      <point x="137" y="40"/>
      <point x="132" y="35"/>
      <point x="87" y="35" type="curve" smooth="yes"/>
      <point x="47" y="35" type="line"/>
      <point x="47" y="0" type="line"/>
      <point x="322" y="0" type="line"/>
      <point x="322" y="35" type="line"/>
      <point x="282" y="35" type="line" smooth="yes"/>
      <point x="237" y="35"/>
      <point x="233" y="40"/>
    </contour>
  </outline>
</glyph>
<glyph name="Lambda" format="2">
  <advance width="734"/>
  <unicode hex="039B"/>
  <anchor x="386" y="720" name="t.asciicircum_1"/>
  <anchor x="386" y="750" name="t.dieresis"/>
  <outline>
    <contour>
      <point x="352" y="556" type="line"/>
      <point x="508" y="110" type="line"/>
      <point x="531" y="44"/>
      <point x="510" y="35"/>
      <point x="462" y="35" type="curve" smooth="yes"/>
      <point x="430" y="35" type="line"/>
      <point x="430" y="0" type="line"/>
      <point x="718" y="0" type="line"/>
      <point x="718" y="35" type="line"/>
      <point x="694" y="35" type="line" smooth="yes"/>
      <point x="646" y="35"/>
      <point x="637" y="37"/>
      <point x="612" y="106" type="curve" smooth="yes"/>
      <point x="402" y="692" type="line"/>
      <point x="366" y="692" type="line"/>
      <point x="134" y="96" type="line" smooth="yes"/>
      <point x="111" y="37"/>
      <point x="96" y="35"/>
      <point x="48" y="35" type="curve" smooth="yes"/>
      <point x="16" y="35" type="line"/>
      <point x="16" y="0" type="line"/>
      <point x="266" y="0" type="line"/>
      <point x="266" y="35" type="line"/>
      <point x="226" y="35" type="line" smooth="yes"/>
      <point x="173" y="35"/>
      <point x="155" y="40"/>
      <point x="178" y="101" type="curve"/>
    </contour>
  </outline>
</glyph>
<glyph name="Mu" format="2">
  <advance width="817"/>
  <unicode hex="039C"/>
  <outline>
    <contour>
      <point x="189" y="85" type="curve" smooth="yes"/>
      <point x="189" y="549" type="line" smooth="yes"/>
      <point x="189" y="598"/>
      <point x="207" y="607"/>
      <point x="225" y="550" type="curve" smooth="yes"/>
      <point x="274" y="389" type="line" smooth="yes"/>
      <point x="318" y="246"/>
      <point x="369" y="45"/>
      <point x="376" y="15" type="curve"/>
      <point x="397" y="15" type="line"/>
      <point x="403" y="36"/>
      <point x="458" y="226"/>
      <point x="507" y="368" type="curve" smooth="yes"/>
      <point x="563" y="530" type="line" smooth="yes"/>
      <point x="572" y="556"/>
      <point x="585" y="538"/>
      <point x="585" y="528" type="curve" smooth="yes"/>
      <point x="585" y="85" type="line" smooth="yes"/>
      <point x="585" y="40"/>
      <point x="580" y="35"/>
      <point x="535" y="35" type="curve" smooth="yes"/>
      <point x="495" y="35" type="line"/>
      <point x="495" y="0" type="line"/>
      <point x="770" y="0" type="line"/>
      <point x="770" y="35" type="line"/>
      <point x="730" y="35" type="line" smooth="yes"/>
      <point x="685" y="35"/>
      <point x="680" y="40"/>
      <point x="680" y="85" type="curve" smooth="yes"/>
      <point x="680" y="595" type="line" smooth="yes"/>
      <point x="680" y="640"/>
      <point x="685" y="645"/>
      <point x="730" y="645" type="curve" smooth="yes"/>
      <point x="770" y="645" type="line"/>
      <point x="770" y="680" type="line"/>
      <point x="573" y="680" type="line"/>
      <point x="422" y="246" type="line"/>
      <point x="286" y="680" type="line"/>
      <point x="47" y="680" type="line"/>
      <point x="47" y="645" type="line"/>
      <point x="73" y="645" type="line" smooth="yes"/>
      <point x="129" y="645"/>
      <point x="147" y="639"/>
      <point x="147" y="568" type="curve" smooth="yes"/>
      <point x="147" y="85" type="line" smooth="yes"/>
      <point x="147" y="40"/>
      <point x="142" y="35"/>
      <point x="97" y="35" type="curve" smooth="yes"/>
      <point x="47" y="35" type="line"/>
      <point x="47" y="0" type="line"/>
      <point x="289" y="0" type="line"/>
      <point x="289" y="35" type="line"/>
      <point x="239" y="35" type="line" smooth="yes"/>
      <point x="194" y="35"/>
      <point x="189" y="40"/>
    </contour>
  </outline>
</glyph>
<glyph name="Xi" format="2">
  <advance width="635"/>
  <unicode hex="039E"/>
  <outline>
    <contour>
      <point x="157" y="422" type="line"/>
      <point x="187" y="422" type="line"/>
      <point x="187" y="354"/>
      <point x="255" y="354" type="qcurve" smooth="yes"/>
      <point x="359" y="354" type="line" smooth="yes"/>
      <point x="446" y="354"/>
      <point x="446" y="425" type="qcurve"/>
      <point x="477" y="425" type="line"/>
      <point x="477" y="216" type="line"/>
      <point x="446" y="216" type="line"/>
      <point x="446" y="292"/>
      <point x="359" y="292" type="qcurve" smooth="yes"/>
      <point x="255" y="292" type="line" smooth="yes"/>
      <point x="187" y="292"/>
      <point x="187" y="213" type="qcurve"/>
      <point x="157" y="213" type="line"/>
    </contour>
    <contour>
      <point x="400" y="604" type="line"/>
      <point x="413" y="604" type="line" smooth="yes"/>
      <point x="489" y="604"/>
      <point x="523" y="617"/>
      <point x="549" y="510" type="curve"/>
      <point x="579" y="510" type="line"/>
      <point x="573" y="680" type="line"/>
      <point x="61" y="680" type="line"/>
      <point x="55" y="510" type="line"/>
      <point x="85" y="510" type="line"/>
      <point x="111" y="617"/>
      <point x="145" y="604"/>
      <point x="221" y="604" type="curve" smooth="yes"/>
      <point x="234" y="604" type="line"/>
    </contour>
    <contour>
      <point x="415" y="76" type="line"/>
      <point x="219" y="76" type="line"/>
      <point x="206" y="76" type="line" smooth="yes"/>
      <point x="130" y="76"/>
      <point x="96" y="63"/>
      <point x="70" y="170" type="curve"/>
      <point x="40" y="170" type="line"/>
      <point x="46" y="0" type="line"/>
      <point x="588" y="0" type="line"/>
      <point x="594" y="170" type="line"/>
      <point x="564" y="170" type="line"/>
      <point x="538" y="62"/>
      <point x="504" y="76"/>
      <point x="428" y="76" type="curve" smooth="yes"/>
    </contour>
  </outline>
</glyph>
<glyph name="Omicron" format="2">
  <advance width="658"/>
  <unicode hex="039F"/>
  <anchor x="330" y="730" name="t.asciicircum_1"/>
  <anchor x="330" y="750" name="t.dieresis"/>
  <outline>
    <contour>
      <point x="164" y="340" type="curve" smooth="yes"/>
      <point x="164" y="590"/>
      <point x="240" y="660"/>
      <point x="330" y="660" type="curve" smooth="yes"/>
      <point x="420" y="660"/>
      <point x="495" y="590"/>
      <point x="495" y="340" type="curve" smooth="yes"/>
      <point x="495" y="90"/>
      <point x="420" y="20"/>
      <point x="330" y="20" type="curve" smooth="yes"/>
      <point x="240" y="20"/>
      <point x="164" y="90"/>
    </contour>
    <contour>
      <point x="47" y="340" type="curve" smooth="yes"/>
      <point x="47" y="146"/>
      <point x="150" y="-12"/>
      <point x="330" y="-12" type="curve" smooth="yes"/>
      <point x="510" y="-12"/>
      <point x="612" y="146"/>
      <point x="612" y="340" type="curve" smooth="yes"/>
      <point x="612" y="535"/>
      <point x="510" y="692"/>
      <point x="330" y="692" type="curve" smooth="yes"/>
      <point x="150" y="692"/>
      <point x="47" y="535"/>
    </contour>
  </outline>
</glyph>
<glyph name="Pi" format="2">
  <advance width="757"/>
  <unicode hex="03A0"/>
  <outline>
    <contour>
      <point x="249" y="595" type="line" smooth="yes"/>
      <point x="249" y="640"/>
      <point x="254" y="645"/>
      <point x="299" y="645" type="curve" smooth="yes"/>
      <point x="484" y="645" type="line" smooth="yes"/>
      <point x="529" y="645"/>
      <point x="534" y="640"/>
      <point x="534" y="595" type="curve" smooth="yes"/>
      <point x="534" y="85" type="line" smooth="yes"/>
      <point x="534" y="40"/>
      <point x="529" y="35"/>
      <point x="484" y="35" type="curve" smooth="yes"/>
      <point x="444" y="35" type="line"/>
      <point x="444" y="0" type="line"/>
      <point x="719" y="0" type="line"/>
      <point x="719" y="35" type="line"/>
      <point x="679" y="35" type="line" smooth="yes"/>
      <point x="634" y="35"/>
      <point x="629" y="49"/>
      <point x="629" y="85" type="curve" smooth="yes"/>
      <point x="629" y="595" type="line" smooth="yes"/>
      <point x="629" y="640"/>
      <point x="634" y="645"/>
      <point x="679" y="645" type="curve" smooth="yes"/>
      <point x="699" y="645" type="line"/>
      <point x="699" y="680" type="line"/>
      <point x="84" y="680" type="line"/>
      <point x="84" y="645" type="line"/>
      <point x="104" y="645" type="line" smooth="yes"/>
      <point x="149" y="645"/>
      <point x="154" y="640"/>
      <point x="154" y="595" type="curve" smooth="yes"/>
      <point x="154" y="85" type="line" smooth="yes"/>
      <point x="154" y="40"/>
      <point x="149" y="35"/>
      <point x="104" y="35" type="curve" smooth="yes"/>
      <point x="64" y="35" type="line"/>
      <point x="64" y="0" type="line"/>
      <point x="339" y="0" type="line"/>
      <point x="339" y="35" type="line"/>
      <point x="299" y="35" type="line" smooth="yes"/>
      <point x="254" y="35"/>
      <point x="249" y="49"/>
      <point x="249" y="85" type="curve" smooth="yes"/>
    </contour>
  </outline>
</glyph>
<glyph name="Rho" format="2">
  <advance width="600"/>
  <unicode hex="03A1"/>
  <outline>
    <contour>
      <point x="232" y="85" type="curve" smooth="yes"/>
      <point x="232" y="327" type="line"/>
      <point x="318" y="327" type="line" smooth="yes"/>
      <point x="473" y="327"/>
      <point x="554" y="394"/>
      <point x="554" y="504" type="curve" smooth="yes"/>
      <point x="554" y="614"/>
      <point x="473" y="680"/>
      <point x="318" y="680" type="curve" smooth="yes"/>
      <point x="47" y="680" type="line"/>
      <point x="47" y="645" type="line"/>
      <point x="87" y="645" type="line" smooth="yes"/>
      <point x="132" y="645"/>
      <point x="137" y="640"/>
      <point x="137" y="595" type="curve" smooth="yes"/>
      <point x="137" y="85" type="line" smooth="yes"/>
      <point x="137" y="40"/>
      <point x="132" y="35"/>
      <point x="87" y="35" type="curve" smooth="yes"/>
      <point x="47" y="35" type="line"/>
      <point x="47" y="0" type="line"/>
      <point x="342" y="0" type="line"/>
      <point x="342" y="35" type="line"/>
      <point x="282" y="35" type="line" smooth="yes"/>
      <point x="237" y="35"/>
      <point x="232" y="40"/>
    </contour>
    <contour>
      <point x="232" y="364" type="line"/>
      <point x="232" y="604" type="line" smooth="yes"/>
      <point x="232" y="636"/>
      <point x="280" y="644"/>
      <point x="301" y="644" type="curve" smooth="yes"/>
      <point x="308" y="644" type="line" smooth="yes"/>
      <point x="383" y="644"/>
      <point x="439" y="604"/>
      <point x="439" y="504" type="curve" smooth="yes"/>
      <point x="439" y="404"/>
      <point x="383" y="364"/>
      <point x="308" y="364" type="curve" smooth="yes"/>
    </contour>
  </outline>
</glyph>
<glyph name="Tau" format="2">
  <advance width="640"/>
  <unicode hex="03A4"/>
  <outline>
    <contour>
      <point x="423" y="644" type="curve" smooth="yes"/>
      <point x="436" y="644" type="line" smooth="yes"/>
      <point x="512" y="644"/>
      <point x="543" y="558"/>
      <point x="572" y="430" type="curve" name="hr01"/>
      <point x="602" y="430" type="line"/>
      <point x="596" y="680" type="line"/>
      <point x="54" y="680" type="line"/>
      <point x="48" y="430" type="line"/>
      <point x="78" y="430" type="line"/>
      <point x="107" y="558"/>
      <point x="138" y="644" name="hr02"/>
      <point x="214" y="644" type="curve" smooth="yes"/>
      <point x="227" y="644" type="line" smooth="yes"/>
      <point x="262" y="644"/>
      <point x="277" y="629"/>
      <point x="277" y="594" type="curve"/>
      <point x="278" y="85" type="line"/>
      <point x="278" y="50"/>
      <point x="263" y="35"/>
      <point x="228" y="35" type="curve" smooth="yes"/>
      <point x="188" y="35" type="line"/>
      <point x="188" y="0" type="line"/>
      <point x="463" y="0" type="line"/>
      <point x="463" y="35" type="line"/>
      <point x="423" y="35" type="line" smooth="yes"/>
      <point x="388" y="35"/>
      <point x="373" y="50"/>
      <point x="373" y="85" type="curve" smooth="yes"/>
      <point x="373" y="594" type="line" smooth="yes"/>
      <point x="373" y="629"/>
      <point x="388" y="644"/>
    </contour>
  </outline>
</glyph>
<glyph name="Upsilon" format="2">
  <advance width="692"/>
  <unicode hex="03A5"/>
  <anchor x="372" y="730" name="t.asciicircum_1"/>
  <anchor x="372" y="750" name="t.dieresis"/>
  <outline>
    <contour>
      <point x="302" y="85" type="line" smooth="yes"/>
      <point x="302" y="50"/>
      <point x="287" y="35"/>
      <point x="252" y="35" type="curve" smooth="yes"/>
      <point x="212" y="35" type="line"/>
      <point x="212" y="0" type="line"/>
      <point x="488" y="0" type="line"/>
      <point x="488" y="35" type="line"/>
      <point x="448" y="35" type="line" smooth="yes"/>
      <point x="413" y="35"/>
      <point x="398" y="50"/>
      <point x="398" y="85" type="curve" smooth="yes"/>
      <point x="398" y="313" type="line"/>
      <point x="552" y="590" type="line" smooth="yes"/>
      <point x="577" y="635"/>
      <point x="584" y="645"/>
      <point x="626" y="645" type="curve" smooth="yes"/>
      <point x="676" y="645" type="line"/>
      <point x="676" y="680" type="line"/>
      <point x="450" y="680" type="line"/>
      <point x="450" y="645" type="line"/>
      <point x="484" y="645" type="line" smooth="yes"/>
      <point x="530" y="645"/>
      <point x="539" y="642"/>
      <point x="510" y="590" type="curve" smooth="yes"/>
      <point x="378" y="353" type="line"/>
      <point x="240" y="600" type="line"/>
      <point x="224" y="632"/>
      <point x="229" y="645"/>
      <point x="266" y="645" type="curve" smooth="yes"/>
      <point x="302" y="645" type="line"/>
      <point x="302" y="680" type="line"/>
      <point x="16" y="680" type="line"/>
      <point x="16" y="645" type="line"/>
      <point x="62" y="645" type="line" smooth="yes"/>
      <point x="103" y="645"/>
      <point x="110" y="640"/>
      <point x="132" y="600" type="curve" smooth="yes"/>
      <point x="302" y="295" type="line"/>
    </contour>
  </outline>
</glyph>
<glyph name="Chi" format="2">
  <advance width="704"/>
  <unicode hex="03A7"/>
  <outline>
    <contour>
      <point x="268" y="35" type="line"/>
      <point x="222" y="35" type="line" smooth="yes"/>
      <point x="170" y="35"/>
      <point x="149" y="45"/>
      <point x="196" y="111" type="curve" smooth="yes"/>
      <point x="330" y="301" type="line"/>
      <point x="452" y="108" type="line" smooth="yes"/>
      <point x="486" y="54"/>
      <point x="480" y="35"/>
      <point x="426" y="35" type="curve" smooth="yes"/>
      <point x="396" y="35" type="line"/>
      <point x="396" y="0" type="line"/>
      <point x="688" y="0" type="line"/>
      <point x="688" y="35" type="line"/>
      <point x="658" y="35" type="line" smooth="yes"/>
      <point x="617" y="35"/>
      <point x="610" y="37"/>
      <point x="582" y="81" type="curve" smooth="yes"/>
      <point x="392" y="380" type="line"/>
      <point x="538" y="588" type="line" smooth="yes"/>
      <point x="574" y="640"/>
      <point x="588" y="645"/>
      <point x="628" y="645" type="curve" smooth="yes"/>
      <point x="664" y="645" type="line"/>
      <point x="664" y="680" type="line"/>
      <point x="416" y="680" type="line"/>
      <point x="416" y="645" type="line"/>
      <point x="462" y="645" type="line" smooth="yes"/>
      <point x="517" y="645"/>
      <point x="520" y="633"/>
      <point x="476" y="571" type="curve" smooth="yes"/>
      <point x="368" y="417" type="line"/>
      <point x="262" y="587" type="line" smooth="yes"/>
      <point x="230" y="638"/>
      <point x="240" y="645"/>
      <point x="290" y="645" type="curve" smooth="yes"/>
      <point x="318" y="645" type="line"/>
      <point x="318" y="680" type="line"/>
      <point x="36" y="680" type="line"/>
      <point x="36" y="645" type="line"/>
      <point x="72" y="645" type="line" smooth="yes"/>
      <point x="104" y="645"/>
      <point x="117" y="638"/>
      <point x="144" y="595" type="curve" smooth="yes"/>
      <point x="306" y="339" type="line"/>
      <point x="134" y="93" type="line" smooth="yes"/>
      <point x="98" y="42"/>
      <point x="90" y="35"/>
      <point x="42" y="35" type="curve" smooth="yes"/>
      <point x="16" y="35" type="line"/>
      <point x="16" y="0" type="line"/>
      <point x="268" y="0" type="line"/>
    </contour>
  </outline>
</glyph>
<glyph name="Psi" format="2">
  <advance width="792"/>
  <unicode hex="03A8"/>
  <anchor x="391" y="730" name="t.asciicircum_1"/>
  <outline>
    <contour>
      <point x="441" y="595" type="line" smooth="yes"/>
      <point x="441" y="640"/>
      <point x="446" y="645"/>
      <point x="491" y="645" type="curve" smooth="yes"/>
      <point x="531" y="645" type="line"/>
      <point x="531" y="680" type="line"/>
      <point x="256" y="680" type="line"/>
      <point x="256" y="645" type="line"/>
      <point x="296" y="645" type="line" smooth="yes"/>
      <point x="341" y="645"/>
      <point x="346" y="640"/>
      <point x="346" y="595" type="curve" smooth="yes"/>
      <point x="346" y="85" type="line" smooth="yes"/>
      <point x="346" y="40"/>
      <point x="341" y="35"/>
      <point x="296" y="35" type="curve" smooth="yes"/>
      <point x="256" y="35" type="line"/>
      <point x="256" y="0" type="line"/>
      <point x="531" y="0" type="line"/>
      <point x="531" y="35" type="line"/>
      <point x="491" y="35" type="line" smooth="yes"/>
      <point x="446" y="35"/>
      <point x="441" y="49"/>
      <point x="441" y="85" type="curve" smooth="yes"/>
    </contour>
    <contour>
      <point x="345" y="270" type="line"/>
      <point x="258" y="275"/>
      <point x="194" y="345"/>
      <point x="194" y="438" type="qcurve" smooth="yes"/>
      <point x="194" y="521" type="line" smooth="yes"/>
      <point x="194" y="606"/>
      <point x="141" y="680"/>
      <point x="78" y="680" type="qcurve" smooth="yes"/>
      <point x="64" y="680"/>
      <point x="36" y="675"/>
      <point x="28" y="675" type="qcurve"/>
      <point x="28" y="652" type="line" name="hr01"/>
      <point x="46" y="652" type="line" smooth="yes"/>
      <point x="73" y="652"/>
      <point x="96" y="614"/>
      <point x="96" y="549" type="qcurve" smooth="yes"/>
      <point x="96" y="447" type="line" smooth="yes"/>
      <point x="96" y="349"/>
      <point x="222" y="247"/>
      <point x="345" y="242" type="qcurve"/>
      <point x="444" y="242" type="line"/>
      <point x="570" y="247"/>
      <point x="696" y="349"/>
      <point x="696" y="447" type="qcurve" smooth="yes"/>
      <point x="696" y="549" type="line" smooth="yes"/>
      <point x="696" y="614"/>
      <point x="719" y="652"/>
      <point x="746" y="652" type="qcurve" smooth="yes"/>
      <point x="764" y="652" type="line"/>
      <point x="764" y="675" type="line"/>
      <point x="751" y="675"/>
      <point x="728" y="680"/>
      <point x="714" y="680" type="qcurve" smooth="yes"/>
      <point x="646" y="680"/>
      <point x="593" y="610"/>
      <point x="593" y="521" type="qcurve" smooth="yes"/>
      <point x="593" y="438" type="line" smooth="yes"/>
      <point x="593" y="345"/>
      <point x="530" y="275"/>
      <point x="444" y="270" type="qcurve"/>
    </contour>
  </outline>
</glyph>
<glyph name="beta" format="2">
  <advance width="537"/>
  <unicode hex="03B2"/>
  <outline>
    <contour>
      <point x="362" y="358" type="curve"/>
      <point x="362" y="367" type="line"/>
      <point x="426" y="388"/>
      <point x="468" y="444"/>
      <point x="468" y="512" type="curve" smooth="yes"/>
      <point x="468" y="615"/>
      <point x="396" y="693"/>
      <point x="292" y="693" type="curve" smooth="yes"/>
      <point x="172" y="693"/>
      <point x="101" y="618"/>
      <point x="101" y="498" type="curve" smooth="yes"/>
      <point x="101" y="-150" type="line"/>
      <point x="196" y="-150" type="line"/>
      <point x="196" y="41" type="line"/>
      <point x="217" y="0"/>
      <point x="314" y="-12"/>
      <point x="355" y="-12" type="curve" smooth="yes"/>
      <point x="455" y="-12"/>
      <point x="522" y="80" name="hr01"/>
      <point x="522" y="174" type="curve" smooth="yes"/>
      <point x="522" y="271"/>
      <point x="454" y="339"/>
    </contour>
    <contour>
      <point x="260" y="344" type="line"/>
      <point x="381" y="344"/>
      <point x="418" y="296"/>
      <point x="418" y="175" type="curve" smooth="yes"/>
      <point x="418" y="135"/>
      <point x="422" y="19"/>
      <point x="360" y="19" type="curve" smooth="yes"/>
      <point x="283" y="19"/>
      <point x="225" y="41"/>
      <point x="196" y="87" type="curve"/>
      <point x="196" y="552" type="line" smooth="yes"/>
      <point x="196" y="608"/>
      <point x="220" y="667"/>
      <point x="285" y="667" type="curve" smooth="yes"/>
      <point x="372" y="667"/>
      <point x="372" y="572" name="hr02"/>
      <point x="372" y="508" type="curve" smooth="yes"/>
      <point x="372" y="433"/>
      <point x="341" y="373"/>
      <point x="260" y="373" type="curve"/>
    </contour>
  </outline>
</glyph>
<glyph name="rho" format="2">
  <advance width="531"/>
  <unicode hex="03C1"/>
  <outline>
    <contour>
      <point x="12" y="-230" type="line"/>
      <point x="278" y="-230" type="line"/>
      <point x="278" y="-195" type="line"/>
      <point x="228" y="-195" type="line" smooth="yes"/>
      <point x="183" y="-195"/>
      <point x="178" y="-190"/>
      <point x="178" y="-145" type="curve" smooth="yes"/>
      <point x="178" y="9" type="line"/>
      <point x="193" y="-1"/>
      <point x="256" y="-12"/>
      <point x="298" y="-12" type="curve" smooth="yes"/>
      <point x="409" y="-12"/>
      <point x="497" y="83"/>
      <point x="497" y="227" type="curve" smooth="yes"/>
      <point x="497" y="373"/>
      <point x="409" y="462"/>
      <point x="289" y="462" type="curve" smooth="yes"/>
      <point x="199" y="462"/>
      <point x="119" y="420"/>
      <point x="99" y="363" type="curve" smooth="yes"/>
      <point x="92" y="343"/>
      <point x="92" y="325"/>
      <point x="92" y="303" type="curve" smooth="yes"/>
      <point x="92" y="281"/>
      <point x="92" y="29"/>
      <point x="92" y="-145" type="curve" smooth="yes"/>
      <point x="92" y="-190"/>
      <point x="87" y="-195"/>
      <point x="42" y="-195" type="curve" smooth="yes"/>
      <point x="12" y="-195" type="line"/>
    </contour>
    <contour>
      <point x="419" y="229" type="curve" smooth="yes"/>
      <point x="419" y="104"/>
      <point x="365" y="19"/>
      <point x="284" y="19" type="curve" smooth="yes"/>
      <point x="210" y="19"/>
      <point x="165" y="92" name="hr01"/>
      <point x="165" y="213" type="curve" smooth="yes"/>
      <point x="165" y="345"/>
      <point x="214" y="429"/>
      <point x="291" y="429" type="curve" smooth="yes"/>
      <point x="369" y="429"/>
      <point x="419" y="351"/>
    </contour>
  </outline>
</glyph>
<glyph name="Becyr" format="2">
  <advance width="637"/>
  <unicode hex="0411"/>
  <outline>
    <contour>
      <point x="361" y="644" type="line" smooth="yes"/>
      <point x="481" y="644"/>
      <point x="520" y="576"/>
      <point x="547" y="449" type="curve"/>
      <point x="577" y="449" type="line"/>
      <point x="572" y="680" type="line"/>
      <point x="48" y="680" type="line"/>
      <point x="48" y="645" type="line"/>
      <point x="88" y="645" type="line" smooth="yes"/>
      <point x="133" y="645"/>
      <point x="138" y="640"/>
      <point x="138" y="595" type="curve" smooth="yes"/>
      <point x="138" y="85" type="line" smooth="yes"/>
      <point x="138" y="40"/>
      <point x="133" y="35"/>
      <point x="88" y="35" type="curve" smooth="yes"/>
      <point x="48" y="35" type="line"/>
      <point x="48" y="0" type="line"/>
      <point x="343" y="0" type="line"/>
      <point x="497" y="4"/>
      <point x="595" y="69"/>
      <point x="595" y="190" type="curve" smooth="yes"/>
      <point x="595" y="276"/>
      <point x="535" y="343"/>
      <point x="443" y="363" type="curve"/>
      <point x="443" y="363"/>
      <point x="380" y="382"/>
      <point x="320" y="382" type="curve" smooth="yes"/>
      <point x="233" y="382" type="line"/>
      <point x="233" y="604" type="line" smooth="yes"/>
      <point x="233" y="628"/>
      <point x="268" y="644"/>
      <point x="298" y="644" type="curve" smooth="yes"/>
    </contour>
    <contour>
      <point x="307" y="36" type="line" smooth="yes"/>
      <point x="287" y="36"/>
      <point x="236" y="44"/>
      <point x="233" y="73" type="curve"/>
      <point x="233" y="77"/>
      <point x="233" y="81"/>
      <point x="233" y="85" type="curve" smooth="yes"/>
      <point x="233" y="347" type="line"/>
      <point x="319" y="347" type="line" smooth="yes"/>
      <point x="419" y="347"/>
      <point x="485" y="300"/>
      <point x="485" y="190" type="curve" smooth="yes"/>
      <point x="485" y="80"/>
      <point x="419" y="36"/>
      <point x="319" y="36" type="curve" smooth="yes"/>
    </contour>
  </outline>
</glyph>
<glyph name="Gecyr" format="2">
  <advance width="613"/>
  <unicode hex="0413"/>
  <outline>
    <contour>
      <point x="360" y="644" type="line" smooth="yes"/>
      <point x="480" y="644"/>
      <point x="519" y="576"/>
      <point x="546" y="449" type="curve"/>
      <point x="576" y="449" type="line"/>
      <point x="571" y="680" type="line"/>
      <point x="47" y="680" type="line"/>
      <point x="47" y="645" type="line"/>
      <point x="87" y="645" type="line" smooth="yes"/>
      <point x="132" y="645"/>
      <point x="137" y="640"/>
      <point x="137" y="595" type="curve" smooth="yes"/>
      <point x="137" y="85" type="line" smooth="yes"/>
      <point x="137" y="40"/>
      <point x="132" y="35"/>
      <point x="87" y="35" type="curve" smooth="yes"/>
      <point x="47" y="35" type="line"/>
      <point x="47" y="0" type="line"/>
      <point x="342" y="0" type="line"/>
      <point x="342" y="35" type="line"/>
      <point x="282" y="35" type="line" smooth="yes"/>
      <point x="237" y="35"/>
      <point x="232" y="40"/>
      <point x="232" y="85" type="curve"/>
      <point x="232" y="604" type="line"/>
      <point x="232" y="628"/>
      <point x="267" y="644"/>
      <point x="297" y="644" type="curve" smooth="yes"/>
    </contour>
  </outline>
</glyph>
<glyph name="Zecyr" format="2">
  <advance width="583"/>
  <unicode hex="0417"/>
  <outline>
    <contour>
      <point x="344" y="364" type="curve"/>
      <point x="344" y="373" type="line"/>
      <point x="429" y="386"/>
      <point x="494" y="448"/>
      <point x="494" y="527" type="curve" smooth="yes"/>
      <point x="494" y="626"/>
      <point x="400" y="692"/>
      <point x="285" y="692" type="curve" smooth="yes"/>
      <point x="250" y="692"/>
      <point x="225" y="686"/>
      <point x="194" y="671" type="curve" smooth="yes"/>
      <point x="191" y="670"/>
      <point x="187" y="668"/>
      <point x="184" y="666" type="curve" smooth="yes"/>
      <point x="180" y="664"/>
      <point x="177" y="663"/>
      <point x="174" y="661" type="curve" smooth="yes"/>
      <point x="130" y="638"/>
      <point x="119" y="647"/>
      <point x="99" y="681" type="curve" smooth="yes"/>
      <point x="91" y="695" type="line"/>
      <point x="56" y="695" type="line"/>
      <point x="56" y="439" type="line"/>
      <point x="96" y="439" type="line"/>
      <point x="122" y="621"/>
      <point x="202" y="657"/>
      <point x="278" y="659" type="curve"/>
      <point x="369" y="657"/>
      <point x="391" y="596"/>
      <point x="391" y="520" type="curve" smooth="yes"/>
      <point x="391" y="446"/>
      <point x="360" y="382"/>
      <point x="215" y="382" type="curve"/>
      <point x="215" y="353" type="line"/>
      <point x="368" y="353"/>
      <point x="406" y="278" name="hr01"/>
      <point x="406" y="192" type="curve" smooth="yes"/>
      <point x="406" y="91"/>
      <point x="360" y="24"/>
      <point x="261" y="24" type="curve" smooth="yes"/>
      <point x="208" y="24"/>
      <point x="167" y="45"/>
      <point x="139" y="68" type="curve" smooth="yes"/>
      <point x="124" y="80"/>
      <point x="125" y="101"/>
      <point x="155" y="107" type="curve" smooth="yes"/>
      <point x="190" y="114"/>
      <point x="215" y="143"/>
      <point x="215" y="182" type="curve" smooth="yes"/>
      <point x="215" y="225"/>
      <point x="181" y="260"/>
      <point x="137" y="260" type="curve" smooth="yes"/>
      <point x="96" y="260"/>
      <point x="50" y="229"/>
      <point x="50" y="159" type="curve" smooth="yes"/>
      <point x="50" y="71"/>
      <point x="152" y="-12"/>
      <point x="275" y="-12" type="curve" smooth="yes"/>
      <point x="449" y="-12"/>
      <point x="523" y="87"/>
      <point x="523" y="184" type="curve" smooth="yes"/>
      <point x="523" y="271"/>
      <point x="448" y="346"/>
    </contour>
  </outline>
</glyph>
<glyph name="Efcyr" format="2">
  <advance width="760"/>
  <unicode hex="0424"/>
  <anchor x="374" y="730" name="t.asciicircum_1"/>
  <outline>
    <contour>
      <point x="424" y="595" type="line" smooth="yes"/>
      <point x="424" y="640"/>
      <point x="429" y="645"/>
      <point x="474" y="645" type="curve" smooth="yes"/>
      <point x="514" y="645" type="line"/>
      <point x="514" y="680" type="line"/>
      <point x="239" y="680" type="line"/>
      <point x="239" y="645" type="line"/>
      <point x="279" y="645" type="line" smooth="yes"/>
      <point x="324" y="645"/>
      <point x="329" y="640"/>
      <point x="329" y="595" type="curve" smooth="yes"/>
      <point x="329" y="85" type="line" smooth="yes"/>
      <point x="329" y="40"/>
      <point x="324" y="35"/>
      <point x="279" y="35" type="curve" smooth="yes"/>
      <point x="239" y="35" type="line"/>
      <point x="239" y="0" type="line"/>
      <point x="514" y="0" type="line"/>
      <point x="514" y="35" type="line"/>
      <point x="474" y="35" type="line" smooth="yes"/>
      <point x="429" y="35"/>
      <point x="424" y="49"/>
      <point x="424" y="85" type="curve" smooth="yes"/>
    </contour>
    <contour>
      <point x="627" y="346" type="curve" smooth="yes"/>
      <point x="627" y="186"/>
      <point x="507" y="141"/>
      <point x="379" y="141" type="curve" smooth="yes"/>
      <point x="251" y="141"/>
      <point x="135" y="186"/>
      <point x="135" y="346" type="curve" smooth="yes"/>
      <point x="135" y="507"/>
      <point x="251" y="551"/>
      <point x="379" y="551" type="curve" smooth="yes"/>
      <point x="507" y="551"/>
      <point x="627" y="507"/>
    </contour>
    <contour>
      <point x="737" y="346" type="curve" smooth="yes"/>
      <point x="737" y="471"/>
      <point x="638" y="572"/>
      <point x="379" y="572" type="curve" smooth="yes"/>
      <point x="123" y="572"/>
      <point x="25" y="471"/>
      <point x="25" y="346" type="curve" smooth="yes"/>
      <point x="25" y="221"/>
      <point x="123" y="120"/>
      <point x="379" y="120" type="curve" smooth="yes"/>
      <point x="638" y="120"/>
      <point x="737" y="221"/>
    </contour>
  </outline>
</glyph>
<glyph name="Asmall" format="2">
  <advance width="540"/>
  <unicode hex="1D00"/>
  <anchor x="284" y="468" name="t.asciicircum_1"/>
  <anchor x="284" y="488" name="t.dieresis"/>
  <outline>
    <contour>
      <point x="196" y="23" type="line"/>
      <point x="167" y="23" type="line" smooth="yes"/>
      <point x="128" y="23"/>
      <point x="115" y="26"/>
      <point x="132" y="65" type="curve" smooth="yes"/>
      <point x="164" y="141" type="line"/>
      <point x="335" y="141" type="line"/>
      <point x="363" y="72" type="line" smooth="yes"/>
      <point x="378" y="28"/>
      <point x="368" y="23"/>
      <point x="333" y="23" type="curve" smooth="yes"/>
      <point x="309" y="23" type="line"/>
      <point x="309" y="0" type="line"/>
      <point x="524" y="0" type="line"/>
      <point x="524" y="23" type="line"/>
      <point x="507" y="23" type="line" smooth="yes"/>
      <point x="472" y="23"/>
      <point x="465" y="24"/>
      <point x="447" y="69" type="curve" smooth="yes"/>
      <point x="295" y="450" type="line"/>
      <point x="269" y="450" type="line"/>
      <point x="100" y="63" type="line" smooth="yes"/>
      <point x="83" y="24"/>
      <point x="73" y="23"/>
      <point x="38" y="23" type="curve" smooth="yes"/>
      <point x="14" y="23" type="line"/>
      <point x="14" y="0" type="line"/>
      <point x="196" y="0" type="line"/>
    </contour>
    <contour>
      <point x="174" y="164" type="line"/>
      <point x="254" y="352" type="line"/>
      <point x="326" y="164" type="line"/>
    </contour>
  </outline>
</glyph>
<glyph name="AEsmall" format="2">
  <advance width="728"/>
  <unicode hex="1D01"/>
  <anchor x="474" y="466" name="t.asciicircum_1"/>
  <anchor x="474" y="479" name="t.dieresis"/>
  <outline>
    <contour>
      <point x="311" y="0" type="line"/>
      <point x="695" y="0" type="line"/>
      <point x="699" y="179" type="line"/>
      <point x="677" y="179" type="line"/>
      <point x="661" y="101"/>
      <point x="648" y="23"/>
      <point x="528" y="23" type="curve" smooth="yes"/>
      <point x="489" y="23" type="line" smooth="yes"/>
      <point x="470" y="23"/>
      <point x="452" y="35"/>
      <point x="452" y="50" type="curve" smooth="yes"/>
      <point x="452" y="208" type="line"/>
      <point x="484" y="208" type="line" smooth="yes"/>
      <point x="524" y="208"/>
      <point x="549" y="169"/>
      <point x="555" y="111" type="curve"/>
      <point x="581" y="111" type="line"/>
      <point x="581" y="326" type="line"/>
      <point x="555" y="326" type="line"/>
      <point x="549" y="269"/>
      <point x="527" y="231"/>
      <point x="484" y="231" type="curve" smooth="yes"/>
      <point x="452" y="231" type="line"/>
      <point x="452" y="385" type="line" smooth="yes"/>
      <point x="452" y="400"/>
      <point x="478" y="411"/>
      <point x="499" y="411" type="curve" smooth="yes"/>
      <point x="530" y="411" type="line" smooth="yes"/>
      <point x="606" y="411"/>
      <point x="645" y="364"/>
      <point x="665" y="284" type="curve"/>
      <point x="687" y="284" type="line"/>
      <point x="683" y="434" type="line"/>
      <point x="286" y="434" type="line"/>
      <point x="285" y="411" type="line"/>
      <point x="306" y="411" type="line" smooth="yes"/>
      <point x="347" y="411"/>
      <point x="354" y="407"/>
      <point x="326" y="365" type="curve" smooth="yes"/>
      <point x="130" y="67" type="line" smooth="yes"/>
      <point x="108" y="33"/>
      <point x="94" y="22"/>
      <point x="37" y="22" type="curve" smooth="yes"/>
      <point x="29" y="22" type="line"/>
      <point x="29" y="0" type="line"/>
      <point x="210" y="0" type="line"/>
      <point x="210" y="22" type="line"/>
      <point x="194" y="22" type="line" smooth="yes"/>
      <point x="152" y="22"/>
      <point x="139" y="30"/>
      <point x="167" y="73" type="curve" smooth="yes"/>
      <point x="209" y="139" type="line"/>
      <point x="376" y="139" type="line"/>
      <point x="376" y="54" type="line" smooth="yes"/>
      <point x="376" y="26"/>
      <point x="372" y="22"/>
      <point x="340" y="22" type="curve" smooth="yes"/>
      <point x="311" y="22" type="line"/>
    </contour>
    <contour>
      <point x="351" y="357" type="line" smooth="yes"/>
      <point x="370" y="386"/>
      <point x="376" y="386"/>
      <point x="376" y="352" type="curve" smooth="yes"/>
      <point x="376" y="161" type="line"/>
      <point x="224" y="161" type="line"/>
    </contour>
  </outline>
</glyph>
<glyph name="Csmall" format="2">
  <advance width="434"/>
  <unicode hex="1D04"/>
  <anchor x="235" y="475" name="t.asciicircum_1"/>
  <anchor x="235" y="488" name="t.dieresis"/>
  <outline>
    <contour>
      <point x="405" y="139" type="curve"/>
      <point x="378" y="139" type="line"/>
      <point x="366" y="66"/>
      <point x="311" y="20"/>
      <point x="239" y="20" type="curve" smooth="yes"/>
      <point x="175" y="20"/>
      <point x="125" y="59"/>
      <point x="125" y="221" type="curve" smooth="yes"/>
      <point x="125" y="384"/>
      <point x="171" y="427"/>
      <point x="235" y="427" type="curve" smooth="yes"/>
      <point x="292" y="427"/>
      <point x="351" y="396"/>
      <point x="371" y="284" type="curve"/>
      <point x="400" y="284" type="line"/>
      <point x="400" y="450" type="line"/>
      <point x="374" y="450" type="line"/>
      <point x="369" y="440" type="line" smooth="yes"/>
      <point x="354" y="418"/>
      <point x="345" y="417"/>
      <point x="313" y="432" type="curve" smooth="yes"/>
      <point x="294" y="440"/>
      <point x="273" y="450"/>
      <point x="235" y="450" type="curve" smooth="yes"/>
      <point x="106" y="450"/>
      <point x="29" y="349"/>
      <point x="29" y="221" type="curve" smooth="yes"/>
      <point x="29" y="79"/>
      <point x="119" y="-8"/>
      <point x="235" y="-8" type="curve" smooth="yes"/>
      <point x="318" y="-8"/>
      <point x="393" y="41"/>
    </contour>
  </outline>
</glyph>
<glyph name="Dsmall" format="2">
  <advance width="487"/>
  <unicode hex="1D05"/>
  <anchor x="235" y="475" name="t.asciicircum_1"/>
  <anchor x="235" y="488" name="t.dieresis"/>
  <outline>
    <contour>
      <point x="22" y="442" type="line"/>
      <point x="22" y="419" type="line"/>
      <point x="51" y="419" type="line" smooth="yes"/>
      <point x="83" y="419"/>
      <point x="88" y="417"/>
      <point x="88" y="387" type="curve" smooth="yes"/>
      <point x="88" y="55" type="line" smooth="yes"/>
      <point x="88" y="26"/>
      <point x="83" y="23"/>
      <point x="51" y="23" type="curve" smooth="yes"/>
      <point x="22" y="23" type="line"/>
      <point x="22" y="0" type="line"/>
      <point x="226" y="0" type="line" smooth="yes"/>
      <point x="386" y="0"/>
      <point x="458" y="104"/>
      <point x="458" y="221" type="curve" smooth="yes"/>
      <point x="458" y="338"/>
      <point x="386" y="442"/>
      <point x="226" y="442" type="curve" smooth="yes"/>
    </contour>
    <contour>
      <point x="218" y="24" type="curve" smooth="yes"/>
      <point x="213" y="24" type="line" smooth="yes"/>
      <point x="198" y="24"/>
      <point x="164" y="28"/>
      <point x="164" y="50" type="curve" smooth="yes"/>
      <point x="164" y="393" type="line" smooth="yes"/>
      <point x="164" y="414"/>
      <point x="199" y="418"/>
      <point x="213" y="418" type="curve" smooth="yes"/>
      <point x="218" y="418" type="line" smooth="yes"/>
      <point x="320" y="418"/>
      <point x="364" y="364"/>
      <point x="364" y="221" type="curve" smooth="yes"/>
      <point x="364" y="78"/>
      <point x="320" y="24"/>
    </contour>
  </outline>
</glyph>
<glyph name="Ethsmall" format="2">
  <advance width="473"/>
  <unicode hex="1D06"/>
  <outline>
    <contour>
      <point x="27" y="434" type="line"/>
      <point x="27" y="411" type="line"/>
      <point x="56" y="411" type="line" smooth="yes"/>
      <point x="89" y="411"/>
      <point x="93" y="408"/>
      <point x="93" y="379" type="curve" smooth="yes"/>
      <point x="93" y="239" type="line"/>
      <point x="20" y="239" type="line"/>
      <point x="20" y="197" type="line"/>
      <point x="93" y="197" type="line"/>
      <point x="93" y="54" type="line" smooth="yes"/>
      <point x="93" y="26"/>
      <point x="89" y="22"/>
      <point x="56" y="22" type="curve" smooth="yes"/>
      <point x="27" y="22" type="line"/>
      <point x="27" y="0" type="line"/>
      <point x="224" y="0" type="line" smooth="yes"/>
      <point x="378" y="0"/>
      <point x="446" y="102"/>
      <point x="446" y="217" type="curve" smooth="yes"/>
      <point x="446" y="332"/>
      <point x="378" y="434"/>
      <point x="224" y="434" type="curve" smooth="yes"/>
    </contour>
    <contour>
      <point x="216" y="23" type="curve" smooth="yes"/>
      <point x="211" y="23" type="line" smooth="yes"/>
      <point x="196" y="23"/>
      <point x="162" y="28"/>
      <point x="162" y="48" type="curve" smooth="yes"/>
      <point x="162" y="197" type="line"/>
      <point x="234" y="197" type="line"/>
      <point x="234" y="239" type="line"/>
      <point x="162" y="239" type="line"/>
      <point x="162" y="385" type="line" smooth="yes"/>
      <point x="162" y="405"/>
      <point x="196" y="411"/>
      <point x="211" y="411" type="curve" smooth="yes"/>
      <point x="216" y="411" type="line" smooth="yes"/>
      <point x="317" y="411"/>
      <point x="364" y="357"/>
      <point x="364" y="217" type="curve" smooth="yes"/>
      <point x="364" y="77"/>
      <point x="317" y="23"/>
    </contour>
  </outline>
</glyph>
<glyph name="Esmall" format="2">
  <advance width="462"/>
  <unicode hex="1D07"/>
  <anchor x="247" y="475" name="t.asciicircum_1"/>
  <anchor x="247" y="488" name="t.dieresis"/>
  <outline>
    <contour>
      <point x="22" y="442" type="line"/>
      <point x="22" y="419" type="line"/>
      <point x="51" y="419" type="line" smooth="yes"/>
      <point x="83" y="419"/>
      <point x="88" y="417"/>
      <point x="88" y="387" type="curve" smooth="yes"/>
      <point x="88" y="55" type="line" smooth="yes"/>
      <point x="88" y="26"/>
      <point x="83" y="23"/>
      <point x="51" y="23" type="curve" smooth="yes"/>
      <point x="22" y="23" type="line"/>
      <point x="22" y="0" type="line"/>
      <point x="422" y="0" type="line"/>
      <point x="426" y="182" type="line"/>
      <point x="404" y="182" type="line"/>
      <point x="388" y="104"/>
      <point x="375" y="24"/>
      <point x="255" y="24" type="curve" smooth="yes"/>
      <point x="201" y="24" type="line" smooth="yes"/>
      <point x="182" y="24"/>
      <point x="164" y="36"/>
      <point x="164" y="51" type="curve" smooth="yes"/>
      <point x="164" y="213" type="line"/>
      <point x="210" y="213" type="line" smooth="yes"/>
      <point x="250" y="213"/>
      <point x="275" y="173"/>
      <point x="281" y="114" type="curve"/>
      <point x="307" y="114" type="line"/>
      <point x="307" y="333" type="line"/>
      <point x="281" y="333" type="line"/>
      <point x="275" y="275"/>
      <point x="253" y="235"/>
      <point x="210" y="235" type="curve" smooth="yes"/>
      <point x="164" y="235" type="line"/>
      <point x="164" y="393" type="line" smooth="yes"/>
      <point x="164" y="409"/>
      <point x="189" y="418"/>
      <point x="211" y="418" type="curve" smooth="yes"/>
      <point x="257" y="418" type="line" smooth="yes"/>
      <point x="333" y="418"/>
      <point x="371" y="371"/>
      <point x="392" y="289" type="curve"/>
      <point x="414" y="289" type="line"/>
      <point x="410" y="442" type="line"/>
    </contour>
  </outline>
</glyph>
<glyph name="Jsmall" format="2">
  <advance width="337"/>
  <unicode hex="1D0A"/>
  <anchor x="217" y="492" name="t.asciicircum_1"/>
  <anchor x="217" y="505" name="t.dieresis"/>
  <outline>
    <contour>
      <point x="257" y="387" type="line" smooth="yes"/>
      <point x="257" y="417"/>
      <point x="260" y="419"/>
      <point x="293" y="419" type="curve" smooth="yes"/>
      <point x="322" y="419" type="line"/>
      <point x="322" y="442" type="line"/>
      <point x="111" y="442" type="line"/>
      <point x="111" y="419" type="line"/>
      <point x="139" y="419" type="line" smooth="yes"/>
      <point x="173" y="419"/>
      <point x="176" y="417"/>
      <point x="176" y="387" type="curve" smooth="yes"/>
      <point x="176" y="33" type="line" smooth="yes"/>
      <point x="176" y="-12"/>
      <point x="154" y="-31"/>
      <point x="122" y="-31" type="curve" smooth="yes"/>
      <point x="86" y="-31"/>
      <point x="71" y="-12"/>
      <point x="71" y="-2" type="curve" smooth="yes"/>
      <point x="71" y="14"/>
      <point x="99" y="19" name="hr01"/>
      <point x="99" y="46" type="curve" smooth="yes"/>
      <point x="99" y="67"/>
      <point x="81" y="82"/>
      <point x="60" y="82" type="curve" smooth="yes"/>
      <point x="32" y="82"/>
      <point x="14" y="61"/>
      <point x="14" y="34" type="curve" smooth="yes"/>
      <point x="14" y="-10"/>
      <point x="74" y="-50"/>
      <point x="124" y="-50" type="curve" smooth="yes"/>
      <point x="203" y="-50"/>
      <point x="257" y="4"/>
      <point x="257" y="67" type="curve" smooth="yes"/>
    </contour>
  </outline>
</glyph>
<glyph name="Ksmall" format="2">
  <advance width="531"/>
  <unicode hex="1D0B"/>
  <outline>
    <contour>
      <point x="165" y="55" type="curve" smooth="yes"/>
      <point x="165" y="154" type="line"/>
      <point x="216" y="206" type="line"/>
      <point x="333" y="58" type="line" smooth="yes"/>
      <point x="351" y="34"/>
      <point x="346" y="24"/>
      <point x="317" y="24" type="curve" smooth="yes"/>
      <point x="300" y="24" type="line"/>
      <point x="300" y="0" type="line"/>
      <point x="516" y="0" type="line"/>
      <point x="516" y="24" type="line"/>
      <point x="497" y="24" type="line" smooth="yes"/>
      <point x="456" y="24"/>
      <point x="453" y="27"/>
      <point x="421" y="67" type="curve" smooth="yes"/>
      <point x="268" y="258" type="line"/>
      <point x="386" y="378" type="line" smooth="yes"/>
      <point x="420" y="413"/>
      <point x="427" y="418"/>
      <point x="463" y="418" type="curve" smooth="yes"/>
      <point x="481" y="418" type="line"/>
      <point x="481" y="442" type="line"/>
      <point x="288" y="442" type="line"/>
      <point x="288" y="418" type="line"/>
      <point x="319" y="418" type="line" smooth="yes"/>
      <point x="377" y="418"/>
      <point x="371" y="403"/>
      <point x="336" y="368" type="curve" smooth="yes"/>
      <point x="165" y="194" type="line"/>
      <point x="165" y="387" type="line" smooth="yes"/>
      <point x="165" y="417"/>
      <point x="167" y="419"/>
      <point x="201" y="419" type="curve" smooth="yes"/>
      <point x="230" y="419" type="line"/>
      <point x="230" y="442" type="line"/>
      <point x="22" y="442" type="line"/>
      <point x="22" y="419" type="line"/>
      <point x="51" y="419" type="line" smooth="yes"/>
      <point x="83" y="419"/>
      <point x="88" y="417"/>
      <point x="88" y="387" type="curve" smooth="yes"/>
      <point x="88" y="55" type="line" smooth="yes"/>
      <point x="88" y="26"/>
      <point x="83" y="23"/>
      <point x="51" y="23" type="curve" smooth="yes"/>
      <point x="22" y="23" type="line"/>
      <point x="22" y="0" type="line"/>
      <point x="230" y="0" type="line"/>
      <point x="230" y="23" type="line"/>
      <point x="201" y="23" type="line" smooth="yes"/>
      <point x="167" y="23"/>
      <point x="165" y="26"/>
    </contour>
  </outline>
</glyph>
<glyph name="Msmall" format="2">
  <advance width="575"/>
  <unicode hex="1D0D"/>
  <outline>
    <contour>
      <point x="124" y="55" type="curve" smooth="yes"/>
      <point x="124" y="357" type="line" smooth="yes"/>
      <point x="124" y="388"/>
      <point x="138" y="394"/>
      <point x="150" y="358" type="curve" smooth="yes"/>
      <point x="188" y="253" type="line" smooth="yes"/>
      <point x="219" y="160"/>
      <point x="257" y="29"/>
      <point x="262" y="10" type="curve"/>
      <point x="276" y="10" type="line"/>
      <point x="281" y="24"/>
      <point x="320" y="147"/>
      <point x="356" y="240" type="curve" smooth="yes"/>
      <point x="396" y="345" type="line" smooth="yes"/>
      <point x="402" y="362"/>
      <point x="412" y="349"/>
      <point x="412" y="343" type="curve" smooth="yes"/>
      <point x="412" y="55" type="line" smooth="yes"/>
      <point x="412" y="26"/>
      <point x="409" y="23"/>
      <point x="376" y="23" type="curve" smooth="yes"/>
      <point x="347" y="23" type="line"/>
      <point x="347" y="0" type="line"/>
      <point x="554" y="0" type="line"/>
      <point x="554" y="23" type="line"/>
      <point x="524" y="23" type="line" smooth="yes"/>
      <point x="492" y="23"/>
      <point x="488" y="26"/>
      <point x="488" y="55" type="curve" smooth="yes"/>
      <point x="488" y="387" type="line" smooth="yes"/>
      <point x="488" y="417"/>
      <point x="492" y="419"/>
      <point x="524" y="419" type="curve" smooth="yes"/>
      <point x="554" y="419" type="line"/>
      <point x="554" y="442" type="line"/>
      <point x="403" y="442" type="line"/>
      <point x="298" y="172" type="line"/>
      <point x="204" y="442" type="line"/>
      <point x="22" y="442" type="line"/>
      <point x="22" y="419" type="line"/>
      <point x="40" y="419" type="line" smooth="yes"/>
      <point x="81" y="419"/>
      <point x="95" y="416"/>
      <point x="95" y="370" type="curve"/>
      <point x="95" y="55" type="line" smooth="yes"/>
      <point x="95" y="26"/>
      <point x="91" y="23"/>
      <point x="58" y="23" type="curve" smooth="yes"/>
      <point x="22" y="23" type="line"/>
      <point x="22" y="0" type="line"/>
      <point x="196" y="0" type="line"/>
      <point x="196" y="23" type="line"/>
      <point x="161" y="23" type="line" smooth="yes"/>
      <point x="128" y="23"/>
      <point x="124" y="26"/>
    </contour>
  </outline>
</glyph>
<glyph name="Osmall" format="2">
  <advance width="469"/>
  <unicode hex="1D0F"/>
  <anchor x="235" y="475" name="t.asciicircum_1"/>
  <anchor x="235" y="488" name="t.dieresis"/>
  <outline>
    <contour>
      <point x="125" y="221" type="curve" smooth="yes"/>
      <point x="125" y="384"/>
      <point x="169" y="429"/>
      <point x="235" y="429" type="curve" smooth="yes"/>
      <point x="300" y="429"/>
      <point x="343" y="384"/>
      <point x="343" y="221" type="curve" smooth="yes"/>
      <point x="343" y="59"/>
      <point x="300" y="13"/>
      <point x="235" y="13" type="curve" smooth="yes"/>
      <point x="169" y="13"/>
      <point x="125" y="59"/>
    </contour>
    <contour>
      <point x="29" y="221" type="curve" smooth="yes"/>
      <point x="29" y="95"/>
      <point x="104" y="-8"/>
      <point x="235" y="-8" type="curve" smooth="yes"/>
      <point x="366" y="-8"/>
      <point x="440" y="95"/>
      <point x="440" y="221" type="curve" smooth="yes"/>
      <point x="440" y="349"/>
      <point x="366" y="450"/>
      <point x="235" y="450" type="curve" smooth="yes"/>
      <point x="104" y="450"/>
      <point x="29" y="349"/>
    </contour>
  </outline>
</glyph>
<glyph name="oeturned" format="2">
  <advance width="712"/>
  <unicode hex="1D14"/>
  <anchor x="339" y="-68" name="t.asciicircum_1"/>
  <anchor x="339" y="-68" name="t.dieresis"/>
  <outline>
    <contour>
      <point x="687" y="237" type="curve" smooth="yes"/>
      <point x="687" y="367"/>
      <point x="610" y="474"/>
      <point x="490" y="474" type="curve" smooth="yes"/>
      <point x="435" y="474"/>
      <point x="390" y="445"/>
      <point x="356" y="404" type="curve"/>
      <point x="320" y="447"/>
      <point x="270" y="474"/>
      <point x="205" y="474" type="curve" smooth="yes"/>
      <point x="129" y="474"/>
      <point x="59" y="417"/>
      <point x="30" y="328" type="curve"/>
      <point x="58" y="318" type="line"/>
      <point x="84" y="398"/>
      <point x="141" y="441"/>
      <point x="191" y="441" type="curve" smooth="yes"/>
      <point x="254" y="441"/>
      <point x="304" y="387"/>
      <point x="304" y="237" type="curve" smooth="yes"/>
      <point x="304" y="224" type="line"/>
      <point x="32" y="224" type="line"/>
      <point x="32" y="210" type="line" smooth="yes"/>
      <point x="32" y="110"/>
      <point x="82" y="0"/>
      <point x="205" y="0" type="curve" smooth="yes"/>
      <point x="266" y="0"/>
      <point x="313" y="36"/>
      <point x="348" y="78" type="curve"/>
      <point x="383" y="34"/>
      <point x="431" y="0"/>
      <point x="490" y="0" type="curve" smooth="yes"/>
      <point x="610" y="0"/>
      <point x="687" y="107"/>
    </contour>
    <contour>
      <point x="579" y="237" type="curve" smooth="yes"/>
      <point x="579" y="87"/>
      <point x="545" y="26"/>
      <point x="490" y="26" type="curve" smooth="yes"/>
      <point x="435" y="26"/>
      <point x="401" y="87"/>
      <point x="401" y="237" type="curve" smooth="yes"/>
      <point x="401" y="387"/>
      <point x="435" y="448"/>
      <point x="490" y="448" type="curve" smooth="yes"/>
      <point x="545" y="448"/>
      <point x="579" y="387"/>
    </contour>
    <contour>
      <point x="135" y="150" type="curve" smooth="yes"/>
      <point x="135" y="187"/>
      <point x="151" y="195"/>
      <point x="184" y="195" type="curve" smooth="yes"/>
      <point x="303" y="195" type="line"/>
      <point x="295" y="76"/>
      <point x="254" y="26"/>
      <point x="205" y="26" type="curve" smooth="yes"/>
      <point x="160" y="26"/>
      <point x="135" y="82"/>
    </contour>
  </outline>
</glyph>
<glyph name="Psmall" format="2">
  <advance width="427"/>
  <unicode hex="1D18"/>
  <outline>
    <contour>
      <point x="164" y="55" type="curve" smooth="yes"/>
      <point x="164" y="213" type="line"/>
      <point x="226" y="213" type="line" smooth="yes"/>
      <point x="342" y="213"/>
      <point x="405" y="257"/>
      <point x="405" y="327" type="curve" smooth="yes"/>
      <point x="405" y="400"/>
      <point x="342" y="442"/>
      <point x="226" y="442" type="curve" smooth="yes"/>
      <point x="22" y="442" type="line"/>
      <point x="22" y="419" type="line"/>
      <point x="51" y="419" type="line" smooth="yes"/>
      <point x="83" y="419"/>
      <point x="88" y="417"/>
      <point x="88" y="387" type="curve" smooth="yes"/>
      <point x="88" y="55" type="line" smooth="yes"/>
      <point x="88" y="26"/>
      <point x="83" y="23"/>
      <point x="51" y="23" type="curve" smooth="yes"/>
      <point x="22" y="23" type="line"/>
      <point x="22" y="0" type="line"/>
      <point x="243" y="0" type="line"/>
      <point x="243" y="23" type="line"/>
      <point x="200" y="23" type="line" smooth="yes"/>
      <point x="167" y="23"/>
      <point x="164" y="26"/>
    </contour>
    <contour>
      <point x="164" y="236" type="line"/>
      <point x="164" y="393" type="line" smooth="yes"/>
      <point x="164" y="414"/>
      <point x="198" y="418"/>
      <point x="213" y="418" type="curve" smooth="yes"/>
      <point x="218" y="418" type="line" smooth="yes"/>
      <point x="269" y="418"/>
      <point x="310" y="393"/>
      <point x="310" y="327" type="curve" smooth="yes"/>
      <point x="310" y="263"/>
      <point x="269" y="236"/>
      <point x="218" y="236" type="curve" smooth="yes"/>
    </contour>
  </outline>
</glyph>
<glyph name="Rsmallreversed" format="2">
  <advance width="496"/>
  <unicode hex="1D19"/>
  <anchor x="266" y="475" name="t.asciicircum_1"/>
  <anchor x="266" y="488" name="t.dieresis"/>
  <outline>
    <contour>
      <point x="332" y="55" type="line" smooth="yes"/>
      <point x="332" y="26"/>
      <point x="329" y="23"/>
      <point x="296" y="23" type="curve" smooth="yes"/>
      <point x="260" y="23" type="line"/>
      <point x="260" y="0" type="line"/>
      <point x="474" y="0" type="line"/>
      <point x="474" y="23" type="line"/>
      <point x="445" y="23" type="line" smooth="yes"/>
      <point x="413" y="23"/>
      <point x="408" y="26"/>
      <point x="408" y="55" type="curve" smooth="yes"/>
      <point x="408" y="387" type="line" smooth="yes"/>
      <point x="408" y="417"/>
      <point x="413" y="419"/>
      <point x="445" y="419" type="curve" smooth="yes"/>
      <point x="474" y="419" type="line"/>
      <point x="474" y="442" type="line"/>
      <point x="270" y="442" type="line" smooth="yes"/>
      <point x="154" y="442"/>
      <point x="91" y="402"/>
      <point x="91" y="334" type="curve" smooth="yes"/>
      <point x="91" y="286"/>
      <point x="126" y="247"/>
      <point x="198" y="238" type="curve"/>
      <point x="198" y="231" type="line"/>
      <point x="142" y="218"/>
      <point x="109" y="166"/>
      <point x="102" y="111" type="curve" smooth="yes"/>
      <point x="99" y="82"/>
      <point x="95" y="35"/>
      <point x="64" y="35" type="curve" smooth="yes"/>
      <point x="39" y="35"/>
      <point x="31" y="74"/>
      <point x="31" y="111" type="curve"/>
      <point x="9" y="111" type="line"/>
      <point x="8" y="103"/>
      <point x="7" y="94"/>
      <point x="7" y="86" type="curve" smooth="yes"/>
      <point x="7" y="30"/>
      <point x="36" y="-8" name="hr01"/>
      <point x="91" y="-8" type="curve" smooth="yes"/>
      <point x="155" y="-8"/>
      <point x="185" y="35"/>
      <point x="189" y="115" type="curve" smooth="yes"/>
      <point x="193" y="172"/>
      <point x="221" y="226"/>
      <point x="274" y="226" type="curve" smooth="yes"/>
      <point x="332" y="226" type="line"/>
    </contour>
    <contour>
      <point x="278" y="249" type="line" smooth="yes"/>
      <point x="219" y="249"/>
      <point x="178" y="272"/>
      <point x="178" y="334" type="curve" smooth="yes"/>
      <point x="178" y="396"/>
      <point x="219" y="418"/>
      <point x="278" y="418" type="curve" smooth="yes"/>
      <point x="283" y="418" type="line" smooth="yes"/>
      <point x="298" y="418"/>
      <point x="332" y="414"/>
      <point x="332" y="393" type="curve" smooth="yes"/>
      <point x="332" y="249" type="line"/>
    </contour>
  </outline>
</glyph>
<glyph name="Rsmallturned" format="2">
  <advance width="496"/>
  <unicode hex="1D1A"/>
  <anchor x="266" y="-33" name="t.asciicircum_1"/>
  <anchor x="266" y="-46" name="t.dieresis"/>
  <outline>
    <contour>
      <point x="332" y="387" type="curve" smooth="yes"/>
      <point x="332" y="216" type="line"/>
      <point x="274" y="216" type="line" smooth="yes"/>
      <point x="221" y="216"/>
      <point x="193" y="270"/>
      <point x="189" y="327" type="curve" smooth="yes"/>
      <point x="185" y="407"/>
      <point x="155" y="450"/>
      <point x="91" y="450" type="curve" smooth="yes"/>
      <point x="36" y="450"/>
      <point x="7" y="412"/>
      <point x="7" y="356" type="curve" smooth="yes"/>
      <point x="7" y="348"/>
      <point x="8" y="339"/>
      <point x="9" y="331" type="curve"/>
      <point x="31" y="331" type="line"/>
      <point x="31" y="368"/>
      <point x="39" y="407"/>
      <point x="64" y="407" type="curve" smooth="yes"/>
      <point x="95" y="407"/>
      <point x="99" y="360"/>
      <point x="102" y="331" type="curve" smooth="yes"/>
      <point x="109" y="276"/>
      <point x="142" y="224"/>
      <point x="198" y="211" type="curve"/>
      <point x="198" y="204" type="line"/>
      <point x="126" y="195"/>
      <point x="91" y="156"/>
      <point x="91" y="108" type="curve" smooth="yes"/>
      <point x="91" y="40"/>
      <point x="154" y="0"/>
      <point x="270" y="0" type="curve" smooth="yes"/>
      <point x="474" y="0" type="line"/>
      <point x="474" y="23" type="line"/>
      <point x="445" y="23" type="line" smooth="yes"/>
      <point x="413" y="23"/>
      <point x="408" y="25"/>
      <point x="408" y="55" type="curve" smooth="yes"/>
      <point x="408" y="387" type="line" smooth="yes"/>
      <point x="408" y="416"/>
      <point x="413" y="419"/>
      <point x="445" y="419" type="curve" smooth="yes"/>
      <point x="474" y="419" type="line"/>
      <point x="474" y="442" type="line"/>
      <point x="260" y="442" type="line"/>
      <point x="260" y="419" type="line"/>
      <point x="296" y="419" type="line" smooth="yes"/>
      <point x="329" y="419"/>
      <point x="332" y="416"/>
    </contour>
    <contour>
      <point x="278" y="193" type="curve" smooth="yes"/>
      <point x="332" y="193" type="line"/>
      <point x="332" y="49" type="line" smooth="yes"/>
      <point x="332" y="28"/>
      <point x="298" y="24"/>
      <point x="283" y="24" type="curve" smooth="yes"/>
      <point x="278" y="24" type="line" smooth="yes"/>
      <point x="219" y="24"/>
      <point x="178" y="46"/>
      <point x="178" y="108" type="curve" smooth="yes"/>
      <point x="178" y="170"/>
      <point x="219" y="193"/>
    </contour>
  </outline>
</glyph>
<glyph name="Tsmall" format="2">
  <advance width="463"/>
  <unicode hex="1D1B"/>
  <outline>
    <contour>
      <point x="153" y="418" type="curve" smooth="yes"/>
      <point x="179" y="418"/>
      <point x="191" y="414"/>
      <point x="191" y="393" type="curve"/>
      <point x="192" y="55" type="line"/>
      <point x="192" y="33"/>
      <point x="181" y="23"/>
      <point x="156" y="23" type="curve" smooth="yes"/>
      <point x="127" y="23" type="line"/>
      <point x="127" y="0" type="line"/>
      <point x="338" y="0" type="line"/>
      <point x="338" y="23" type="line"/>
      <point x="309" y="23" type="line" smooth="yes"/>
      <point x="284" y="23"/>
      <point x="272" y="33"/>
      <point x="272" y="55" type="curve" smooth="yes"/>
      <point x="272" y="393" type="line" smooth="yes"/>
      <point x="272" y="414"/>
      <point x="287" y="418"/>
      <point x="311" y="418" type="curve" smooth="yes"/>
      <point x="366" y="418"/>
      <point x="393" y="363"/>
      <point x="414" y="280" type="curve" name="hr01"/>
      <point x="435" y="280" type="line"/>
      <point x="431" y="442" type="line"/>
      <point x="33" y="442" type="line"/>
      <point x="28" y="280" type="line"/>
      <point x="50" y="280" type="line"/>
      <point x="71" y="363"/>
      <point x="97" y="418" name="hr02"/>
    </contour>
  </outline>
</glyph>
<glyph name="Usmall" format="2">
  <advance width="492"/>
  <unicode hex="1D1C"/>
  <anchor x="260" y="475" name="t.asciicircum_1"/>
  <anchor x="260" y="488" name="t.dieresis"/>
  <outline>
    <contour>
      <point x="405" y="387" type="line" smooth="yes"/>
      <point x="405" y="417"/>
      <point x="409" y="419"/>
      <point x="441" y="419" type="curve" smooth="yes"/>
      <point x="478" y="419" type="line"/>
      <point x="478" y="442" type="line"/>
      <point x="303" y="442" type="line"/>
      <point x="303" y="419" type="line"/>
      <point x="339" y="419" type="line" smooth="yes"/>
      <point x="371" y="419"/>
      <point x="375" y="417"/>
      <point x="375" y="387" type="curve" smooth="yes"/>
      <point x="375" y="179" type="line" smooth="yes"/>
      <point x="375" y="100"/>
      <point x="356" y="20"/>
      <point x="257" y="20" type="curve" smooth="yes"/>
      <point x="177" y="20"/>
      <point x="163" y="83"/>
      <point x="163" y="188" type="curve" smooth="yes"/>
      <point x="163" y="387" type="line" smooth="yes"/>
      <point x="163" y="417"/>
      <point x="167" y="419"/>
      <point x="199" y="419" type="curve" smooth="yes"/>
      <point x="228" y="419" type="line"/>
      <point x="228" y="442" type="line"/>
      <point x="14" y="442" type="line"/>
      <point x="14" y="419" type="line"/>
      <point x="43" y="419" type="line" smooth="yes"/>
      <point x="77" y="419"/>
      <point x="81" y="417"/>
      <point x="81" y="387" type="curve" smooth="yes"/>
      <point x="81" y="175" type="line" smooth="yes"/>
      <point x="81" y="45"/>
      <point x="139" y="-8"/>
      <point x="241" y="-8" type="curve" smooth="yes"/>
      <point x="376" y="-8"/>
      <point x="404" y="77"/>
      <point x="404" y="167" type="curve"/>
    </contour>
  </outline>
</glyph>
<glyph name="Vsmall" format="2">
  <advance width="524"/>
  <unicode hex="1D20"/>
  <anchor x="270" y="468" name="t.asciicircum_1"/>
  <anchor x="270" y="488" name="t.dieresis"/>
  <outline>
    <contour>
      <point x="277" y="90" type="line"/>
      <point x="168" y="371" type="line" smooth="yes"/>
      <point x="152" y="414"/>
      <point x="156" y="419"/>
      <point x="193" y="419" type="curve" smooth="yes"/>
      <point x="222" y="419" type="line"/>
      <point x="222" y="442" type="line"/>
      <point x="14" y="442" type="line"/>
      <point x="14" y="419" type="line"/>
      <point x="24" y="419" type="line" smooth="yes"/>
      <point x="57" y="419"/>
      <point x="65" y="417"/>
      <point x="83" y="373" type="curve" smooth="yes"/>
      <point x="235" y="-8" type="line"/>
      <point x="262" y="-8" type="line"/>
      <point x="425" y="366" type="line" smooth="yes"/>
      <point x="445" y="415"/>
      <point x="461" y="419"/>
      <point x="498" y="419" type="curve" smooth="yes"/>
      <point x="507" y="419" type="line"/>
      <point x="507" y="442" type="line"/>
      <point x="334" y="442" type="line"/>
      <point x="334" y="419" type="line"/>
      <point x="354" y="419" type="line" smooth="yes"/>
      <point x="409" y="419"/>
      <point x="414" y="412"/>
      <point x="394" y="366" type="curve" smooth="yes"/>
    </contour>
  </outline>
</glyph>
<glyph name="Wsmall" format="2">
  <advance width="641"/>
  <unicode hex="1D21"/>
  <anchor x="323" y="484" name="t.asciicircum_1"/>
  <anchor x="323" y="496" name="t.dieresis"/>
  <outline>
    <contour>
      <point x="-14" y="419" type="line"/>
      <point x="9" y="419" type="line" smooth="yes"/>
      <point x="44" y="419"/>
      <point x="44" y="418"/>
      <point x="59" y="375" type="curve" smooth="yes"/>
      <point x="195" y="-8" type="line"/>
      <point x="211" y="-8" type="line"/>
      <point x="320" y="273" type="line"/>
      <point x="420" y="-8" type="line"/>
      <point x="436" y="-8" type="line"/>
      <point x="437" y="-9" type="line"/>
      <point x="569" y="371" type="line" smooth="yes"/>
      <point x="584" y="414"/>
      <point x="598" y="419"/>
      <point x="626" y="419" type="curve" smooth="yes"/>
      <point x="647" y="419" type="line"/>
      <point x="647" y="442" type="line"/>
      <point x="464" y="442" type="line"/>
      <point x="464" y="419" type="line"/>
      <point x="502" y="419" type="line" smooth="yes"/>
      <point x="546" y="419"/>
      <point x="552" y="414"/>
      <point x="537" y="371" type="curve" smooth="yes"/>
      <point x="452" y="127" type="line"/>
      <point x="366" y="383" type="line" smooth="yes"/>
      <point x="356" y="410"/>
      <point x="359" y="419"/>
      <point x="395" y="419" type="curve" smooth="yes"/>
      <point x="419" y="419" type="line"/>
      <point x="419" y="442" type="line"/>
      <point x="235" y="442" type="line"/>
      <point x="235" y="419" type="line"/>
      <point x="247" y="419" type="line" smooth="yes"/>
      <point x="264" y="419"/>
      <point x="269" y="417"/>
      <point x="275" y="401" type="curve" smooth="yes"/>
      <point x="306" y="315" type="line"/>
      <point x="229" y="119" type="line"/>
      <point x="139" y="383" type="line" smooth="yes"/>
      <point x="128" y="415"/>
      <point x="134" y="419"/>
      <point x="167" y="419" type="curve" smooth="yes"/>
      <point x="194" y="419" type="line"/>
      <point x="194" y="442" type="line"/>
      <point x="-14" y="442" type="line"/>
    </contour>
  </outline>
</glyph>
<glyph name="Zsmall" format="2">
  <advance width="462"/>
  <unicode hex="1D22"/>
  <anchor x="238" y="492" name="t.asciicircum_1"/>
  <anchor x="238" y="505" name="t.dieresis"/>
  <outline>
    <contour>
      <point x="412" y="0" type="line"/>
      <point x="417" y="172" type="line"/>
      <point x="396" y="172" type="line"/>
      <point x="375" y="93"/>
      <point x="327" y="24"/>
      <point x="241" y="24" type="curve" smooth="yes"/>
      <point x="164" y="24" type="line" smooth="yes"/>
      <point x="147" y="24"/>
      <point x="144" y="31"/>
      <point x="153" y="46" type="curve" smooth="yes"/>
      <point x="397" y="429" type="line"/>
      <point x="397" y="442" type="line"/>
      <point x="68" y="442" type="line"/>
      <point x="62" y="281" type="line"/>
      <point x="83" y="281" type="line"/>
      <point x="110" y="371"/>
      <point x="140" y="418"/>
      <point x="227" y="418" type="curve" smooth="yes"/>
      <point x="269" y="418" type="line" smooth="yes"/>
      <point x="283" y="418"/>
      <point x="299" y="415"/>
      <point x="288" y="397" type="curve"/>
      <point x="43" y="13" type="line"/>
      <point x="43" y="0" type="line"/>
    </contour>
  </outline>
</glyph>
<glyph name="quotesinglbase" format="2">
  <advance width="285"/>
  <unicode hex="201A"/>
  <outline>
    <contour>
      <point x="163" y="58" type="curve" smooth="yes"/>
      <point x="193" y="58"/>
      <point x="206" y="51"/>
      <point x="206" y="23" type="curve" smooth="yes"/>
      <point x="206" y="-28"/>
      <point x="149" y="-76"/>
      <point x="85" y="-91" type="curve"/>
      <point x="91" y="-116" type="line"/>
      <point x="165" y="-102"/>
      <point x="246" y="-50"/>
      <point x="246" y="66" type="curve" smooth="yes"/>
      <point x="246" y="142"/>
      <point x="214" y="179"/>
      <point x="162" y="179" type="curve" smooth="yes"/>
      <point x="126" y="179"/>
      <point x="102" y="149" name="hr01"/>
      <point x="102" y="119" type="curve" smooth="yes"/>
      <point x="102" y="88"/>
      <point x="126" y="58"/>
    </contour>
  </outline>
</glyph>
<glyph name="quotereversed" format="2">
  <advance width="335"/>
  <unicode hex="201B"/>
  <outline>
    <contour>
      <point x="173" y="580" type="curve" smooth="yes"/>
      <point x="138" y="580"/>
      <point x="122" y="571"/>
      <point x="122" y="538" type="curve" smooth="yes"/>
      <point x="122" y="478"/>
      <point x="189" y="422"/>
      <point x="265" y="404" type="curve"/>
      <point x="257" y="375" type="line"/>
      <point x="171" y="391"/>
      <point x="75" y="453"/>
      <point x="75" y="589" type="curve" smooth="yes"/>
      <point x="75" y="679"/>
      <point x="113" y="722"/>
      <point x="174" y="722" type="curve" smooth="yes"/>
      <point x="216" y="722"/>
      <point x="245" y="687" name="hr01"/>
      <point x="245" y="651" type="curve" smooth="yes"/>
      <point x="245" y="615"/>
      <point x="216" y="580"/>
    </contour>
  </outline>
</glyph>
<glyph name="quotedblright" format="2">
  <advance width="392"/>
  <unicode hex="201D"/>
  <outline>
    <contour>
      <point x="296" y="601" type="curve" smooth="yes"/>
      <point x="326" y="601"/>
      <point x="340" y="594"/>
      <point x="340" y="566" type="curve" smooth="yes"/>
      <point x="340" y="515"/>
      <point x="283" y="467"/>
      <point x="218" y="452" type="curve"/>
      <point x="225" y="427" type="line"/>
      <point x="298" y="441"/>
      <point x="379" y="493"/>
      <point x="379" y="609" type="curve" smooth="yes"/>
      <point x="379" y="685"/>
      <point x="347" y="722"/>
      <point x="295" y="722" type="curve" smooth="yes"/>
      <point x="260" y="722"/>
      <point x="235" y="692" name="hr01"/>
      <point x="235" y="662" type="curve" smooth="yes"/>
      <point x="235" y="631"/>
      <point x="260" y="601"/>
    </contour>
    <contour>
      <point x="101" y="601" type="curve" smooth="yes"/>
      <point x="130" y="601"/>
      <point x="144" y="594"/>
      <point x="144" y="566" type="curve" smooth="yes"/>
      <point x="144" y="515"/>
      <point x="87" y="467"/>
      <point x="22" y="452" type="curve"/>
      <point x="29" y="427" type="line"/>
      <point x="102" y="441"/>
      <point x="184" y="493"/>
      <point x="184" y="609" type="curve" smooth="yes"/>
      <point x="184" y="685"/>
      <point x="152" y="722"/>
      <point x="100" y="722" type="curve" smooth="yes"/>
      <point x="64" y="722"/>
      <point x="39" y="692"/>
      <point x="39" y="662" type="curve" smooth="yes"/>
      <point x="39" y="631"/>
      <point x="64" y="601"/>
    </contour>
  </outline>
</glyph>
<glyph name="guilsinglleft" format="2">
  <advance width="396"/>
  <unicode hex="2039"/>
  <outline>
    <contour>
      <point x="180" y="220" type="curve"/>
      <point x="220" y="276"/>
      <point x="290" y="383"/>
      <point x="316" y="428" type="curve"/>
      <point x="296" y="437" type="line"/>
      <point x="246" y="376"/>
      <point x="155" y="290"/>
      <point x="77" y="232" type="curve" smooth="yes"/>
      <point x="70" y="227"/>
      <point x="67" y="223"/>
      <point x="67" y="220" type="curve" smooth="yes"/>
      <point x="67" y="217"/>
      <point x="70" y="214"/>
      <point x="75" y="210" type="curve" smooth="yes"/>
      <point x="154" y="151"/>
      <point x="246" y="64"/>
      <point x="296" y="3" type="curve"/>
      <point x="316" y="12" type="line"/>
      <point x="290" y="57"/>
      <point x="220" y="164"/>
    </contour>
  </outline>
</glyph>
<glyph name="A.alt" format="2">
  <advance width="681"/>
  <unicode hex="E868"/>
  <anchor x="360" y="720" name="t.asciicircum_1"/>
  <anchor x="360" y="750" name="t.dieresis"/>
  <outline>
    <contour>
      <point x="240" y="35" type="line"/>
      <point x="199" y="35" type="line" smooth="yes"/>
      <point x="146" y="35"/>
      <point x="128" y="40"/>
      <point x="151" y="101" type="curve" smooth="yes"/>
      <point x="195" y="217" type="line"/>
      <point x="431" y="217" type="line"/>
      <point x="468" y="110" type="line" smooth="yes"/>
      <point x="491" y="44"/>
      <point x="476" y="35"/>
      <point x="428" y="35" type="curve" smooth="yes"/>
      <point x="395" y="35" type="line"/>
      <point x="395" y="0" type="line"/>
      <point x="691" y="0" type="line"/>
      <point x="691" y="35" type="line"/>
      <point x="667" y="35" type="line" smooth="yes"/>
      <point x="619" y="35"/>
      <point x="610" y="37"/>
      <point x="585" y="106" type="curve" smooth="yes"/>
      <point x="376" y="692" type="line"/>
      <point x="339" y="692" type="line"/>
      <point x="107" y="96" type="line" smooth="yes"/>
      <point x="84" y="37"/>
      <point x="70" y="35"/>
      <point x="22" y="35" type="curve" smooth="yes"/>
      <point x="-10" y="35" type="line"/>
      <point x="-10" y="0" type="line"/>
      <point x="240" y="0" type="line"/>
    </contour>
    <contour>
      <point x="209" y="252" type="line"/>
      <point x="319" y="541" type="line"/>
      <point x="419" y="252" type="line"/>
    </contour>
  </outline>
</glyph>
<glyph name="fi" format="2">
  <advance width="561"/>
  <unicode hex="FB01"/>
  <outline>
    <contour>
      <point x="385" y="643" type="curve" smooth="yes"/>
      <point x="385" y="625"/>
      <point x="359" y="611" name="hr01"/>
      <point x="359" y="583" type="curve" smooth="yes"/>
      <point x="359" y="547"/>
      <point x="389" y="527"/>
      <point x="414" y="527" type="curve" smooth="yes"/>
      <point x="451" y="527"/>
      <point x="467" y="555"/>
      <point x="467" y="583" type="curve" smooth="yes"/>
      <point x="467" y="668"/>
      <point x="371" y="710"/>
      <point x="297" y="710" type="curve" smooth="yes"/>
      <point x="179" y="710"/>
      <point x="99" y="626"/>
      <point x="99" y="510" type="curve" smooth="yes"/>
      <point x="99" y="450" type="line"/>
      <point x="15" y="450" type="line"/>
      <point x="15" y="415" type="line"/>
      <point x="99" y="415" type="line"/>
      <point x="99" y="85" type="line" smooth="yes"/>
      <point x="99" y="40"/>
      <point x="94" y="35"/>
      <point x="49" y="35" type="curve" smooth="yes"/>
      <point x="19" y="35" type="line"/>
      <point x="19" y="0" type="line"/>
      <point x="264" y="0" type="line"/>
      <point x="264" y="35" type="line"/>
      <point x="239" y="35" type="line" smooth="yes"/>
      <point x="194" y="35"/>
      <point x="189" y="40"/>
      <point x="189" y="85" type="curve" smooth="yes"/>
      <point x="189" y="415" type="line"/>
      <point x="329" y="415" type="line" smooth="yes"/>
      <point x="374" y="415"/>
      <point x="379" y="410" name="hr02"/>
      <point x="379" y="365" type="curve" smooth="yes"/>
      <point x="379" y="85" type="line" smooth="yes"/>
      <point x="379" y="45"/>
      <point x="369" y="35"/>
      <point x="329" y="35" type="curve" smooth="yes"/>
      <point x="309" y="35" type="line"/>
      <point x="309" y="0" type="line"/>
      <point x="549" y="0" type="line"/>
      <point x="549" y="35" type="line"/>
      <point x="519" y="35" type="line" smooth="yes"/>
      <point x="474" y="35"/>
      <point x="469" y="40"/>
      <point x="469" y="85" type="curve" smooth="yes"/>
      <point x="469" y="450" type="line"/>
      <point x="189" y="450" type="line"/>
      <point x="189" y="545" type="line" smooth="yes"/>
      <point x="189" y="634"/>
      <point x="233" y="681"/>
      <point x="303" y="681" type="curve" smooth="yes"/>
      <point x="350" y="681"/>
      <point x="385" y="662" name="hr03"/>
    </contour>
  </outline>
</glyph>
<glyph name="b.smcp" format="2">
  <advance width="545"/>
  <outline>
    <contour>
      <point x="26" y="520" type="line"/>
      <point x="26" y="493" type="line"/>
      <point x="60" y="493" type="line" smooth="yes"/>
      <point x="98" y="493"/>
      <point x="103" y="490"/>
      <point x="103" y="455" type="curve" smooth="yes"/>
      <point x="103" y="65" type="line" smooth="yes"/>
      <point x="103" y="31"/>
      <point x="98" y="27"/>
      <point x="60" y="27" type="curve" smooth="yes"/>
      <point x="26" y="27" type="line"/>
      <point x="26" y="0" type="line"/>
      <point x="275" y="0" type="line" smooth="yes"/>
      <point x="420" y="0"/>
      <point x="511" y="50"/>
      <point x="511" y="146" type="curve" smooth="yes"/>
      <point x="511" y="210"/>
      <point x="458" y="266"/>
      <point x="366" y="277" type="curve"/>
      <point x="366" y="288" type="line"/>
      <point x="445" y="303"/>
      <point x="473" y="346" name="hr01"/>
      <point x="473" y="393" type="curve" smooth="yes"/>
      <point x="473" y="473"/>
      <point x="403" y="520"/>
      <point x="266" y="520" type="curve" smooth="yes"/>
    </contour>
    <contour>
      <point x="257" y="28" type="line" smooth="yes"/>
      <point x="239" y="28"/>
      <point x="194" y="33"/>
      <point x="194" y="59" type="curve" smooth="yes"/>
      <point x="194" y="266" type="line"/>
      <point x="266" y="266" type="line" smooth="yes"/>
      <point x="350" y="266"/>
      <point x="406" y="230" name="hr02"/>
      <point x="406" y="146" type="curve" smooth="yes"/>
      <point x="406" y="61"/>
      <point x="350" y="28"/>
      <point x="266" y="28" type="curve" smooth="yes"/>
    </contour>
    <contour>
      <point x="258" y="293" type="curve" smooth="yes"/>
      <point x="194" y="293" type="line"/>
      <point x="194" y="462" type="line" smooth="yes"/>
      <point x="194" y="487"/>
      <point x="234" y="492"/>
      <point x="252" y="492" type="curve" smooth="yes"/>
      <point x="258" y="492" type="line" smooth="yes"/>
      <point x="324" y="492"/>
      <point x="368" y="466" name="hr03"/>
      <point x="368" y="393" type="curve" smooth="yes"/>
      <point x="368" y="320"/>
      <point x="324" y="293"/>
    </contour>
  </outline>
</glyph>
<glyph name="c.smcp" format="2">
  <advance width="511"/>
  <anchor x="276" y="559" name="t.asciicircum_1"/>
  <anchor x="276" y="574" name="t.dieresis"/>
  <outline>
    <contour>
      <point x="477" y="164" type="curve"/>
      <point x="445" y="164" type="line"/>
      <point x="430" y="78"/>
      <point x="366" y="23"/>
      <point x="281" y="23" type="curve" smooth="yes"/>
      <point x="206" y="23"/>
      <point x="147" y="69"/>
      <point x="147" y="260" type="curve" smooth="yes"/>
      <point x="147" y="452"/>
      <point x="201" y="502"/>
      <point x="276" y="502" type="curve" smooth="yes"/>
      <point x="343" y="502"/>
      <point x="413" y="466"/>
      <point x="437" y="334" type="curve"/>
      <point x="471" y="334" type="line"/>
      <point x="471" y="529" type="line"/>
      <point x="440" y="529" type="line"/>
      <point x="434" y="518" type="line" smooth="yes"/>
      <point x="417" y="492"/>
      <point x="406" y="491"/>
      <point x="368" y="508" type="curve" smooth="yes"/>
      <point x="346" y="518"/>
      <point x="321" y="529"/>
      <point x="276" y="529" type="curve" smooth="yes"/>
      <point x="125" y="529"/>
      <point x="34" y="410"/>
      <point x="34" y="260" type="curve" smooth="yes"/>
      <point x="34" y="93"/>
      <point x="140" y="-9"/>
      <point x="276" y="-9" type="curve" smooth="yes"/>
      <point x="374" y="-9"/>
      <point x="462" y="48"/>
    </contour>
  </outline>
</glyph>
<glyph name="d.smcp" format="2">
  <advance width="573"/>
  <anchor x="276" y="559" name="t.asciicircum_1"/>
  <anchor x="276" y="574" name="t.dieresis"/>
  <outline>
    <contour>
      <point x="26" y="520" type="line"/>
      <point x="26" y="493" type="line"/>
      <point x="60" y="493" type="line" smooth="yes"/>
      <point x="98" y="493"/>
      <point x="103" y="490"/>
      <point x="103" y="455" type="curve" smooth="yes"/>
      <point x="103" y="65" type="line" smooth="yes"/>
      <point x="103" y="31"/>
      <point x="98" y="27"/>
      <point x="60" y="27" type="curve" smooth="yes"/>
      <point x="26" y="27" type="line"/>
      <point x="26" y="0" type="line"/>
      <point x="266" y="0" type="line" smooth="yes"/>
      <point x="454" y="0"/>
      <point x="539" y="122"/>
      <point x="539" y="260" type="curve" smooth="yes"/>
      <point x="539" y="398"/>
      <point x="454" y="520"/>
      <point x="266" y="520" type="curve" smooth="yes"/>
    </contour>
    <contour>
      <point x="257" y="28" type="curve" smooth="yes"/>
      <point x="251" y="28" type="line" smooth="yes"/>
      <point x="233" y="28"/>
      <point x="193" y="33"/>
      <point x="193" y="59" type="curve" smooth="yes"/>
      <point x="193" y="462" type="line" smooth="yes"/>
      <point x="193" y="487"/>
      <point x="234" y="492"/>
      <point x="251" y="492" type="curve" smooth="yes"/>
      <point x="257" y="492" type="line" smooth="yes"/>
      <point x="377" y="492"/>
      <point x="428" y="428"/>
      <point x="428" y="260" type="curve" smooth="yes"/>
      <point x="428" y="92"/>
      <point x="377" y="28"/>
    </contour>
  </outline>
</glyph>
<glyph name="dotaccent.smcp" format="2">
  <advance width="330"/>
  <anchor x="164" y="478" name="_t.asciicircum_1"/>
  <outline>
    <contour>
      <point x="106" y="616" type="curve" smooth="yes"/>
      <point x="106" y="584"/>
      <point x="132" y="558"/>
      <point x="164" y="558" type="curve" smooth="yes"/>
      <point x="196" y="558"/>
      <point x="222" y="584"/>
      <point x="222" y="616" type="curve" smooth="yes"/>
      <point x="222" y="648"/>
      <point x="196" y="674"/>
      <point x="164" y="674" type="curve" smooth="yes"/>
      <point x="132" y="674"/>
      <point x="106" y="648"/>
    </contour>
  </outline>
</glyph>
<glyph name="e.smcp" format="2">
  <advance width="544"/>
  <anchor x="290" y="559" name="t.asciicircum_1"/>
  <anchor x="290" y="574" name="t.dieresis"/>
  <outline>
    <contour>
      <point x="26" y="520" type="line"/>
      <point x="26" y="493" type="line"/>
      <point x="60" y="493" type="line" smooth="yes"/>
      <point x="98" y="493"/>
      <point x="103" y="490"/>
      <point x="103" y="455" type="curve" smooth="yes"/>
      <point x="103" y="65" type="line" smooth="yes"/>
      <point x="103" y="31"/>
      <point x="98" y="27"/>
      <point x="60" y="27" type="curve" smooth="yes"/>
      <point x="26" y="27" type="line"/>
      <point x="26" y="0" type="line"/>
      <point x="497" y="0" type="line"/>
      <point x="501" y="214" type="line"/>
      <point x="475" y="214" type="line"/>
      <point x="456" y="122"/>
      <point x="441" y="28"/>
      <point x="300" y="28" type="curve" smooth="yes"/>
      <point x="236" y="28" type="line" smooth="yes"/>
      <point x="214" y="28"/>
      <point x="193" y="42"/>
      <point x="193" y="60" type="curve" smooth="yes"/>
      <point x="193" y="250" type="line"/>
      <point x="247" y="250" type="line" smooth="yes"/>
      <point x="294" y="250"/>
      <point x="324" y="203"/>
      <point x="331" y="134" type="curve"/>
      <point x="361" y="134" type="line"/>
      <point x="361" y="392" type="line"/>
      <point x="331" y="392" type="line"/>
      <point x="324" y="323"/>
      <point x="298" y="277"/>
      <point x="247" y="277" type="curve" smooth="yes"/>
      <point x="193" y="277" type="line"/>
      <point x="193" y="462" type="line" smooth="yes"/>
      <point x="193" y="481"/>
      <point x="222" y="492"/>
      <point x="248" y="492" type="curve" smooth="yes"/>
      <point x="302" y="492" type="line" smooth="yes"/>
      <point x="392" y="492"/>
      <point x="437" y="437"/>
      <point x="461" y="340" type="curve"/>
      <point x="487" y="340" type="line"/>
      <point x="482" y="520" type="line"/>
    </contour>
  </outline>
</glyph>
<glyph name="eta.1" format="2">
  <advance width="555"/>
  <anchor x="268" y="520" name="t.asciicircum_1"/>
  <outline>
    <contour>
      <point x="192" y="358" type="curve"/>
      <point x="192" y="358"/>
      <point x="191" y="355"/>
      <point x="187" y="355" type="curve" smooth="yes"/>
      <point x="182" y="355" name="hr01"/>
      <point x="182" y="358"/>
      <point x="182" y="358" type="curve"/>
      <point x="182" y="450" type="line"/>
      <point x="22" y="450" type="line"/>
      <point x="22" y="415" type="line"/>
      <point x="52" y="415" type="line" smooth="yes"/>
      <point x="97" y="415"/>
      <point x="102" y="410"/>
      <point x="102" y="365" type="curve" smooth="yes"/>
      <point x="102" y="85" type="line" smooth="yes"/>
      <point x="102" y="45"/>
      <point x="92" y="35"/>
      <point x="52" y="35" type="curve" smooth="yes"/>
      <point x="32" y="35" type="line"/>
      <point x="32" y="0" type="line"/>
      <point x="247" y="0" type="line"/>
      <point x="247" y="35" type="line"/>
      <point x="237" y="35" type="line" smooth="yes"/>
      <point x="192" y="35"/>
      <point x="187" y="40" name="hr02"/>
      <point x="187" y="85" type="curve" smooth="yes"/>
      <point x="187" y="236" type="line" smooth="yes"/>
      <point x="187" y="296"/>
      <point x="227" y="418"/>
      <point x="305" y="418" type="curve" smooth="yes"/>
      <point x="353" y="418"/>
      <point x="383" y="382"/>
      <point x="383" y="275" type="curve" smooth="yes"/>
      <point x="383" y="-70" type="line"/>
      <point x="395" y="-158" type="line"/>
      <point x="485" y="-158" type="line"/>
      <point x="473" y="-70" type="line"/>
      <point x="473" y="279" type="line" smooth="yes"/>
      <point x="473" y="383"/>
      <point x="429" y="462"/>
      <point x="334" y="462" type="curve" smooth="yes"/>
      <point x="264" y="462"/>
      <point x="218" y="416"/>
    </contour>
  </outline>
</glyph>
<glyph name="eth.smcp" format="2">
  <advance width="557"/>
  <outline>
    <contour>
      <point x="32" y="510" type="line"/>
      <point x="32" y="484" type="line"/>
      <point x="66" y="484" type="line" smooth="yes"/>
      <point x="105" y="484"/>
      <point x="109" y="480"/>
      <point x="109" y="446" type="curve" smooth="yes"/>
      <point x="109" y="281" type="line"/>
      <point x="24" y="281" type="line"/>
      <point x="24" y="232" type="line"/>
      <point x="109" y="232" type="line"/>
      <point x="109" y="64" type="line" smooth="yes"/>
      <point x="109" y="30"/>
      <point x="105" y="26"/>
      <point x="66" y="26" type="curve" smooth="yes"/>
      <point x="32" y="26" type="line"/>
      <point x="32" y="0" type="line"/>
      <point x="263" y="0" type="line" smooth="yes"/>
      <point x="445" y="0"/>
      <point x="525" y="120"/>
      <point x="525" y="255" type="curve" smooth="yes"/>
      <point x="525" y="390"/>
      <point x="445" y="510"/>
      <point x="263" y="510" type="curve" smooth="yes"/>
    </contour>
    <contour>
      <point x="254" y="27" type="curve" smooth="yes"/>
      <point x="248" y="27" type="line" smooth="yes"/>
      <point x="230" y="27"/>
      <point x="190" y="33"/>
      <point x="190" y="57" type="curve" smooth="yes"/>
      <point x="190" y="232" type="line"/>
      <point x="275" y="232" type="line"/>
      <point x="275" y="281" type="line"/>
      <point x="190" y="281" type="line"/>
      <point x="190" y="453" type="line" smooth="yes"/>
      <point x="190" y="477"/>
      <point x="231" y="483"/>
      <point x="248" y="483" type="curve" smooth="yes"/>
      <point x="254" y="483" type="line" smooth="yes"/>
      <point x="373" y="483"/>
      <point x="428" y="420"/>
      <point x="428" y="255" type="curve" smooth="yes"/>
      <point x="428" y="90"/>
      <point x="373" y="27"/>
    </contour>
  </outline>
</glyph>
<glyph name="g.smcp" format="2">
  <advance width="575"/>
  <anchor x="276" y="563" name="t.asciicircum_1"/>
  <anchor x="276" y="578" name="t.dieresis"/>
  <outline>
    <contour>
      <point x="482" y="209" type="line" smooth="yes"/>
      <point x="482" y="243"/>
      <point x="486" y="248"/>
      <point x="524" y="248" type="curve" smooth="yes"/>
      <point x="558" y="248" type="line"/>
      <point x="558" y="274" type="line"/>
      <point x="316" y="274" type="line"/>
      <point x="316" y="248" type="line"/>
      <point x="350" y="248" type="line" smooth="yes"/>
      <point x="388" y="248"/>
      <point x="392" y="243"/>
      <point x="392" y="209" type="curve" smooth="yes"/>
      <point x="392" y="144" type="line" smooth="yes"/>
      <point x="392" y="57"/>
      <point x="336" y="21"/>
      <point x="284" y="21" type="curve" smooth="yes"/>
      <point x="203" y="21"/>
      <point x="147" y="69"/>
      <point x="147" y="260" type="curve" smooth="yes"/>
      <point x="147" y="452"/>
      <point x="200" y="502"/>
      <point x="276" y="502" type="curve" smooth="yes"/>
      <point x="343" y="502"/>
      <point x="413" y="466"/>
      <point x="437" y="334" type="curve"/>
      <point x="471" y="334" type="line"/>
      <point x="471" y="529" type="line"/>
      <point x="440" y="529" type="line"/>
      <point x="434" y="518" type="line"/>
      <point x="410" y="489"/>
      <point x="406" y="491"/>
      <point x="368" y="508" type="curve" smooth="yes"/>
      <point x="346" y="519"/>
      <point x="321" y="529"/>
      <point x="276" y="529" type="curve" smooth="yes"/>
      <point x="123" y="529"/>
      <point x="34" y="410"/>
      <point x="34" y="260" type="curve" smooth="yes"/>
      <point x="34" y="112"/>
      <point x="125" y="-9"/>
      <point x="268" y="-9" type="curve" smooth="yes"/>
      <point x="311" y="-9"/>
      <point x="350" y="3"/>
      <point x="383" y="28" type="curve"/>
      <point x="411" y="49"/>
      <point x="425" y="57"/>
      <point x="449" y="5" type="curve" smooth="yes"/>
      <point x="455" y="-9" type="line"/>
      <point x="482" y="-9" type="line"/>
    </contour>
  </outline>
</glyph>
<glyph name="i.smcp" format="2">
  <advance width="351"/>
  <anchor x="177" y="564" name="t.asciicircum_1"/>
  <anchor x="177" y="579" name="t.dieresis"/>
  <outline>
    <contour>
      <point x="223" y="455" type="line" smooth="yes"/>
      <point x="223" y="490"/>
      <point x="228" y="493"/>
      <point x="266" y="493" type="curve" smooth="yes"/>
      <point x="300" y="493" type="line"/>
      <point x="300" y="520" type="line"/>
      <point x="51" y="520" type="line"/>
      <point x="51" y="493" type="line"/>
      <point x="86" y="493" type="line" smooth="yes"/>
      <point x="124" y="493"/>
      <point x="129" y="490"/>
      <point x="129" y="455" type="curve" smooth="yes"/>
      <point x="129" y="65" type="line" smooth="yes"/>
      <point x="129" y="31"/>
      <point x="124" y="27"/>
      <point x="86" y="27" type="curve" smooth="yes"/>
      <point x="51" y="27" type="line"/>
      <point x="51" y="0" type="line"/>
      <point x="300" y="0" type="line"/>
      <point x="300" y="27" type="line"/>
      <point x="266" y="27" type="line" smooth="yes"/>
      <point x="228" y="27"/>
      <point x="223" y="38"/>
      <point x="223" y="65" type="curve" smooth="yes"/>
    </contour>
  </outline>
</glyph>
<glyph name="l.smcp" format="2">
  <advance width="495"/>
  <outline>
    <contour>
      <point x="26" y="0" type="line"/>
      <point x="465" y="0" type="line"/>
      <point x="470" y="214" type="line"/>
      <point x="444" y="214" type="line"/>
      <point x="425" y="122"/>
      <point x="410" y="28"/>
      <point x="267" y="28" type="curve" smooth="yes"/>
      <point x="244" y="28" type="line" smooth="yes"/>
      <point x="220" y="28"/>
      <point x="194" y="41"/>
      <point x="194" y="64" type="curve" smooth="yes"/>
      <point x="194" y="455" type="line" smooth="yes"/>
      <point x="194" y="490"/>
      <point x="197" y="493"/>
      <point x="236" y="493" type="curve" smooth="yes"/>
      <point x="270" y="493" type="line"/>
      <point x="270" y="520" type="line"/>
      <point x="26" y="520" type="line"/>
      <point x="26" y="493" type="line"/>
      <point x="60" y="493" type="line" smooth="yes"/>
      <point x="98" y="493"/>
      <point x="103" y="490"/>
      <point x="103" y="455" type="curve" smooth="yes"/>
      <point x="103" y="65" type="line" smooth="yes"/>
      <point x="103" y="31"/>
      <point x="98" y="27"/>
      <point x="60" y="27" type="curve" smooth="yes"/>
      <point x="26" y="27" type="line"/>
    </contour>
  </outline>
</glyph>
<glyph name="m.smcp" format="2">
  <advance width="677"/>
  <outline>
    <contour>
      <point x="146" y="65" type="curve" smooth="yes"/>
      <point x="146" y="420" type="line" smooth="yes"/>
      <point x="146" y="457"/>
      <point x="162" y="464"/>
      <point x="177" y="421" type="curve" smooth="yes"/>
      <point x="221" y="298" type="line" smooth="yes"/>
      <point x="258" y="188"/>
      <point x="302" y="34"/>
      <point x="308" y="12" type="curve"/>
      <point x="325" y="12" type="line"/>
      <point x="330" y="28"/>
      <point x="376" y="173"/>
      <point x="419" y="282" type="curve" smooth="yes"/>
      <point x="466" y="406" type="line" smooth="yes"/>
      <point x="473" y="426"/>
      <point x="485" y="411"/>
      <point x="485" y="404" type="curve" smooth="yes"/>
      <point x="485" y="65" type="line" smooth="yes"/>
      <point x="485" y="31"/>
      <point x="481" y="27"/>
      <point x="442" y="27" type="curve" smooth="yes"/>
      <point x="408" y="27" type="line"/>
      <point x="408" y="0" type="line"/>
      <point x="652" y="0" type="line"/>
      <point x="652" y="27" type="line"/>
      <point x="617" y="27" type="line" smooth="yes"/>
      <point x="579" y="27"/>
      <point x="574" y="31"/>
      <point x="574" y="65" type="curve" smooth="yes"/>
      <point x="574" y="455" type="line" smooth="yes"/>
      <point x="574" y="490"/>
      <point x="579" y="493"/>
      <point x="617" y="493" type="curve" smooth="yes"/>
      <point x="652" y="493" type="line"/>
      <point x="652" y="520" type="line"/>
      <point x="474" y="520" type="line"/>
      <point x="350" y="202" type="line"/>
      <point x="240" y="520" type="line"/>
      <point x="26" y="520" type="line"/>
      <point x="26" y="493" type="line"/>
      <point x="47" y="493" type="line" smooth="yes"/>
      <point x="95" y="493"/>
      <point x="112" y="489"/>
      <point x="112" y="435" type="curve"/>
      <point x="112" y="65" type="line" smooth="yes"/>
      <point x="112" y="31"/>
      <point x="107" y="27"/>
      <point x="68" y="27" type="curve" smooth="yes"/>
      <point x="26" y="27" type="line"/>
      <point x="26" y="0" type="line"/>
      <point x="231" y="0" type="line"/>
      <point x="231" y="27" type="line"/>
      <point x="189" y="27" type="line" smooth="yes"/>
      <point x="150" y="27"/>
      <point x="146" y="31"/>
    </contour>
  </outline>
</glyph>
<glyph name="o.smcp" format="2">
  <advance width="552"/>
  <anchor x="276" y="559" name="t.asciicircum_1"/>
  <anchor x="276" y="574" name="t.dieresis"/>
  <outline>
    <contour>
      <point x="147" y="260" type="curve" smooth="yes"/>
      <point x="147" y="452"/>
      <point x="199" y="505"/>
      <point x="276" y="505" type="curve" smooth="yes"/>
      <point x="353" y="505"/>
      <point x="404" y="452"/>
      <point x="404" y="260" type="curve" smooth="yes"/>
      <point x="404" y="69"/>
      <point x="353" y="15"/>
      <point x="276" y="15" type="curve" smooth="yes"/>
      <point x="199" y="15"/>
      <point x="147" y="69"/>
    </contour>
    <contour>
      <point x="34" y="260" type="curve" smooth="yes"/>
      <point x="34" y="112"/>
      <point x="122" y="-9"/>
      <point x="276" y="-9" type="curve" smooth="yes"/>
      <point x="430" y="-9"/>
      <point x="518" y="112"/>
      <point x="518" y="260" type="curve" smooth="yes"/>
      <point x="518" y="410"/>
      <point x="430" y="529"/>
      <point x="276" y="529" type="curve" smooth="yes"/>
      <point x="122" y="529"/>
      <point x="34" y="410"/>
    </contour>
  </outline>
</glyph>
<glyph name="oe.smcp" format="2">
  <advance width="808"/>
  <outline>
    <contour>
      <point x="394" y="206" type="line" smooth="yes"/>
      <point x="394" y="77"/>
      <point x="352" y="26"/>
      <point x="292" y="26" type="curve" smooth="yes"/>
      <point x="215" y="26"/>
      <point x="146" y="68"/>
      <point x="146" y="255" type="curve" smooth="yes"/>
      <point x="146" y="443"/>
      <point x="215" y="484"/>
      <point x="292" y="484" type="curve" smooth="yes"/>
      <point x="355" y="484"/>
      <point x="394" y="453"/>
      <point x="394" y="338" type="curve" smooth="yes"/>
    </contour>
    <contour>
      <point x="292" y="510" type="line" smooth="yes"/>
      <point x="139" y="510"/>
      <point x="34" y="401"/>
      <point x="34" y="255" type="curve" smooth="yes"/>
      <point x="34" y="110"/>
      <point x="139" y="0"/>
      <point x="292" y="0" type="curve" smooth="yes"/>
      <point x="761" y="0" type="line"/>
      <point x="765" y="210" type="line"/>
      <point x="740" y="210" type="line"/>
      <point x="721" y="119"/>
      <point x="706" y="27"/>
      <point x="564" y="27" type="curve" smooth="yes"/>
      <point x="519" y="27" type="line" smooth="yes"/>
      <point x="496" y="27"/>
      <point x="475" y="41"/>
      <point x="475" y="59" type="curve" smooth="yes"/>
      <point x="475" y="245" type="line"/>
      <point x="512" y="245" type="line" smooth="yes"/>
      <point x="559" y="245"/>
      <point x="589" y="199"/>
      <point x="596" y="131" type="curve"/>
      <point x="626" y="131" type="line"/>
      <point x="626" y="384" type="line"/>
      <point x="596" y="384" type="line"/>
      <point x="589" y="317"/>
      <point x="563" y="272"/>
      <point x="512" y="272" type="curve" smooth="yes"/>
      <point x="475" y="272" type="line"/>
      <point x="475" y="453" type="line" smooth="yes"/>
      <point x="475" y="471"/>
      <point x="505" y="483"/>
      <point x="530" y="483" type="curve" smooth="yes"/>
      <point x="567" y="483" type="line" smooth="yes"/>
      <point x="656" y="483"/>
      <point x="702" y="428"/>
      <point x="725" y="334" type="curve"/>
      <point x="751" y="334" type="line"/>
      <point x="746" y="510" type="line"/>
    </contour>
  </outline>
</glyph>
<glyph name="oslash.smcp" format="2">
  <advance width="548"/>
  <anchor x="275" y="548" name="t.asciicircum_1"/>
  <anchor x="275" y="563" name="t.dieresis"/>
  <outline>
    <contour>
      <point x="34" y="255" type="curve" smooth="yes"/>
      <point x="34" y="170"/>
      <point x="64" y="95"/>
      <point x="119" y="47" type="curve"/>
      <point x="68" y="-31" type="line"/>
      <point x="97" y="-46" type="line"/>
      <point x="145" y="27" type="line"/>
      <point x="180" y="4"/>
      <point x="224" y="-9"/>
      <point x="275" y="-9" type="curve" smooth="yes"/>
      <point x="428" y="-9"/>
      <point x="514" y="110"/>
      <point x="514" y="255" type="curve" smooth="yes"/>
      <point x="514" y="340"/>
      <point x="485" y="416"/>
      <point x="430" y="464" type="curve"/>
      <point x="481" y="541" type="line"/>
      <point x="452" y="556" type="line"/>
      <point x="405" y="483" type="line"/>
      <point x="369" y="506"/>
      <point x="326" y="519"/>
      <point x="275" y="519" type="curve" smooth="yes"/>
      <point x="122" y="519"/>
      <point x="34" y="401"/>
    </contour>
    <contour>
      <point x="176" y="75" type="curve"/>
      <point x="387" y="397" type="line"/>
      <point x="397" y="362"/>
      <point x="402" y="316"/>
      <point x="402" y="255" type="curve" smooth="yes"/>
      <point x="402" y="68"/>
      <point x="351" y="15"/>
      <point x="275" y="15" type="curve" smooth="yes"/>
      <point x="233" y="15"/>
      <point x="199" y="31"/>
    </contour>
    <contour>
      <point x="162" y="113" type="line"/>
      <point x="151" y="148"/>
      <point x="146" y="194"/>
      <point x="146" y="255" type="curve" smooth="yes"/>
      <point x="146" y="443"/>
      <point x="198" y="495"/>
      <point x="275" y="495" type="curve" smooth="yes"/>
      <point x="316" y="495"/>
      <point x="350" y="479"/>
      <point x="373" y="435" type="curve"/>
    </contour>
  </outline>
</glyph>
<glyph name="q.smcp" format="2">
  <advance width="552"/>
  <outline>
    <contour>
      <point x="64" y="-95" type="line"/>
      <point x="113" y="-15"/>
      <point x="174" y="-14"/>
      <point x="232" y="-67" type="curve" smooth="yes"/>
      <point x="334" y="-157"/>
      <point x="440" y="-191"/>
      <point x="513" y="-27" type="curve"/>
      <point x="497" y="-17" type="line"/>
      <point x="436" y="-99"/>
      <point x="392" y="-77"/>
      <point x="326" y="-32" type="curve" smooth="yes"/>
      <point x="304" y="-17"/>
      <point x="320" y="-7"/>
      <point x="338" y="-2" type="curve"/>
      <point x="454" y="26"/>
      <point x="518" y="133"/>
      <point x="518" y="260" type="curve" smooth="yes"/>
      <point x="518" y="410"/>
      <point x="430" y="529"/>
      <point x="276" y="529" type="curve" smooth="yes"/>
      <point x="122" y="529"/>
      <point x="34" y="410"/>
      <point x="34" y="260" type="curve" smooth="yes"/>
      <point x="34" y="158"/>
      <point x="77" y="68"/>
      <point x="153" y="23" type="curve"/>
      <point x="106" y="5"/>
      <point x="72" y="-43"/>
      <point x="46" y="-88" type="curve"/>
    </contour>
    <contour>
      <point x="147" y="260" type="curve" smooth="yes"/>
      <point x="147" y="452"/>
      <point x="199" y="505"/>
      <point x="276" y="505" type="curve" smooth="yes"/>
      <point x="353" y="505"/>
      <point x="404" y="452"/>
      <point x="404" y="260" type="curve" smooth="yes"/>
      <point x="404" y="69"/>
      <point x="353" y="15"/>
      <point x="276" y="15" type="curve" smooth="yes"/>
      <point x="199" y="15"/>
      <point x="147" y="69"/>
    </contour>
  </outline>
</glyph>
<glyph name="r.smcp" format="2">
  <advance width="584"/>
  <anchor x="270" y="559" name="t.asciicircum_1"/>
  <anchor x="270" y="574" name="t.dieresis"/>
  <outline>
    <contour>
      <point x="193" y="65" type="curve" smooth="yes"/>
      <point x="193" y="266" type="line"/>
      <point x="261" y="266" type="line" smooth="yes"/>
      <point x="323" y="266"/>
      <point x="357" y="202"/>
      <point x="361" y="135" type="curve" smooth="yes"/>
      <point x="366" y="41"/>
      <point x="401" y="-9"/>
      <point x="476" y="-9" type="curve" smooth="yes"/>
      <point x="541" y="-9"/>
      <point x="575" y="35"/>
      <point x="575" y="101" type="curve" smooth="yes"/>
      <point x="575" y="111"/>
      <point x="574" y="121"/>
      <point x="573" y="131" type="curve"/>
      <point x="547" y="131" type="line"/>
      <point x="547" y="87"/>
      <point x="538" y="41"/>
      <point x="508" y="41" type="curve" smooth="yes"/>
      <point x="472" y="41"/>
      <point x="467" y="97"/>
      <point x="463" y="131" type="curve" smooth="yes"/>
      <point x="455" y="195"/>
      <point x="416" y="256"/>
      <point x="351" y="272" type="curve"/>
      <point x="351" y="280" type="line"/>
      <point x="435" y="290"/>
      <point x="476" y="336"/>
      <point x="476" y="393" type="curve" smooth="yes"/>
      <point x="476" y="473"/>
      <point x="402" y="520"/>
      <point x="266" y="520" type="curve" smooth="yes"/>
      <point x="26" y="520" type="line"/>
      <point x="26" y="493" type="line"/>
      <point x="60" y="493" type="line" smooth="yes"/>
      <point x="98" y="493"/>
      <point x="103" y="490"/>
      <point x="103" y="455" type="curve" smooth="yes"/>
      <point x="103" y="65" type="line" smooth="yes"/>
      <point x="103" y="31"/>
      <point x="98" y="27" name="hr01"/>
      <point x="60" y="27" type="curve" smooth="yes"/>
      <point x="26" y="27" type="line"/>
      <point x="26" y="0" type="line"/>
      <point x="278" y="0" type="line"/>
      <point x="278" y="27" type="line"/>
      <point x="235" y="27" type="line" smooth="yes"/>
      <point x="197" y="27"/>
      <point x="193" y="31"/>
    </contour>
    <contour>
      <point x="257" y="293" type="curve" smooth="yes"/>
      <point x="193" y="293" type="line"/>
      <point x="193" y="462" type="line" smooth="yes"/>
      <point x="193" y="487"/>
      <point x="233" y="492"/>
      <point x="251" y="492" type="curve" smooth="yes"/>
      <point x="257" y="492" type="line" smooth="yes"/>
      <point x="326" y="492"/>
      <point x="374" y="466"/>
      <point x="374" y="393" type="curve" smooth="yes"/>
      <point x="374" y="320"/>
      <point x="326" y="293"/>
    </contour>
  </outline>
</glyph>
<glyph name="ringcomb.smcp" format="2">
  <advance width="250"/>
  <anchor x="125" y="476" name="_t.asciicircum_1"/>
  <outline>
    <contour>
      <point x="54" y="631" type="curve" smooth="yes"/>
      <point x="54" y="673"/>
      <point x="86" y="702"/>
      <point x="125" y="702" type="curve" smooth="yes"/>
      <point x="167" y="702"/>
      <point x="196" y="670"/>
      <point x="196" y="631" type="curve" smooth="yes"/>
      <point x="196" y="589"/>
      <point x="164" y="560"/>
      <point x="125" y="560" type="curve" smooth="yes"/>
      <point x="83" y="560"/>
      <point x="54" y="592"/>
    </contour>
    <contour>
      <point x="17" y="631" type="curve" smooth="yes"/>
      <point x="17" y="573"/>
      <point x="63" y="523"/>
      <point x="125" y="523" type="curve" smooth="yes"/>
      <point x="183" y="523"/>
      <point x="233" y="569"/>
      <point x="233" y="631" type="curve" smooth="yes"/>
      <point x="233" y="689"/>
      <point x="187" y="739"/>
      <point x="125" y="739" type="curve" smooth="yes"/>
      <point x="67" y="739"/>
      <point x="17" y="693"/>
    </contour>
  </outline>
</glyph>
<glyph name="s.smcp" format="2">
  <advance width="535"/>
  <anchor x="240" y="579" name="t.asciicircum_1"/>
  <anchor x="240" y="594" name="t.dieresis"/>
  <outline>
    <contour>
      <point x="272" y="21" type="curve" smooth="yes"/>
      <point x="191" y="21"/>
      <point x="103" y="72"/>
      <point x="86" y="220" type="curve"/>
      <point x="51" y="220" type="line"/>
      <point x="51" y="-9" type="line"/>
      <point x="81" y="-9" type="line"/>
      <point x="88" y="3" type="line" smooth="yes"/>
      <point x="107" y="33"/>
      <point x="117" y="41"/>
      <point x="151" y="23" type="curve" smooth="yes"/>
      <point x="193" y="1"/>
      <point x="231" y="-9"/>
      <point x="276" y="-9" type="curve" smooth="yes"/>
      <point x="399" y="-9"/>
      <point x="483" y="63"/>
      <point x="483" y="149" type="curve" smooth="yes"/>
      <point x="483" y="242"/>
      <point x="405" y="290"/>
      <point x="302" y="322" type="curve" smooth="yes"/>
      <point x="240" y="341" type="line" smooth="yes"/>
      <point x="184" y="359"/>
      <point x="141" y="391"/>
      <point x="141" y="437" type="curve" smooth="yes"/>
      <point x="141" y="475"/>
      <point x="182" y="502"/>
      <point x="243" y="502" type="curve" smooth="yes"/>
      <point x="303" y="502"/>
      <point x="392" y="473"/>
      <point x="416" y="341" type="curve"/>
      <point x="450" y="341" type="line"/>
      <point x="450" y="529" type="line"/>
      <point x="419" y="529" type="line"/>
      <point x="413" y="518" type="line" smooth="yes"/>
      <point x="396" y="490"/>
      <point x="383" y="488"/>
      <point x="348" y="505" type="curve" smooth="yes"/>
      <point x="325" y="517"/>
      <point x="288" y="529"/>
      <point x="243" y="529" type="curve" smooth="yes"/>
      <point x="127" y="529"/>
      <point x="54" y="466"/>
      <point x="54" y="389" type="curve" smooth="yes"/>
      <point x="54" y="312"/>
      <point x="125" y="275"/>
      <point x="205" y="250" type="curve" smooth="yes"/>
      <point x="283" y="227" type="line" smooth="yes"/>
      <point x="365" y="202"/>
      <point x="405" y="165"/>
      <point x="405" y="110" type="curve" smooth="yes"/>
      <point x="405" y="69"/>
      <point x="369" y="21"/>
    </contour>
  </outline>
</glyph>
<glyph name="t.smcp" format="2">
  <advance width="545"/>
  <outline>
    <contour>
      <point x="180" y="492" type="curve" smooth="yes"/>
      <point x="211" y="492"/>
      <point x="225" y="487"/>
      <point x="225" y="462" type="curve"/>
      <point x="226" y="65" type="line"/>
      <point x="226" y="39"/>
      <point x="213" y="27"/>
      <point x="183" y="27" type="curve" smooth="yes"/>
      <point x="149" y="27" type="line"/>
      <point x="149" y="0" type="line"/>
      <point x="398" y="0" type="line"/>
      <point x="398" y="27" type="line"/>
      <point x="364" y="27" type="line" smooth="yes"/>
      <point x="334" y="27"/>
      <point x="320" y="39"/>
      <point x="320" y="65" type="curve" smooth="yes"/>
      <point x="320" y="462" type="line" smooth="yes"/>
      <point x="320" y="487"/>
      <point x="338" y="492"/>
      <point x="366" y="492" type="curve" smooth="yes"/>
      <point x="431" y="492"/>
      <point x="462" y="427"/>
      <point x="487" y="329" type="curve" name="hr01"/>
      <point x="512" y="329" type="line"/>
      <point x="507" y="520" type="line"/>
      <point x="39" y="520" type="line"/>
      <point x="33" y="329" type="line"/>
      <point x="59" y="329" type="line"/>
      <point x="84" y="427"/>
      <point x="114" y="492" name="hr02"/>
    </contour>
  </outline>
</glyph>
<glyph name="v.smcp" format="2">
  <advance width="617"/>
  <anchor x="318" y="551" name="t.asciicircum_1"/>
  <anchor x="318" y="574" name="t.dieresis"/>
  <outline>
    <contour>
      <point x="326" y="106" type="line"/>
      <point x="198" y="437" type="line" smooth="yes"/>
      <point x="179" y="487"/>
      <point x="184" y="493"/>
      <point x="227" y="493" type="curve" smooth="yes"/>
      <point x="261" y="493" type="line"/>
      <point x="261" y="520" type="line"/>
      <point x="17" y="520" type="line"/>
      <point x="17" y="493" type="line"/>
      <point x="28" y="493" type="line" smooth="yes"/>
      <point x="67" y="493"/>
      <point x="77" y="491"/>
      <point x="98" y="439" type="curve" smooth="yes"/>
      <point x="277" y="-9" type="line"/>
      <point x="308" y="-9" type="line"/>
      <point x="500" y="431" type="line" smooth="yes"/>
      <point x="524" y="488"/>
      <point x="542" y="493"/>
      <point x="586" y="493" type="curve" smooth="yes"/>
      <point x="596" y="493" type="line"/>
      <point x="596" y="520" type="line"/>
      <point x="393" y="520" type="line"/>
      <point x="393" y="493" type="line"/>
      <point x="416" y="493" type="line" smooth="yes"/>
      <point x="481" y="493"/>
      <point x="487" y="485"/>
      <point x="464" y="431" type="curve" smooth="yes"/>
    </contour>
  </outline>
</glyph>
<glyph name="w.smcp" format="2">
  <advance width="754"/>
  <anchor x="380" y="569" name="t.asciicircum_1"/>
  <anchor x="380" y="584" name="t.dieresis"/>
  <outline>
    <contour>
      <point x="-16" y="493" type="line"/>
      <point x="10" y="493" type="line" smooth="yes"/>
      <point x="52" y="493"/>
      <point x="51" y="492"/>
      <point x="69" y="441" type="curve" smooth="yes"/>
      <point x="229" y="-9" type="line"/>
      <point x="248" y="-9" type="line"/>
      <point x="377" y="321" type="line"/>
      <point x="494" y="-9" type="line"/>
      <point x="513" y="-9" type="line"/>
      <point x="514" y="-10" type="line"/>
      <point x="669" y="437" type="line" smooth="yes"/>
      <point x="687" y="487"/>
      <point x="703" y="493"/>
      <point x="736" y="493" type="curve" smooth="yes"/>
      <point x="761" y="493" type="line"/>
      <point x="761" y="520" type="line"/>
      <point x="546" y="520" type="line"/>
      <point x="546" y="493" type="line"/>
      <point x="591" y="493" type="line" smooth="yes"/>
      <point x="642" y="493"/>
      <point x="649" y="487"/>
      <point x="632" y="437" type="curve" smooth="yes"/>
      <point x="532" y="149" type="line"/>
      <point x="430" y="450" type="line" smooth="yes"/>
      <point x="419" y="482"/>
      <point x="422" y="493"/>
      <point x="465" y="493" type="curve" smooth="yes"/>
      <point x="493" y="493" type="line"/>
      <point x="493" y="520" type="line"/>
      <point x="277" y="520" type="line"/>
      <point x="277" y="493" type="line"/>
      <point x="290" y="493" type="line" smooth="yes"/>
      <point x="310" y="493"/>
      <point x="317" y="491"/>
      <point x="324" y="472" type="curve" smooth="yes"/>
      <point x="360" y="370" type="line"/>
      <point x="269" y="140" type="line"/>
      <point x="163" y="451" type="line" smooth="yes"/>
      <point x="150" y="488"/>
      <point x="158" y="493"/>
      <point x="196" y="493" type="curve" smooth="yes"/>
      <point x="228" y="493" type="line"/>
      <point x="228" y="520" type="line"/>
      <point x="-16" y="520" type="line"/>
    </contour>
  </outline>
</glyph>
